{"glyphs":{"0":{"ha":1385,"x_min":133,"x_max":1237,"o":"m 927 226 q 815 160 877 185 q 683 135 753 135 q 552 160 613 135 q 442 226 492 185 l 927 226 m 413 254 q 347 365 370 303 q 323 497 323 426 q 344 620 323 563 q 404 726 365 678 l 883 726 l 413 254 m 440 766 q 551 834 490 810 q 683 859 613 859 q 815 834 753 859 q 923 766 876 809 l 440 766 m 1044 497 q 1023 372 1044 430 q 963 265 1001 314 l 482 265 l 952 740 q 1021 623 998 683 q 1044 497 1044 563 m 800 76 q 743 65 772 69 q 683 60 715 60 q 565 76 622 60 q 460 122 508 92 q 372 191 411 151 q 305 280 333 231 q 262 383 277 328 q 247 497 247 438 q 263 615 247 558 q 308 721 278 672 q 377 809 337 769 q 466 876 417 849 q 570 919 515 904 q 683 935 625 935 q 858 899 778 935 q 996 802 938 863 q 1087 662 1054 741 q 1119 497 1119 583 q 1094 350 1119 418 q 1026 228 1069 282 q 925 135 983 174 q 800 76 867 97 m 789 883 q 739 895 765 891 q 683 899 713 899 q 574 884 626 899 q 477 842 522 869 q 397 778 433 815 q 336 696 361 740 q 297 601 310 651 q 283 497 283 550 q 297 392 283 442 q 337 296 311 341 q 399 214 363 251 q 479 150 435 177 q 575 109 524 124 q 683 94 627 94 q 839 125 766 94 q 967 211 913 157 q 1053 339 1022 266 q 1085 497 1085 413 q 1061 634 1085 570 q 997 747 1038 697 q 903 832 957 797 q 789 883 849 867 m 205 221 l 227 183 l 208 172 l 168 238 l 177 243 q 188 246 183 247 l 257 239 l 235 276 l 255 287 l 293 221 l 284 216 q 279 215 280 215 q 274 213 277 213 l 205 221 m 265 100 l 223 151 l 299 215 l 342 163 l 324 149 l 296 181 l 285 172 l 307 147 l 290 131 l 268 157 l 255 147 l 282 115 l 265 100 m 331 140 l 347 157 l 406 106 l 392 90 l 371 108 l 322 49 l 304 64 l 353 122 l 331 140 m 428 94 l 444 83 l 431 -23 l 417 -15 q 414 -12 416 -13 q 412 -9 412 -10 q 410 -5 410 -6 l 410 -1 l 412 11 l 379 31 l 369 24 q 368 23 369 23 q 366 22 367 23 l 362 22 q 359 22 360 22 q 358 22 358 22 q 355 23 356 23 q 353 24 353 23 l 340 31 l 428 94 m 419 60 q 418 59 418 59 q 416 58 415 58 q 415 56 415 56 q 415 56 415 56 l 400 45 l 415 35 l 417 54 q 417 55 417 55 q 418 56 418 56 q 418 58 418 58 q 419 58 419 58 q 419 59 419 59 q 419 60 419 60 m 522 6 l 513 -16 l 480 -3 l 467 -37 l 444 -28 l 481 63 l 542 40 l 535 19 l 494 33 l 489 19 l 522 6 m 529 -9 q 533 4 530 -3 q 541 14 538 8 q 545 19 543 17 q 550 23 548 21 q 556 26 553 25 q 563 28 559 27 q 569 30 565 30 q 576 31 572 31 q 582 31 579 31 q 589 30 585 31 q 595 28 592 28 q 601 26 599 27 q 613 19 608 22 q 617 14 615 16 q 621 9 619 12 q 626 -3 626 3 q 628 -10 628 -7 q 630 -16 629 -12 q 630 -23 630 -19 q 629 -29 630 -26 q 624 -42 628 -36 q 620 -48 622 -45 q 617 -53 619 -50 q 608 -61 614 -58 q 601 -64 604 -62 q 595 -67 599 -65 q 589 -69 592 -68 q 583 -69 586 -69 q 576 -69 579 -69 q 568 -68 573 -69 q 562 -67 565 -67 q 556 -65 560 -66 q 551 -61 553 -63 q 545 -57 548 -60 q 541 -52 542 -55 q 537 -47 539 -49 q 534 -42 535 -44 q 531 -36 532 -39 q 528 -23 529 -28 q 528 -16 528 -19 q 529 -9 528 -12 m 553 -14 q 553 -25 552 -20 q 554 -30 553 -27 q 556 -35 555 -32 q 563 -42 559 -39 q 568 -44 565 -44 q 574 -46 571 -45 q 584 -46 578 -48 q 594 -43 590 -45 q 601 -35 599 -39 q 604 -30 603 -32 q 606 -25 606 -27 q 606 -13 608 -19 q 601 -4 606 -10 q 598 0 600 -1 q 594 4 597 2 q 590 6 592 6 q 584 8 588 7 q 574 8 578 10 q 568 6 571 7 q 563 4 566 6 q 560 1 562 3 q 557 -4 558 -1 q 553 -14 554 -7 m 727 -78 l 706 -79 l 661 -13 l 662 -79 l 638 -80 l 637 19 l 647 19 l 656 19 q 663 19 661 19 q 666 15 665 17 l 701 -34 q 701 -35 701 -35 q 702 -37 701 -36 q 703 -39 702 -38 q 703 -40 703 -39 q 704 -43 703 -42 l 702 20 l 726 20 l 727 -78 m 738 -1 l 734 22 l 812 35 l 816 14 l 789 8 l 803 -66 l 781 -70 l 767 4 l 738 -1 m 856 28 q 851 27 853 28 q 849 26 849 27 q 848 23 848 23 q 849 22 848 22 q 851 19 849 19 q 852 18 851 19 q 853 17 852 17 l 860 17 l 867 17 q 874 17 871 17 q 880 17 876 17 q 884 15 883 15 q 889 13 886 15 q 897 7 894 10 q 902 -3 901 4 q 904 -15 905 -9 q 903 -22 904 -19 q 900 -28 901 -24 q 897 -33 899 -31 q 892 -39 895 -35 q 885 -42 888 -40 q 879 -45 883 -44 q 874 -47 876 -46 q 867 -47 871 -47 q 857 -46 863 -49 q 847 -42 851 -45 q 842 -39 844 -41 q 839 -35 840 -37 l 844 -28 q 847 -26 845 -26 q 849 -24 849 -24 q 856 -23 851 -23 q 859 -23 858 -23 q 861 -24 860 -24 q 864 -24 863 -24 q 866 -25 865 -25 q 871 -24 869 -25 q 874 -23 873 -24 q 876 -22 874 -23 l 879 -19 q 881 -14 881 -17 q 881 -10 881 -14 l 878 -8 q 875 -7 878 -7 q 872 -6 874 -6 q 869 -6 871 -6 l 863 -6 q 858 -6 860 -6 q 852 -5 856 -6 q 842 -3 848 -5 q 837 -1 840 -2 q 833 2 835 1 q 826 13 830 6 q 825 19 825 16 q 825 24 825 22 q 826 30 826 28 q 829 35 827 33 q 832 41 831 39 q 837 44 834 42 q 847 50 842 48 q 851 51 849 51 q 856 52 853 52 q 860 51 858 52 q 865 51 862 51 q 868 50 866 50 q 874 48 870 49 q 877 46 875 47 q 880 44 878 46 l 876 37 q 874 32 875 35 q 870 31 872 31 q 867 31 869 31 q 865 30 867 30 l 861 30 l 858 30 q 856 28 856 30 m 918 -14 q 917 -11 918 -12 q 917 -9 917 -10 q 918 -4 917 -6 q 920 1 918 -3 q 924 4 921 3 q 927 5 926 5 q 930 6 928 5 q 932 5 931 6 q 935 5 933 5 q 939 2 938 3 q 942 -3 941 1 q 945 -8 945 -6 q 944 -12 945 -11 q 942 -15 942 -14 q 941 -17 942 -16 q 939 -19 940 -18 q 937 -21 938 -19 q 932 -22 933 -22 q 927 -22 928 -22 q 921 -19 924 -22 q 918 -14 919 -17 m 954 46 q 962 38 956 42 q 966 35 964 36 q 972 33 969 35 q 982 33 976 32 q 987 35 985 33 q 992 38 989 36 q 995 41 994 39 q 999 44 997 42 l 1003 50 q 1008 58 1004 55 q 1010 59 1009 59 q 1013 60 1012 59 l 1019 60 l 1027 58 q 1026 52 1026 55 q 1024 46 1025 49 q 1019 35 1023 42 q 1013 26 1017 30 q 1005 19 1008 22 q 998 16 1001 17 q 992 13 995 14 q 979 10 986 10 q 973 10 976 10 q 966 11 969 10 q 961 13 964 13 q 954 15 958 13 q 949 18 951 17 q 944 23 946 20 q 939 27 941 25 q 934 32 936 29 q 931 39 933 35 q 928 45 930 42 q 927 51 928 48 q 926 58 927 54 q 926 64 926 61 q 927 70 926 67 q 931 83 928 76 q 934 88 933 85 q 938 94 935 91 q 943 99 940 97 q 949 103 946 101 q 958 108 954 106 q 964 109 961 109 q 969 111 966 110 l 981 111 q 988 110 985 111 q 992 109 990 110 l 992 100 q 990 95 990 97 q 988 93 988 94 q 985 91 987 92 q 976 88 980 88 q 969 87 972 88 q 960 84 965 86 q 953 76 956 81 q 950 67 950 71 q 950 56 949 61 q 954 46 951 49 m 1013 85 q 1009 90 1010 88 q 1005 96 1007 92 q 1002 102 1003 99 q 1001 108 1001 105 q 999 115 999 112 q 999 121 999 117 q 1000 127 999 124 q 1001 134 1000 131 q 1003 140 1001 138 q 1006 147 1004 143 q 1009 151 1008 149 q 1014 156 1011 154 q 1019 161 1017 159 q 1025 165 1022 163 q 1031 168 1028 167 q 1037 169 1033 169 q 1043 171 1040 171 q 1049 171 1046 171 q 1056 171 1053 171 q 1063 169 1059 171 q 1069 168 1066 169 q 1075 165 1072 167 q 1081 161 1078 163 q 1086 156 1083 159 q 1090 151 1088 153 q 1094 145 1092 149 q 1096 140 1095 142 q 1099 133 1097 137 q 1099 127 1099 130 q 1099 120 1099 124 q 1098 108 1099 115 q 1096 102 1097 105 q 1093 96 1094 99 q 1085 85 1090 90 q 1080 80 1082 82 q 1074 77 1077 78 q 1068 74 1071 76 q 1062 72 1065 73 q 1049 70 1056 70 q 1036 72 1042 70 q 1030 74 1033 73 q 1024 77 1027 76 q 1019 81 1022 78 q 1013 85 1016 83 m 1030 101 q 1034 98 1032 99 q 1040 95 1037 97 q 1049 94 1044 94 q 1060 95 1057 94 q 1065 98 1063 96 q 1069 101 1067 99 q 1075 110 1074 106 q 1077 120 1077 115 q 1075 131 1077 125 q 1069 140 1074 135 q 1060 147 1065 144 q 1049 149 1056 149 q 1044 148 1047 149 q 1040 147 1042 148 q 1034 144 1037 146 q 1030 140 1032 143 q 1024 131 1026 138 q 1022 126 1022 129 q 1022 121 1022 124 q 1024 111 1022 114 q 1026 106 1025 108 q 1030 101 1028 103 m 1190 224 l 1178 203 l 1138 229 l 1166 187 l 1156 170 l 1106 179 l 1144 153 l 1131 134 l 1049 188 l 1058 201 q 1064 207 1060 205 q 1068 208 1066 208 q 1072 208 1071 208 l 1131 199 l 1098 247 q 1096 252 1097 250 q 1095 256 1095 253 q 1096 260 1095 258 q 1098 264 1097 262 l 1107 277 l 1190 224 m 231 645 l 226 632 l 133 667 l 146 699 q 151 710 148 706 q 162 717 156 716 q 167 719 165 719 q 173 720 169 720 q 179 720 176 720 q 185 719 182 719 q 195 711 192 716 q 200 707 199 710 q 202 702 201 705 q 204 696 203 699 q 206 691 205 693 q 203 678 206 685 l 197 658 l 231 645 m 191 683 q 191 686 191 685 q 192 690 192 688 q 191 693 192 692 q 190 697 191 694 q 189 699 190 698 q 186 702 188 701 q 181 706 184 704 q 177 706 179 706 q 174 706 175 706 q 170 706 172 706 q 167 705 169 706 q 165 703 166 703 q 162 701 163 703 q 158 695 159 697 l 151 674 l 183 663 l 191 683 m 281 753 l 251 699 l 165 747 l 194 800 l 206 793 l 183 752 l 208 738 l 227 772 l 239 766 l 220 733 l 246 717 l 269 759 l 281 753 m 294 771 l 286 760 l 208 820 l 228 849 q 233 852 231 850 q 238 856 235 854 q 243 858 240 858 q 248 860 245 859 q 253 860 251 860 q 259 859 256 860 q 269 853 265 858 q 273 850 272 852 q 276 847 274 849 q 278 843 277 845 q 280 840 279 841 q 281 834 281 836 q 281 830 281 832 q 279 822 281 826 l 331 820 l 326 813 q 321 808 324 810 q 317 807 319 808 q 315 806 316 806 l 271 808 l 262 796 l 294 771 m 226 823 l 251 804 l 264 822 q 266 824 265 823 q 267 827 266 826 l 267 833 q 267 835 267 834 q 265 839 266 837 q 261 842 263 842 q 256 845 258 845 q 250 846 254 846 q 247 845 249 845 q 244 844 246 845 q 240 840 242 843 l 226 823 m 303 903 q 299 903 300 903 q 296 902 297 903 q 292 899 294 901 q 288 894 290 897 q 286 889 286 892 l 286 884 q 289 880 287 882 q 293 876 291 877 l 297 876 q 303 878 299 876 q 307 880 306 879 q 312 881 309 880 q 314 883 313 882 q 316 883 315 883 q 322 885 317 884 q 326 888 324 885 q 328 888 327 888 q 331 888 329 888 q 353 880 344 890 q 360 869 360 876 q 361 863 361 865 q 362 858 362 861 q 360 851 361 854 q 358 845 360 848 q 355 839 357 842 q 351 835 352 837 q 329 824 342 826 l 325 824 q 321 826 323 826 q 318 826 319 826 q 317 826 317 826 q 316 827 316 826 q 315 827 316 827 l 316 831 q 317 833 317 832 q 318 835 317 834 q 326 839 324 839 l 328 839 q 335 840 331 839 q 342 844 338 841 q 343 847 343 846 q 345 850 344 849 q 347 858 347 853 q 347 864 349 860 q 346 867 347 866 q 344 870 345 869 q 338 874 342 874 q 331 874 334 876 q 325 872 327 874 q 317 868 319 870 q 308 865 315 867 q 302 863 305 863 q 298 863 299 863 q 288 863 291 863 q 283 866 286 865 q 279 870 281 867 q 273 880 274 874 q 272 890 272 886 q 276 900 274 897 q 281 909 277 903 q 289 913 285 913 q 296 916 292 916 q 304 917 303 917 q 311 917 309 917 l 310 913 q 308 906 310 910 q 303 903 306 903 m 344 900 q 341 906 343 903 q 339 913 340 909 q 335 925 335 919 q 335 932 335 928 q 335 938 335 935 q 338 945 337 942 q 340 951 339 948 q 343 956 342 954 q 347 962 345 958 q 358 970 351 966 q 369 976 363 975 q 383 978 376 978 q 396 978 389 981 q 401 977 399 978 q 407 974 403 976 q 413 971 410 973 q 419 967 416 969 q 423 963 422 965 q 428 957 425 960 q 431 951 429 954 q 433 945 433 949 q 436 933 436 939 q 436 919 438 926 q 434 913 435 916 q 432 907 433 910 q 424 896 428 900 q 420 891 422 894 q 415 888 418 889 q 397 880 405 881 q 376 880 386 877 q 367 882 372 881 q 358 886 363 884 q 344 900 350 892 m 356 908 q 366 898 359 901 q 379 893 372 894 q 394 893 386 891 q 406 899 401 894 q 417 909 414 903 q 420 915 419 913 q 422 922 421 918 q 422 937 423 929 q 420 943 421 940 q 416 949 419 946 q 406 960 413 956 q 393 965 399 965 q 379 965 385 967 q 365 959 372 964 q 355 949 359 955 q 352 942 353 945 q 349 935 351 939 q 349 922 348 929 q 352 915 351 918 q 356 908 353 912 m 474 924 l 460 918 l 423 1010 l 433 1014 q 438 1015 435 1015 q 442 1014 442 1015 l 518 965 l 519 965 q 519 963 519 963 q 521 962 521 963 q 522 962 521 962 l 490 1038 l 503 1042 l 540 951 l 531 947 q 525 947 528 947 q 519 947 522 947 l 446 996 q 444 996 444 996 q 443 997 444 997 q 442 999 443 998 q 442 999 442 999 l 442 1001 l 474 924 m 563 1058 l 576 1060 l 638 972 l 630 970 q 627 970 628 969 q 624 970 626 970 q 619 974 621 971 l 610 988 l 560 978 l 557 962 q 553 956 556 958 q 551 954 553 955 q 548 953 549 953 l 540 952 l 563 1058 m 573 1038 l 563 993 l 601 1001 l 576 1038 q 574 1040 574 1039 q 573 1043 574 1042 l 573 1040 l 573 1038 m 638 969 l 635 1069 l 648 1069 l 651 984 l 695 986 l 696 972 l 638 969 m 750 1006 q 750 995 749 1000 q 752 991 751 993 q 754 987 753 988 q 757 983 756 985 q 760 980 759 981 q 766 977 763 978 q 771 975 768 976 q 781 976 778 975 q 786 977 784 976 q 790 980 788 978 q 797 987 794 983 q 800 991 799 989 q 802 997 801 994 l 812 1056 l 826 1054 l 814 994 q 813 989 813 992 q 811 984 813 987 q 809 979 810 981 q 806 975 808 977 q 802 972 804 974 q 798 969 799 970 q 790 965 794 966 q 784 963 787 963 q 779 962 781 963 q 769 963 772 962 q 763 964 765 963 q 758 966 761 965 q 754 968 756 967 q 750 971 752 969 q 742 978 745 974 q 738 988 741 982 q 736 998 736 992 q 737 1008 736 1005 l 747 1067 l 760 1065 l 750 1006 m 878 1018 q 877 1020 878 1019 q 875 1023 876 1022 q 872 1024 874 1024 q 869 1025 871 1024 q 863 1026 867 1026 l 858 1026 q 853 1024 856 1024 q 851 1019 851 1022 q 851 1014 849 1016 q 852 1010 851 1011 q 853 1007 853 1008 q 856 1005 854 1006 q 863 1000 858 1003 q 865 998 864 999 q 867 996 865 997 q 869 994 868 995 q 871 992 869 993 q 873 991 872 992 q 875 989 874 990 q 876 987 876 988 q 878 985 876 986 q 881 962 885 974 q 877 956 879 958 q 874 951 876 953 q 868 947 871 949 q 863 944 866 945 q 851 942 858 942 q 845 942 848 942 q 839 943 842 942 q 820 959 826 949 q 819 961 820 960 q 817 963 818 962 q 817 965 817 964 q 817 967 817 965 q 816 969 816 967 l 816 972 l 820 973 q 825 972 823 973 q 831 967 829 971 l 831 966 q 833 963 833 964 q 835 960 834 962 q 840 958 838 959 q 843 956 841 957 q 846 956 844 956 q 849 956 848 956 q 853 956 851 956 q 857 956 856 956 q 863 960 862 958 q 867 966 867 963 q 867 973 869 970 q 867 976 867 974 q 865 978 866 977 q 863 981 864 980 q 860 984 862 983 q 858 986 859 985 q 853 988 856 987 q 850 992 852 990 q 847 996 848 994 q 843 999 844 997 q 840 1004 842 1001 q 838 1008 839 1006 q 837 1012 837 1010 q 839 1024 835 1017 q 844 1033 840 1029 q 853 1038 849 1038 q 859 1040 856 1040 q 863 1040 861 1040 q 869 1040 866 1040 q 875 1038 872 1039 q 881 1034 878 1038 q 888 1028 885 1031 q 890 1025 889 1026 q 892 1022 892 1024 q 893 1019 893 1020 q 894 1016 894 1017 l 890 1014 q 883 1014 887 1013 q 878 1018 880 1017 m 930 903 l 876 931 l 920 1019 l 974 991 l 969 978 l 927 1001 l 914 975 l 948 958 l 941 945 l 907 963 l 894 938 l 936 915 l 930 903 m 992 922 q 1003 931 997 929 q 1008 935 1005 933 q 1013 938 1010 936 q 1020 939 1017 939 q 1026 940 1023 939 q 1033 940 1030 940 q 1040 939 1036 940 q 1052 935 1046 938 q 1063 927 1057 933 q 1068 923 1065 925 q 1072 917 1071 920 q 1077 906 1076 912 q 1080 893 1080 900 q 1080 886 1080 890 q 1079 880 1080 883 q 1077 873 1078 876 q 1075 867 1076 870 q 1067 857 1072 860 q 1063 851 1065 853 q 1058 847 1060 849 q 1051 844 1054 845 q 1045 842 1049 842 q 1033 840 1039 840 q 1026 840 1029 840 q 1019 840 1023 840 q 1014 842 1017 841 q 1008 844 1011 842 q 1002 848 1004 846 q 996 851 999 849 q 989 859 992 856 q 984 867 986 863 q 981 877 983 872 q 979 886 980 881 q 982 906 979 897 q 992 922 985 916 m 1003 914 q 994 901 997 908 q 993 894 993 898 q 992 888 992 891 q 993 880 992 883 q 996 874 994 877 q 1000 867 999 870 q 1005 862 1002 864 q 1011 858 1008 859 q 1018 854 1015 856 q 1031 853 1026 852 q 1045 857 1040 853 q 1052 860 1049 858 q 1058 865 1055 863 q 1064 878 1063 871 q 1066 892 1067 884 q 1065 899 1066 895 q 1063 906 1065 902 q 1059 911 1061 909 q 1054 917 1057 914 q 1048 921 1051 919 q 1041 924 1044 923 q 1034 926 1038 926 q 1027 926 1031 926 q 1020 925 1024 926 q 1013 922 1017 924 q 1003 914 1007 919 m 1046 804 l 1038 814 l 1117 874 l 1124 865 q 1126 860 1126 862 l 1126 854 l 1097 771 q 1097 770 1097 770 q 1097 769 1097 770 q 1096 769 1097 769 q 1095 768 1095 769 l 1094 767 l 1160 815 l 1169 805 l 1090 746 l 1083 754 q 1080 759 1081 756 q 1081 764 1080 763 l 1109 849 q 1110 849 1109 849 q 1110 850 1110 849 l 1111 851 q 1113 853 1112 852 l 1046 804 m 1094 734 l 1183 779 l 1188 768 l 1113 728 l 1133 691 l 1120 684 l 1094 734 m 1131 656 l 1126 668 l 1165 683 q 1167 684 1167 684 q 1169 685 1169 685 q 1170 687 1169 687 q 1170 688 1170 688 q 1172 690 1172 688 l 1205 740 l 1207 732 q 1209 727 1208 729 q 1209 724 1209 725 q 1208 720 1208 722 q 1206 717 1207 719 l 1185 685 l 1183 683 l 1183 683 l 1184 683 q 1186 683 1184 683 l 1224 672 q 1227 670 1225 671 q 1230 668 1228 669 q 1233 663 1233 667 l 1237 653 l 1180 670 q 1178 671 1178 670 l 1175 671 l 1172 671 q 1169 670 1170 671 l 1131 656 z "},"1":{"ha":1385,"x_min":133,"x_max":1237,"o":"m 927 226 q 815 160 877 185 q 683 135 753 135 q 552 160 613 135 q 442 226 492 185 l 927 226 m 413 254 q 347 365 370 303 q 323 497 323 426 q 344 620 323 563 q 404 726 365 678 l 883 726 l 413 254 m 440 766 q 551 834 490 810 q 683 859 613 859 q 815 834 753 859 q 923 766 876 809 l 440 766 m 1044 497 q 1023 372 1044 430 q 963 265 1001 314 l 482 265 l 952 740 q 1021 623 998 683 q 1044 497 1044 563 m 800 76 q 743 65 772 69 q 683 60 715 60 q 565 76 622 60 q 460 122 508 92 q 372 191 411 151 q 305 280 333 231 q 262 383 277 328 q 247 497 247 438 q 263 615 247 558 q 308 721 278 672 q 377 809 337 769 q 466 876 417 849 q 570 919 515 904 q 683 935 625 935 q 858 899 778 935 q 996 802 938 863 q 1087 662 1054 741 q 1119 497 1119 583 q 1094 350 1119 418 q 1026 228 1069 282 q 925 135 983 174 q 800 76 867 97 m 789 883 q 739 895 765 891 q 683 899 713 899 q 574 884 626 899 q 477 842 522 869 q 397 778 433 815 q 336 696 361 740 q 297 601 310 651 q 283 497 283 550 q 297 392 283 442 q 337 296 311 341 q 399 214 363 251 q 479 150 435 177 q 575 109 524 124 q 683 94 627 94 q 839 125 766 94 q 967 211 913 157 q 1053 339 1022 266 q 1085 497 1085 413 q 1061 634 1085 570 q 997 747 1038 697 q 903 832 957 797 q 789 883 849 867 m 205 221 l 227 183 l 208 172 l 168 238 l 177 243 q 188 246 183 247 l 257 239 l 235 276 l 255 287 l 293 221 l 284 216 q 279 215 280 215 q 274 213 277 213 l 205 221 m 265 100 l 223 151 l 299 215 l 342 163 l 324 149 l 296 181 l 285 172 l 307 147 l 290 131 l 268 157 l 255 147 l 282 115 l 265 100 m 331 140 l 347 157 l 406 106 l 392 90 l 371 108 l 322 49 l 304 64 l 353 122 l 331 140 m 428 94 l 444 83 l 431 -23 l 417 -15 q 414 -12 416 -13 q 412 -9 412 -10 q 410 -5 410 -6 l 410 -1 l 412 11 l 379 31 l 369 24 q 368 23 369 23 q 366 22 367 23 l 362 22 q 359 22 360 22 q 358 22 358 22 q 355 23 356 23 q 353 24 353 23 l 340 31 l 428 94 m 419 60 q 418 59 418 59 q 416 58 415 58 q 415 56 415 56 q 415 56 415 56 l 400 45 l 415 35 l 417 54 q 417 55 417 55 q 418 56 418 56 q 418 58 418 58 q 419 58 419 58 q 419 59 419 59 q 419 60 419 60 m 522 6 l 513 -16 l 480 -3 l 467 -37 l 444 -28 l 481 63 l 542 40 l 535 19 l 494 33 l 489 19 l 522 6 m 529 -9 q 533 4 530 -3 q 541 14 538 8 q 545 19 543 17 q 550 23 548 21 q 556 26 553 25 q 563 28 559 27 q 569 30 565 30 q 576 31 572 31 q 582 31 579 31 q 589 30 585 31 q 595 28 592 28 q 601 26 599 27 q 613 19 608 22 q 617 14 615 16 q 621 9 619 12 q 626 -3 626 3 q 628 -10 628 -7 q 630 -16 629 -12 q 630 -23 630 -19 q 629 -29 630 -26 q 624 -42 628 -36 q 620 -48 622 -45 q 617 -53 619 -50 q 608 -61 614 -58 q 601 -64 604 -62 q 595 -67 599 -65 q 589 -69 592 -68 q 583 -69 586 -69 q 576 -69 579 -69 q 568 -68 573 -69 q 562 -67 565 -67 q 556 -65 560 -66 q 551 -61 553 -63 q 545 -57 548 -60 q 541 -52 542 -55 q 537 -47 539 -49 q 534 -42 535 -44 q 531 -36 532 -39 q 528 -23 529 -28 q 528 -16 528 -19 q 529 -9 528 -12 m 553 -14 q 553 -25 552 -20 q 554 -30 553 -27 q 556 -35 555 -32 q 563 -42 559 -39 q 568 -44 565 -44 q 574 -46 571 -45 q 584 -46 578 -48 q 594 -43 590 -45 q 601 -35 599 -39 q 604 -30 603 -32 q 606 -25 606 -27 q 606 -13 608 -19 q 601 -4 606 -10 q 598 0 600 -1 q 594 4 597 2 q 590 6 592 6 q 584 8 588 7 q 574 8 578 10 q 568 6 571 7 q 563 4 566 6 q 560 1 562 3 q 557 -4 558 -1 q 553 -14 554 -7 m 727 -78 l 706 -79 l 661 -13 l 662 -79 l 638 -80 l 637 19 l 647 19 l 656 19 q 663 19 661 19 q 666 15 665 17 l 701 -34 q 701 -35 701 -35 q 702 -37 701 -36 q 703 -39 702 -38 q 703 -40 703 -39 q 704 -43 703 -42 l 702 20 l 726 20 l 727 -78 m 738 -1 l 734 22 l 812 35 l 816 14 l 789 8 l 803 -66 l 781 -70 l 767 4 l 738 -1 m 856 28 q 851 27 853 28 q 849 26 849 27 q 848 23 848 23 q 849 22 848 22 q 851 19 849 19 q 852 18 851 19 q 853 17 852 17 l 860 17 l 867 17 q 874 17 871 17 q 880 17 876 17 q 884 15 883 15 q 889 13 886 15 q 897 7 894 10 q 902 -3 901 4 q 904 -15 905 -9 q 903 -22 904 -19 q 900 -28 901 -24 q 897 -33 899 -31 q 892 -39 895 -35 q 885 -42 888 -40 q 879 -45 883 -44 q 874 -47 876 -46 q 867 -47 871 -47 q 857 -46 863 -49 q 847 -42 851 -45 q 842 -39 844 -41 q 839 -35 840 -37 l 844 -28 q 847 -26 845 -26 q 849 -24 849 -24 q 856 -23 851 -23 q 859 -23 858 -23 q 861 -24 860 -24 q 864 -24 863 -24 q 866 -25 865 -25 q 871 -24 869 -25 q 874 -23 873 -24 q 876 -22 874 -23 l 879 -19 q 881 -14 881 -17 q 881 -10 881 -14 l 878 -8 q 875 -7 878 -7 q 872 -6 874 -6 q 869 -6 871 -6 l 863 -6 q 858 -6 860 -6 q 852 -5 856 -6 q 842 -3 848 -5 q 837 -1 840 -2 q 833 2 835 1 q 826 13 830 6 q 825 19 825 16 q 825 24 825 22 q 826 30 826 28 q 829 35 827 33 q 832 41 831 39 q 837 44 834 42 q 847 50 842 48 q 851 51 849 51 q 856 52 853 52 q 860 51 858 52 q 865 51 862 51 q 868 50 866 50 q 874 48 870 49 q 877 46 875 47 q 880 44 878 46 l 876 37 q 874 32 875 35 q 870 31 872 31 q 867 31 869 31 q 865 30 867 30 l 861 30 l 858 30 q 856 28 856 30 m 918 -14 q 917 -11 918 -12 q 917 -9 917 -10 q 918 -4 917 -6 q 920 1 918 -3 q 924 4 921 3 q 927 5 926 5 q 930 6 928 5 q 932 5 931 6 q 935 5 933 5 q 939 2 938 3 q 942 -3 941 1 q 945 -8 945 -6 q 944 -12 945 -11 q 942 -15 942 -14 q 941 -17 942 -16 q 939 -19 940 -18 q 937 -21 938 -19 q 932 -22 933 -22 q 927 -22 928 -22 q 921 -19 924 -22 q 918 -14 919 -17 m 954 46 q 962 38 956 42 q 966 35 964 36 q 972 33 969 35 q 982 33 976 32 q 987 35 985 33 q 992 38 989 36 q 995 41 994 39 q 999 44 997 42 l 1003 50 q 1008 58 1004 55 q 1010 59 1009 59 q 1013 60 1012 59 l 1019 60 l 1027 58 q 1026 52 1026 55 q 1024 46 1025 49 q 1019 35 1023 42 q 1013 26 1017 30 q 1005 19 1008 22 q 998 16 1001 17 q 992 13 995 14 q 979 10 986 10 q 973 10 976 10 q 966 11 969 10 q 961 13 964 13 q 954 15 958 13 q 949 18 951 17 q 944 23 946 20 q 939 27 941 25 q 934 32 936 29 q 931 39 933 35 q 928 45 930 42 q 927 51 928 48 q 926 58 927 54 q 926 64 926 61 q 927 70 926 67 q 931 83 928 76 q 934 88 933 85 q 938 94 935 91 q 943 99 940 97 q 949 103 946 101 q 958 108 954 106 q 964 109 961 109 q 969 111 966 110 l 981 111 q 988 110 985 111 q 992 109 990 110 l 992 100 q 990 95 990 97 q 988 93 988 94 q 985 91 987 92 q 976 88 980 88 q 969 87 972 88 q 960 84 965 86 q 953 76 956 81 q 950 67 950 71 q 950 56 949 61 q 954 46 951 49 m 1013 85 q 1009 90 1010 88 q 1005 96 1007 92 q 1002 102 1003 99 q 1001 108 1001 105 q 999 115 999 112 q 999 121 999 117 q 1000 127 999 124 q 1001 134 1000 131 q 1003 140 1001 138 q 1006 147 1004 143 q 1009 151 1008 149 q 1014 156 1011 154 q 1019 161 1017 159 q 1025 165 1022 163 q 1031 168 1028 167 q 1037 169 1033 169 q 1043 171 1040 171 q 1049 171 1046 171 q 1056 171 1053 171 q 1063 169 1059 171 q 1069 168 1066 169 q 1075 165 1072 167 q 1081 161 1078 163 q 1086 156 1083 159 q 1090 151 1088 153 q 1094 145 1092 149 q 1096 140 1095 142 q 1099 133 1097 137 q 1099 127 1099 130 q 1099 120 1099 124 q 1098 108 1099 115 q 1096 102 1097 105 q 1093 96 1094 99 q 1085 85 1090 90 q 1080 80 1082 82 q 1074 77 1077 78 q 1068 74 1071 76 q 1062 72 1065 73 q 1049 70 1056 70 q 1036 72 1042 70 q 1030 74 1033 73 q 1024 77 1027 76 q 1019 81 1022 78 q 1013 85 1016 83 m 1030 101 q 1034 98 1032 99 q 1040 95 1037 97 q 1049 94 1044 94 q 1060 95 1057 94 q 1065 98 1063 96 q 1069 101 1067 99 q 1075 110 1074 106 q 1077 120 1077 115 q 1075 131 1077 125 q 1069 140 1074 135 q 1060 147 1065 144 q 1049 149 1056 149 q 1044 148 1047 149 q 1040 147 1042 148 q 1034 144 1037 146 q 1030 140 1032 143 q 1024 131 1026 138 q 1022 126 1022 129 q 1022 121 1022 124 q 1024 111 1022 114 q 1026 106 1025 108 q 1030 101 1028 103 m 1190 224 l 1178 203 l 1138 229 l 1166 187 l 1156 170 l 1106 179 l 1144 153 l 1131 134 l 1049 188 l 1058 201 q 1064 207 1060 205 q 1068 208 1066 208 q 1072 208 1071 208 l 1131 199 l 1098 247 q 1096 252 1097 250 q 1095 256 1095 253 q 1096 260 1095 258 q 1098 264 1097 262 l 1107 277 l 1190 224 m 231 645 l 226 632 l 133 667 l 146 699 q 151 710 148 706 q 162 717 156 716 q 167 719 165 719 q 173 720 169 720 q 179 720 176 720 q 185 719 182 719 q 195 711 192 716 q 200 707 199 710 q 202 702 201 705 q 204 696 203 699 q 206 691 205 693 q 203 678 206 685 l 197 658 l 231 645 m 191 683 q 191 686 191 685 q 192 690 192 688 q 191 693 192 692 q 190 697 191 694 q 189 699 190 698 q 186 702 188 701 q 181 706 184 704 q 177 706 179 706 q 174 706 175 706 q 170 706 172 706 q 167 705 169 706 q 165 703 166 703 q 162 701 163 703 q 158 695 159 697 l 151 674 l 183 663 l 191 683 m 281 753 l 251 699 l 165 747 l 194 800 l 206 793 l 183 752 l 208 738 l 227 772 l 239 766 l 220 733 l 246 717 l 269 759 l 281 753 m 294 771 l 286 760 l 208 820 l 228 849 q 233 852 231 850 q 238 856 235 854 q 243 858 240 858 q 248 860 245 859 q 253 860 251 860 q 259 859 256 860 q 269 853 265 858 q 273 850 272 852 q 276 847 274 849 q 278 843 277 845 q 280 840 279 841 q 281 834 281 836 q 281 830 281 832 q 279 822 281 826 l 331 820 l 326 813 q 321 808 324 810 q 317 807 319 808 q 315 806 316 806 l 271 808 l 262 796 l 294 771 m 226 823 l 251 804 l 264 822 q 266 824 265 823 q 267 827 266 826 l 267 833 q 267 835 267 834 q 265 839 266 837 q 261 842 263 842 q 256 845 258 845 q 250 846 254 846 q 247 845 249 845 q 244 844 246 845 q 240 840 242 843 l 226 823 m 303 903 q 299 903 300 903 q 296 902 297 903 q 292 899 294 901 q 288 894 290 897 q 286 889 286 892 l 286 884 q 289 880 287 882 q 293 876 291 877 l 297 876 q 303 878 299 876 q 307 880 306 879 q 312 881 309 880 q 314 883 313 882 q 316 883 315 883 q 322 885 317 884 q 326 888 324 885 q 328 888 327 888 q 331 888 329 888 q 353 880 344 890 q 360 869 360 876 q 361 863 361 865 q 362 858 362 861 q 360 851 361 854 q 358 845 360 848 q 355 839 357 842 q 351 835 352 837 q 329 824 342 826 l 325 824 q 321 826 323 826 q 318 826 319 826 q 317 826 317 826 q 316 827 316 826 q 315 827 316 827 l 316 831 q 317 833 317 832 q 318 835 317 834 q 326 839 324 839 l 328 839 q 335 840 331 839 q 342 844 338 841 q 343 847 343 846 q 345 850 344 849 q 347 858 347 853 q 347 864 349 860 q 346 867 347 866 q 344 870 345 869 q 338 874 342 874 q 331 874 334 876 q 325 872 327 874 q 317 868 319 870 q 308 865 315 867 q 302 863 305 863 q 298 863 299 863 q 288 863 291 863 q 283 866 286 865 q 279 870 281 867 q 273 880 274 874 q 272 890 272 886 q 276 900 274 897 q 281 909 277 903 q 289 913 285 913 q 296 916 292 916 q 304 917 303 917 q 311 917 309 917 l 310 913 q 308 906 310 910 q 303 903 306 903 m 344 900 q 341 906 343 903 q 339 913 340 909 q 335 925 335 919 q 335 932 335 928 q 335 938 335 935 q 338 945 337 942 q 340 951 339 948 q 343 956 342 954 q 347 962 345 958 q 358 970 351 966 q 369 976 363 975 q 383 978 376 978 q 396 978 389 981 q 401 977 399 978 q 407 974 403 976 q 413 971 410 973 q 419 967 416 969 q 423 963 422 965 q 428 957 425 960 q 431 951 429 954 q 433 945 433 949 q 436 933 436 939 q 436 919 438 926 q 434 913 435 916 q 432 907 433 910 q 424 896 428 900 q 420 891 422 894 q 415 888 418 889 q 397 880 405 881 q 376 880 386 877 q 367 882 372 881 q 358 886 363 884 q 344 900 350 892 m 356 908 q 366 898 359 901 q 379 893 372 894 q 394 893 386 891 q 406 899 401 894 q 417 909 414 903 q 420 915 419 913 q 422 922 421 918 q 422 937 423 929 q 420 943 421 940 q 416 949 419 946 q 406 960 413 956 q 393 965 399 965 q 379 965 385 967 q 365 959 372 964 q 355 949 359 955 q 352 942 353 945 q 349 935 351 939 q 349 922 348 929 q 352 915 351 918 q 356 908 353 912 m 474 924 l 460 918 l 423 1010 l 433 1014 q 438 1015 435 1015 q 442 1014 442 1015 l 518 965 l 519 965 q 519 963 519 963 q 521 962 521 963 q 522 962 521 962 l 490 1038 l 503 1042 l 540 951 l 531 947 q 525 947 528 947 q 519 947 522 947 l 446 996 q 444 996 444 996 q 443 997 444 997 q 442 999 443 998 q 442 999 442 999 l 442 1001 l 474 924 m 563 1058 l 576 1060 l 638 972 l 630 970 q 627 970 628 969 q 624 970 626 970 q 619 974 621 971 l 610 988 l 560 978 l 557 962 q 553 956 556 958 q 551 954 553 955 q 548 953 549 953 l 540 952 l 563 1058 m 573 1038 l 563 993 l 601 1001 l 576 1038 q 574 1040 574 1039 q 573 1043 574 1042 l 573 1040 l 573 1038 m 638 969 l 635 1069 l 648 1069 l 651 984 l 695 986 l 696 972 l 638 969 m 750 1006 q 750 995 749 1000 q 752 991 751 993 q 754 987 753 988 q 757 983 756 985 q 760 980 759 981 q 766 977 763 978 q 771 975 768 976 q 781 976 778 975 q 786 977 784 976 q 790 980 788 978 q 797 987 794 983 q 800 991 799 989 q 802 997 801 994 l 812 1056 l 826 1054 l 814 994 q 813 989 813 992 q 811 984 813 987 q 809 979 810 981 q 806 975 808 977 q 802 972 804 974 q 798 969 799 970 q 790 965 794 966 q 784 963 787 963 q 779 962 781 963 q 769 963 772 962 q 763 964 765 963 q 758 966 761 965 q 754 968 756 967 q 750 971 752 969 q 742 978 745 974 q 738 988 741 982 q 736 998 736 992 q 737 1008 736 1005 l 747 1067 l 760 1065 l 750 1006 m 878 1018 q 877 1020 878 1019 q 875 1023 876 1022 q 872 1024 874 1024 q 869 1025 871 1024 q 863 1026 867 1026 l 858 1026 q 853 1024 856 1024 q 851 1019 851 1022 q 851 1014 849 1016 q 852 1010 851 1011 q 853 1007 853 1008 q 856 1005 854 1006 q 863 1000 858 1003 q 865 998 864 999 q 867 996 865 997 q 869 994 868 995 q 871 992 869 993 q 873 991 872 992 q 875 989 874 990 q 876 987 876 988 q 878 985 876 986 q 881 962 885 974 q 877 956 879 958 q 874 951 876 953 q 868 947 871 949 q 863 944 866 945 q 851 942 858 942 q 845 942 848 942 q 839 943 842 942 q 820 959 826 949 q 819 961 820 960 q 817 963 818 962 q 817 965 817 964 q 817 967 817 965 q 816 969 816 967 l 816 972 l 820 973 q 825 972 823 973 q 831 967 829 971 l 831 966 q 833 963 833 964 q 835 960 834 962 q 840 958 838 959 q 843 956 841 957 q 846 956 844 956 q 849 956 848 956 q 853 956 851 956 q 857 956 856 956 q 863 960 862 958 q 867 966 867 963 q 867 973 869 970 q 867 976 867 974 q 865 978 866 977 q 863 981 864 980 q 860 984 862 983 q 858 986 859 985 q 853 988 856 987 q 850 992 852 990 q 847 996 848 994 q 843 999 844 997 q 840 1004 842 1001 q 838 1008 839 1006 q 837 1012 837 1010 q 839 1024 835 1017 q 844 1033 840 1029 q 853 1038 849 1038 q 859 1040 856 1040 q 863 1040 861 1040 q 869 1040 866 1040 q 875 1038 872 1039 q 881 1034 878 1038 q 888 1028 885 1031 q 890 1025 889 1026 q 892 1022 892 1024 q 893 1019 893 1020 q 894 1016 894 1017 l 890 1014 q 883 1014 887 1013 q 878 1018 880 1017 m 930 903 l 876 931 l 920 1019 l 974 991 l 969 978 l 927 1001 l 914 975 l 948 958 l 941 945 l 907 963 l 894 938 l 936 915 l 930 903 m 992 922 q 1003 931 997 929 q 1008 935 1005 933 q 1013 938 1010 936 q 1020 939 1017 939 q 1026 940 1023 939 q 1033 940 1030 940 q 1040 939 1036 940 q 1052 935 1046 938 q 1063 927 1057 933 q 1068 923 1065 925 q 1072 917 1071 920 q 1077 906 1076 912 q 1080 893 1080 900 q 1080 886 1080 890 q 1079 880 1080 883 q 1077 873 1078 876 q 1075 867 1076 870 q 1067 857 1072 860 q 1063 851 1065 853 q 1058 847 1060 849 q 1051 844 1054 845 q 1045 842 1049 842 q 1033 840 1039 840 q 1026 840 1029 840 q 1019 840 1023 840 q 1014 842 1017 841 q 1008 844 1011 842 q 1002 848 1004 846 q 996 851 999 849 q 989 859 992 856 q 984 867 986 863 q 981 877 983 872 q 979 886 980 881 q 982 906 979 897 q 992 922 985 916 m 1003 914 q 994 901 997 908 q 993 894 993 898 q 992 888 992 891 q 993 880 992 883 q 996 874 994 877 q 1000 867 999 870 q 1005 862 1002 864 q 1011 858 1008 859 q 1018 854 1015 856 q 1031 853 1026 852 q 1045 857 1040 853 q 1052 860 1049 858 q 1058 865 1055 863 q 1064 878 1063 871 q 1066 892 1067 884 q 1065 899 1066 895 q 1063 906 1065 902 q 1059 911 1061 909 q 1054 917 1057 914 q 1048 921 1051 919 q 1041 924 1044 923 q 1034 926 1038 926 q 1027 926 1031 926 q 1020 925 1024 926 q 1013 922 1017 924 q 1003 914 1007 919 m 1046 804 l 1038 814 l 1117 874 l 1124 865 q 1126 860 1126 862 l 1126 854 l 1097 771 q 1097 770 1097 770 q 1097 769 1097 770 q 1096 769 1097 769 q 1095 768 1095 769 l 1094 767 l 1160 815 l 1169 805 l 1090 746 l 1083 754 q 1080 759 1081 756 q 1081 764 1080 763 l 1109 849 q 1110 849 1109 849 q 1110 850 1110 849 l 1111 851 q 1113 853 1112 852 l 1046 804 m 1094 734 l 1183 779 l 1188 768 l 1113 728 l 1133 691 l 1120 684 l 1094 734 m 1131 656 l 1126 668 l 1165 683 q 1167 684 1167 684 q 1169 685 1169 685 q 1170 687 1169 687 q 1170 688 1170 688 q 1172 690 1172 688 l 1205 740 l 1207 732 q 1209 727 1208 729 q 1209 724 1209 725 q 1208 720 1208 722 q 1206 717 1207 719 l 1185 685 l 1183 683 l 1183 683 l 1184 683 q 1186 683 1184 683 l 1224 672 q 1227 670 1225 671 q 1230 668 1228 669 q 1233 663 1233 667 l 1237 653 l 1180 670 q 1178 671 1178 670 l 1175 671 l 1172 671 q 1169 670 1170 671 l 1131 656 z "},"2":{"ha":1385,"x_min":133,"x_max":1237,"o":"m 927 226 q 815 160 877 185 q 683 135 753 135 q 552 160 613 135 q 442 226 492 185 l 927 226 m 413 254 q 347 365 370 303 q 323 497 323 426 q 344 620 323 563 q 404 726 365 678 l 883 726 l 413 254 m 440 766 q 551 834 490 810 q 683 859 613 859 q 815 834 753 859 q 923 766 876 809 l 440 766 m 1044 497 q 1023 372 1044 430 q 963 265 1001 314 l 482 265 l 952 740 q 1021 623 998 683 q 1044 497 1044 563 m 800 76 q 743 65 772 69 q 683 60 715 60 q 565 76 622 60 q 460 122 508 92 q 372 191 411 151 q 305 280 333 231 q 262 383 277 328 q 247 497 247 438 q 263 615 247 558 q 308 721 278 672 q 377 809 337 769 q 466 876 417 849 q 570 919 515 904 q 683 935 625 935 q 858 899 778 935 q 996 802 938 863 q 1087 662 1054 741 q 1119 497 1119 583 q 1094 350 1119 418 q 1026 228 1069 282 q 925 135 983 174 q 800 76 867 97 m 789 883 q 739 895 765 891 q 683 899 713 899 q 574 884 626 899 q 477 842 522 869 q 397 778 433 815 q 336 696 361 740 q 297 601 310 651 q 283 497 283 550 q 297 392 283 442 q 337 296 311 341 q 399 214 363 251 q 479 150 435 177 q 575 109 524 124 q 683 94 627 94 q 839 125 766 94 q 967 211 913 157 q 1053 339 1022 266 q 1085 497 1085 413 q 1061 634 1085 570 q 997 747 1038 697 q 903 832 957 797 q 789 883 849 867 m 205 221 l 227 183 l 208 172 l 168 238 l 177 243 q 188 246 183 247 l 257 239 l 235 276 l 255 287 l 293 221 l 284 216 q 279 215 280 215 q 274 213 277 213 l 205 221 m 265 100 l 223 151 l 299 215 l 342 163 l 324 149 l 296 181 l 285 172 l 307 147 l 290 131 l 268 157 l 255 147 l 282 115 l 265 100 m 331 140 l 347 157 l 406 106 l 392 90 l 371 108 l 322 49 l 304 64 l 353 122 l 331 140 m 428 94 l 444 83 l 431 -23 l 417 -15 q 414 -12 416 -13 q 412 -9 412 -10 q 410 -5 410 -6 l 410 -1 l 412 11 l 379 31 l 369 24 q 368 23 369 23 q 366 22 367 23 l 362 22 q 359 22 360 22 q 358 22 358 22 q 355 23 356 23 q 353 24 353 23 l 340 31 l 428 94 m 419 60 q 418 59 418 59 q 416 58 415 58 q 415 56 415 56 q 415 56 415 56 l 400 45 l 415 35 l 417 54 q 417 55 417 55 q 418 56 418 56 q 418 58 418 58 q 419 58 419 58 q 419 59 419 59 q 419 60 419 60 m 522 6 l 513 -16 l 480 -3 l 467 -37 l 444 -28 l 481 63 l 542 40 l 535 19 l 494 33 l 489 19 l 522 6 m 529 -9 q 533 4 530 -3 q 541 14 538 8 q 545 19 543 17 q 550 23 548 21 q 556 26 553 25 q 563 28 559 27 q 569 30 565 30 q 576 31 572 31 q 582 31 579 31 q 589 30 585 31 q 595 28 592 28 q 601 26 599 27 q 613 19 608 22 q 617 14 615 16 q 621 9 619 12 q 626 -3 626 3 q 628 -10 628 -7 q 630 -16 629 -12 q 630 -23 630 -19 q 629 -29 630 -26 q 624 -42 628 -36 q 620 -48 622 -45 q 617 -53 619 -50 q 608 -61 614 -58 q 601 -64 604 -62 q 595 -67 599 -65 q 589 -69 592 -68 q 583 -69 586 -69 q 576 -69 579 -69 q 568 -68 573 -69 q 562 -67 565 -67 q 556 -65 560 -66 q 551 -61 553 -63 q 545 -57 548 -60 q 541 -52 542 -55 q 537 -47 539 -49 q 534 -42 535 -44 q 531 -36 532 -39 q 528 -23 529 -28 q 528 -16 528 -19 q 529 -9 528 -12 m 553 -14 q 553 -25 552 -20 q 554 -30 553 -27 q 556 -35 555 -32 q 563 -42 559 -39 q 568 -44 565 -44 q 574 -46 571 -45 q 584 -46 578 -48 q 594 -43 590 -45 q 601 -35 599 -39 q 604 -30 603 -32 q 606 -25 606 -27 q 606 -13 608 -19 q 601 -4 606 -10 q 598 0 600 -1 q 594 4 597 2 q 590 6 592 6 q 584 8 588 7 q 574 8 578 10 q 568 6 571 7 q 563 4 566 6 q 560 1 562 3 q 557 -4 558 -1 q 553 -14 554 -7 m 727 -78 l 706 -79 l 661 -13 l 662 -79 l 638 -80 l 637 19 l 647 19 l 656 19 q 663 19 661 19 q 666 15 665 17 l 701 -34 q 701 -35 701 -35 q 702 -37 701 -36 q 703 -39 702 -38 q 703 -40 703 -39 q 704 -43 703 -42 l 702 20 l 726 20 l 727 -78 m 738 -1 l 734 22 l 812 35 l 816 14 l 789 8 l 803 -66 l 781 -70 l 767 4 l 738 -1 m 856 28 q 851 27 853 28 q 849 26 849 27 q 848 23 848 23 q 849 22 848 22 q 851 19 849 19 q 852 18 851 19 q 853 17 852 17 l 860 17 l 867 17 q 874 17 871 17 q 880 17 876 17 q 884 15 883 15 q 889 13 886 15 q 897 7 894 10 q 902 -3 901 4 q 904 -15 905 -9 q 903 -22 904 -19 q 900 -28 901 -24 q 897 -33 899 -31 q 892 -39 895 -35 q 885 -42 888 -40 q 879 -45 883 -44 q 874 -47 876 -46 q 867 -47 871 -47 q 857 -46 863 -49 q 847 -42 851 -45 q 842 -39 844 -41 q 839 -35 840 -37 l 844 -28 q 847 -26 845 -26 q 849 -24 849 -24 q 856 -23 851 -23 q 859 -23 858 -23 q 861 -24 860 -24 q 864 -24 863 -24 q 866 -25 865 -25 q 871 -24 869 -25 q 874 -23 873 -24 q 876 -22 874 -23 l 879 -19 q 881 -14 881 -17 q 881 -10 881 -14 l 878 -8 q 875 -7 878 -7 q 872 -6 874 -6 q 869 -6 871 -6 l 863 -6 q 858 -6 860 -6 q 852 -5 856 -6 q 842 -3 848 -5 q 837 -1 840 -2 q 833 2 835 1 q 826 13 830 6 q 825 19 825 16 q 825 24 825 22 q 826 30 826 28 q 829 35 827 33 q 832 41 831 39 q 837 44 834 42 q 847 50 842 48 q 851 51 849 51 q 856 52 853 52 q 860 51 858 52 q 865 51 862 51 q 868 50 866 50 q 874 48 870 49 q 877 46 875 47 q 880 44 878 46 l 876 37 q 874 32 875 35 q 870 31 872 31 q 867 31 869 31 q 865 30 867 30 l 861 30 l 858 30 q 856 28 856 30 m 918 -14 q 917 -11 918 -12 q 917 -9 917 -10 q 918 -4 917 -6 q 920 1 918 -3 q 924 4 921 3 q 927 5 926 5 q 930 6 928 5 q 932 5 931 6 q 935 5 933 5 q 939 2 938 3 q 942 -3 941 1 q 945 -8 945 -6 q 944 -12 945 -11 q 942 -15 942 -14 q 941 -17 942 -16 q 939 -19 940 -18 q 937 -21 938 -19 q 932 -22 933 -22 q 927 -22 928 -22 q 921 -19 924 -22 q 918 -14 919 -17 m 954 46 q 962 38 956 42 q 966 35 964 36 q 972 33 969 35 q 982 33 976 32 q 987 35 985 33 q 992 38 989 36 q 995 41 994 39 q 999 44 997 42 l 1003 50 q 1008 58 1004 55 q 1010 59 1009 59 q 1013 60 1012 59 l 1019 60 l 1027 58 q 1026 52 1026 55 q 1024 46 1025 49 q 1019 35 1023 42 q 1013 26 1017 30 q 1005 19 1008 22 q 998 16 1001 17 q 992 13 995 14 q 979 10 986 10 q 973 10 976 10 q 966 11 969 10 q 961 13 964 13 q 954 15 958 13 q 949 18 951 17 q 944 23 946 20 q 939 27 941 25 q 934 32 936 29 q 931 39 933 35 q 928 45 930 42 q 927 51 928 48 q 926 58 927 54 q 926 64 926 61 q 927 70 926 67 q 931 83 928 76 q 934 88 933 85 q 938 94 935 91 q 943 99 940 97 q 949 103 946 101 q 958 108 954 106 q 964 109 961 109 q 969 111 966 110 l 981 111 q 988 110 985 111 q 992 109 990 110 l 992 100 q 990 95 990 97 q 988 93 988 94 q 985 91 987 92 q 976 88 980 88 q 969 87 972 88 q 960 84 965 86 q 953 76 956 81 q 950 67 950 71 q 950 56 949 61 q 954 46 951 49 m 1013 85 q 1009 90 1010 88 q 1005 96 1007 92 q 1002 102 1003 99 q 1001 108 1001 105 q 999 115 999 112 q 999 121 999 117 q 1000 127 999 124 q 1001 134 1000 131 q 1003 140 1001 138 q 1006 147 1004 143 q 1009 151 1008 149 q 1014 156 1011 154 q 1019 161 1017 159 q 1025 165 1022 163 q 1031 168 1028 167 q 1037 169 1033 169 q 1043 171 1040 171 q 1049 171 1046 171 q 1056 171 1053 171 q 1063 169 1059 171 q 1069 168 1066 169 q 1075 165 1072 167 q 1081 161 1078 163 q 1086 156 1083 159 q 1090 151 1088 153 q 1094 145 1092 149 q 1096 140 1095 142 q 1099 133 1097 137 q 1099 127 1099 130 q 1099 120 1099 124 q 1098 108 1099 115 q 1096 102 1097 105 q 1093 96 1094 99 q 1085 85 1090 90 q 1080 80 1082 82 q 1074 77 1077 78 q 1068 74 1071 76 q 1062 72 1065 73 q 1049 70 1056 70 q 1036 72 1042 70 q 1030 74 1033 73 q 1024 77 1027 76 q 1019 81 1022 78 q 1013 85 1016 83 m 1030 101 q 1034 98 1032 99 q 1040 95 1037 97 q 1049 94 1044 94 q 1060 95 1057 94 q 1065 98 1063 96 q 1069 101 1067 99 q 1075 110 1074 106 q 1077 120 1077 115 q 1075 131 1077 125 q 1069 140 1074 135 q 1060 147 1065 144 q 1049 149 1056 149 q 1044 148 1047 149 q 1040 147 1042 148 q 1034 144 1037 146 q 1030 140 1032 143 q 1024 131 1026 138 q 1022 126 1022 129 q 1022 121 1022 124 q 1024 111 1022 114 q 1026 106 1025 108 q 1030 101 1028 103 m 1190 224 l 1178 203 l 1138 229 l 1166 187 l 1156 170 l 1106 179 l 1144 153 l 1131 134 l 1049 188 l 1058 201 q 1064 207 1060 205 q 1068 208 1066 208 q 1072 208 1071 208 l 1131 199 l 1098 247 q 1096 252 1097 250 q 1095 256 1095 253 q 1096 260 1095 258 q 1098 264 1097 262 l 1107 277 l 1190 224 m 231 645 l 226 632 l 133 667 l 146 699 q 151 710 148 706 q 162 717 156 716 q 167 719 165 719 q 173 720 169 720 q 179 720 176 720 q 185 719 182 719 q 195 711 192 716 q 200 707 199 710 q 202 702 201 705 q 204 696 203 699 q 206 691 205 693 q 203 678 206 685 l 197 658 l 231 645 m 191 683 q 191 686 191 685 q 192 690 192 688 q 191 693 192 692 q 190 697 191 694 q 189 699 190 698 q 186 702 188 701 q 181 706 184 704 q 177 706 179 706 q 174 706 175 706 q 170 706 172 706 q 167 705 169 706 q 165 703 166 703 q 162 701 163 703 q 158 695 159 697 l 151 674 l 183 663 l 191 683 m 281 753 l 251 699 l 165 747 l 194 800 l 206 793 l 183 752 l 208 738 l 227 772 l 239 766 l 220 733 l 246 717 l 269 759 l 281 753 m 294 771 l 286 760 l 208 820 l 228 849 q 233 852 231 850 q 238 856 235 854 q 243 858 240 858 q 248 860 245 859 q 253 860 251 860 q 259 859 256 860 q 269 853 265 858 q 273 850 272 852 q 276 847 274 849 q 278 843 277 845 q 280 840 279 841 q 281 834 281 836 q 281 830 281 832 q 279 822 281 826 l 331 820 l 326 813 q 321 808 324 810 q 317 807 319 808 q 315 806 316 806 l 271 808 l 262 796 l 294 771 m 226 823 l 251 804 l 264 822 q 266 824 265 823 q 267 827 266 826 l 267 833 q 267 835 267 834 q 265 839 266 837 q 261 842 263 842 q 256 845 258 845 q 250 846 254 846 q 247 845 249 845 q 244 844 246 845 q 240 840 242 843 l 226 823 m 303 903 q 299 903 300 903 q 296 902 297 903 q 292 899 294 901 q 288 894 290 897 q 286 889 286 892 l 286 884 q 289 880 287 882 q 293 876 291 877 l 297 876 q 303 878 299 876 q 307 880 306 879 q 312 881 309 880 q 314 883 313 882 q 316 883 315 883 q 322 885 317 884 q 326 888 324 885 q 328 888 327 888 q 331 888 329 888 q 353 880 344 890 q 360 869 360 876 q 361 863 361 865 q 362 858 362 861 q 360 851 361 854 q 358 845 360 848 q 355 839 357 842 q 351 835 352 837 q 329 824 342 826 l 325 824 q 321 826 323 826 q 318 826 319 826 q 317 826 317 826 q 316 827 316 826 q 315 827 316 827 l 316 831 q 317 833 317 832 q 318 835 317 834 q 326 839 324 839 l 328 839 q 335 840 331 839 q 342 844 338 841 q 343 847 343 846 q 345 850 344 849 q 347 858 347 853 q 347 864 349 860 q 346 867 347 866 q 344 870 345 869 q 338 874 342 874 q 331 874 334 876 q 325 872 327 874 q 317 868 319 870 q 308 865 315 867 q 302 863 305 863 q 298 863 299 863 q 288 863 291 863 q 283 866 286 865 q 279 870 281 867 q 273 880 274 874 q 272 890 272 886 q 276 900 274 897 q 281 909 277 903 q 289 913 285 913 q 296 916 292 916 q 304 917 303 917 q 311 917 309 917 l 310 913 q 308 906 310 910 q 303 903 306 903 m 344 900 q 341 906 343 903 q 339 913 340 909 q 335 925 335 919 q 335 932 335 928 q 335 938 335 935 q 338 945 337 942 q 340 951 339 948 q 343 956 342 954 q 347 962 345 958 q 358 970 351 966 q 369 976 363 975 q 383 978 376 978 q 396 978 389 981 q 401 977 399 978 q 407 974 403 976 q 413 971 410 973 q 419 967 416 969 q 423 963 422 965 q 428 957 425 960 q 431 951 429 954 q 433 945 433 949 q 436 933 436 939 q 436 919 438 926 q 434 913 435 916 q 432 907 433 910 q 424 896 428 900 q 420 891 422 894 q 415 888 418 889 q 397 880 405 881 q 376 880 386 877 q 367 882 372 881 q 358 886 363 884 q 344 900 350 892 m 356 908 q 366 898 359 901 q 379 893 372 894 q 394 893 386 891 q 406 899 401 894 q 417 909 414 903 q 420 915 419 913 q 422 922 421 918 q 422 937 423 929 q 420 943 421 940 q 416 949 419 946 q 406 960 413 956 q 393 965 399 965 q 379 965 385 967 q 365 959 372 964 q 355 949 359 955 q 352 942 353 945 q 349 935 351 939 q 349 922 348 929 q 352 915 351 918 q 356 908 353 912 m 474 924 l 460 918 l 423 1010 l 433 1014 q 438 1015 435 1015 q 442 1014 442 1015 l 518 965 l 519 965 q 519 963 519 963 q 521 962 521 963 q 522 962 521 962 l 490 1038 l 503 1042 l 540 951 l 531 947 q 525 947 528 947 q 519 947 522 947 l 446 996 q 444 996 444 996 q 443 997 444 997 q 442 999 443 998 q 442 999 442 999 l 442 1001 l 474 924 m 563 1058 l 576 1060 l 638 972 l 630 970 q 627 970 628 969 q 624 970 626 970 q 619 974 621 971 l 610 988 l 560 978 l 557 962 q 553 956 556 958 q 551 954 553 955 q 548 953 549 953 l 540 952 l 563 1058 m 573 1038 l 563 993 l 601 1001 l 576 1038 q 574 1040 574 1039 q 573 1043 574 1042 l 573 1040 l 573 1038 m 638 969 l 635 1069 l 648 1069 l 651 984 l 695 986 l 696 972 l 638 969 m 750 1006 q 750 995 749 1000 q 752 991 751 993 q 754 987 753 988 q 757 983 756 985 q 760 980 759 981 q 766 977 763 978 q 771 975 768 976 q 781 976 778 975 q 786 977 784 976 q 790 980 788 978 q 797 987 794 983 q 800 991 799 989 q 802 997 801 994 l 812 1056 l 826 1054 l 814 994 q 813 989 813 992 q 811 984 813 987 q 809 979 810 981 q 806 975 808 977 q 802 972 804 974 q 798 969 799 970 q 790 965 794 966 q 784 963 787 963 q 779 962 781 963 q 769 963 772 962 q 763 964 765 963 q 758 966 761 965 q 754 968 756 967 q 750 971 752 969 q 742 978 745 974 q 738 988 741 982 q 736 998 736 992 q 737 1008 736 1005 l 747 1067 l 760 1065 l 750 1006 m 878 1018 q 877 1020 878 1019 q 875 1023 876 1022 q 872 1024 874 1024 q 869 1025 871 1024 q 863 1026 867 1026 l 858 1026 q 853 1024 856 1024 q 851 1019 851 1022 q 851 1014 849 1016 q 852 1010 851 1011 q 853 1007 853 1008 q 856 1005 854 1006 q 863 1000 858 1003 q 865 998 864 999 q 867 996 865 997 q 869 994 868 995 q 871 992 869 993 q 873 991 872 992 q 875 989 874 990 q 876 987 876 988 q 878 985 876 986 q 881 962 885 974 q 877 956 879 958 q 874 951 876 953 q 868 947 871 949 q 863 944 866 945 q 851 942 858 942 q 845 942 848 942 q 839 943 842 942 q 820 959 826 949 q 819 961 820 960 q 817 963 818 962 q 817 965 817 964 q 817 967 817 965 q 816 969 816 967 l 816 972 l 820 973 q 825 972 823 973 q 831 967 829 971 l 831 966 q 833 963 833 964 q 835 960 834 962 q 840 958 838 959 q 843 956 841 957 q 846 956 844 956 q 849 956 848 956 q 853 956 851 956 q 857 956 856 956 q 863 960 862 958 q 867 966 867 963 q 867 973 869 970 q 867 976 867 974 q 865 978 866 977 q 863 981 864 980 q 860 984 862 983 q 858 986 859 985 q 853 988 856 987 q 850 992 852 990 q 847 996 848 994 q 843 999 844 997 q 840 1004 842 1001 q 838 1008 839 1006 q 837 1012 837 1010 q 839 1024 835 1017 q 844 1033 840 1029 q 853 1038 849 1038 q 859 1040 856 1040 q 863 1040 861 1040 q 869 1040 866 1040 q 875 1038 872 1039 q 881 1034 878 1038 q 888 1028 885 1031 q 890 1025 889 1026 q 892 1022 892 1024 q 893 1019 893 1020 q 894 1016 894 1017 l 890 1014 q 883 1014 887 1013 q 878 1018 880 1017 m 930 903 l 876 931 l 920 1019 l 974 991 l 969 978 l 927 1001 l 914 975 l 948 958 l 941 945 l 907 963 l 894 938 l 936 915 l 930 903 m 992 922 q 1003 931 997 929 q 1008 935 1005 933 q 1013 938 1010 936 q 1020 939 1017 939 q 1026 940 1023 939 q 1033 940 1030 940 q 1040 939 1036 940 q 1052 935 1046 938 q 1063 927 1057 933 q 1068 923 1065 925 q 1072 917 1071 920 q 1077 906 1076 912 q 1080 893 1080 900 q 1080 886 1080 890 q 1079 880 1080 883 q 1077 873 1078 876 q 1075 867 1076 870 q 1067 857 1072 860 q 1063 851 1065 853 q 1058 847 1060 849 q 1051 844 1054 845 q 1045 842 1049 842 q 1033 840 1039 840 q 1026 840 1029 840 q 1019 840 1023 840 q 1014 842 1017 841 q 1008 844 1011 842 q 1002 848 1004 846 q 996 851 999 849 q 989 859 992 856 q 984 867 986 863 q 981 877 983 872 q 979 886 980 881 q 982 906 979 897 q 992 922 985 916 m 1003 914 q 994 901 997 908 q 993 894 993 898 q 992 888 992 891 q 993 880 992 883 q 996 874 994 877 q 1000 867 999 870 q 1005 862 1002 864 q 1011 858 1008 859 q 1018 854 1015 856 q 1031 853 1026 852 q 1045 857 1040 853 q 1052 860 1049 858 q 1058 865 1055 863 q 1064 878 1063 871 q 1066 892 1067 884 q 1065 899 1066 895 q 1063 906 1065 902 q 1059 911 1061 909 q 1054 917 1057 914 q 1048 921 1051 919 q 1041 924 1044 923 q 1034 926 1038 926 q 1027 926 1031 926 q 1020 925 1024 926 q 1013 922 1017 924 q 1003 914 1007 919 m 1046 804 l 1038 814 l 1117 874 l 1124 865 q 1126 860 1126 862 l 1126 854 l 1097 771 q 1097 770 1097 770 q 1097 769 1097 770 q 1096 769 1097 769 q 1095 768 1095 769 l 1094 767 l 1160 815 l 1169 805 l 1090 746 l 1083 754 q 1080 759 1081 756 q 1081 764 1080 763 l 1109 849 q 1110 849 1109 849 q 1110 850 1110 849 l 1111 851 q 1113 853 1112 852 l 1046 804 m 1094 734 l 1183 779 l 1188 768 l 1113 728 l 1133 691 l 1120 684 l 1094 734 m 1131 656 l 1126 668 l 1165 683 q 1167 684 1167 684 q 1169 685 1169 685 q 1170 687 1169 687 q 1170 688 1170 688 q 1172 690 1172 688 l 1205 740 l 1207 732 q 1209 727 1208 729 q 1209 724 1209 725 q 1208 720 1208 722 q 1206 717 1207 719 l 1185 685 l 1183 683 l 1183 683 l 1184 683 q 1186 683 1184 683 l 1224 672 q 1227 670 1225 671 q 1230 668 1228 669 q 1233 663 1233 667 l 1237 653 l 1180 670 q 1178 671 1178 670 l 1175 671 l 1172 671 q 1169 670 1170 671 l 1131 656 z "},"3":{"ha":1385,"x_min":133,"x_max":1237,"o":"m 927 226 q 815 160 877 185 q 683 135 753 135 q 552 160 613 135 q 442 226 492 185 l 927 226 m 413 254 q 347 365 370 303 q 323 497 323 426 q 344 620 323 563 q 404 726 365 678 l 883 726 l 413 254 m 440 766 q 551 834 490 810 q 683 859 613 859 q 815 834 753 859 q 923 766 876 809 l 440 766 m 1044 497 q 1023 372 1044 430 q 963 265 1001 314 l 482 265 l 952 740 q 1021 623 998 683 q 1044 497 1044 563 m 800 76 q 743 65 772 69 q 683 60 715 60 q 565 76 622 60 q 460 122 508 92 q 372 191 411 151 q 305 280 333 231 q 262 383 277 328 q 247 497 247 438 q 263 615 247 558 q 308 721 278 672 q 377 809 337 769 q 466 876 417 849 q 570 919 515 904 q 683 935 625 935 q 858 899 778 935 q 996 802 938 863 q 1087 662 1054 741 q 1119 497 1119 583 q 1094 350 1119 418 q 1026 228 1069 282 q 925 135 983 174 q 800 76 867 97 m 789 883 q 739 895 765 891 q 683 899 713 899 q 574 884 626 899 q 477 842 522 869 q 397 778 433 815 q 336 696 361 740 q 297 601 310 651 q 283 497 283 550 q 297 392 283 442 q 337 296 311 341 q 399 214 363 251 q 479 150 435 177 q 575 109 524 124 q 683 94 627 94 q 839 125 766 94 q 967 211 913 157 q 1053 339 1022 266 q 1085 497 1085 413 q 1061 634 1085 570 q 997 747 1038 697 q 903 832 957 797 q 789 883 849 867 m 205 221 l 227 183 l 208 172 l 168 238 l 177 243 q 188 246 183 247 l 257 239 l 235 276 l 255 287 l 293 221 l 284 216 q 279 215 280 215 q 274 213 277 213 l 205 221 m 265 100 l 223 151 l 299 215 l 342 163 l 324 149 l 296 181 l 285 172 l 307 147 l 290 131 l 268 157 l 255 147 l 282 115 l 265 100 m 331 140 l 347 157 l 406 106 l 392 90 l 371 108 l 322 49 l 304 64 l 353 122 l 331 140 m 428 94 l 444 83 l 431 -23 l 417 -15 q 414 -12 416 -13 q 412 -9 412 -10 q 410 -5 410 -6 l 410 -1 l 412 11 l 379 31 l 369 24 q 368 23 369 23 q 366 22 367 23 l 362 22 q 359 22 360 22 q 358 22 358 22 q 355 23 356 23 q 353 24 353 23 l 340 31 l 428 94 m 419 60 q 418 59 418 59 q 416 58 415 58 q 415 56 415 56 q 415 56 415 56 l 400 45 l 415 35 l 417 54 q 417 55 417 55 q 418 56 418 56 q 418 58 418 58 q 419 58 419 58 q 419 59 419 59 q 419 60 419 60 m 522 6 l 513 -16 l 480 -3 l 467 -37 l 444 -28 l 481 63 l 542 40 l 535 19 l 494 33 l 489 19 l 522 6 m 529 -9 q 533 4 530 -3 q 541 14 538 8 q 545 19 543 17 q 550 23 548 21 q 556 26 553 25 q 563 28 559 27 q 569 30 565 30 q 576 31 572 31 q 582 31 579 31 q 589 30 585 31 q 595 28 592 28 q 601 26 599 27 q 613 19 608 22 q 617 14 615 16 q 621 9 619 12 q 626 -3 626 3 q 628 -10 628 -7 q 630 -16 629 -12 q 630 -23 630 -19 q 629 -29 630 -26 q 624 -42 628 -36 q 620 -48 622 -45 q 617 -53 619 -50 q 608 -61 614 -58 q 601 -64 604 -62 q 595 -67 599 -65 q 589 -69 592 -68 q 583 -69 586 -69 q 576 -69 579 -69 q 568 -68 573 -69 q 562 -67 565 -67 q 556 -65 560 -66 q 551 -61 553 -63 q 545 -57 548 -60 q 541 -52 542 -55 q 537 -47 539 -49 q 534 -42 535 -44 q 531 -36 532 -39 q 528 -23 529 -28 q 528 -16 528 -19 q 529 -9 528 -12 m 553 -14 q 553 -25 552 -20 q 554 -30 553 -27 q 556 -35 555 -32 q 563 -42 559 -39 q 568 -44 565 -44 q 574 -46 571 -45 q 584 -46 578 -48 q 594 -43 590 -45 q 601 -35 599 -39 q 604 -30 603 -32 q 606 -25 606 -27 q 606 -13 608 -19 q 601 -4 606 -10 q 598 0 600 -1 q 594 4 597 2 q 590 6 592 6 q 584 8 588 7 q 574 8 578 10 q 568 6 571 7 q 563 4 566 6 q 560 1 562 3 q 557 -4 558 -1 q 553 -14 554 -7 m 727 -78 l 706 -79 l 661 -13 l 662 -79 l 638 -80 l 637 19 l 647 19 l 656 19 q 663 19 661 19 q 666 15 665 17 l 701 -34 q 701 -35 701 -35 q 702 -37 701 -36 q 703 -39 702 -38 q 703 -40 703 -39 q 704 -43 703 -42 l 702 20 l 726 20 l 727 -78 m 738 -1 l 734 22 l 812 35 l 816 14 l 789 8 l 803 -66 l 781 -70 l 767 4 l 738 -1 m 856 28 q 851 27 853 28 q 849 26 849 27 q 848 23 848 23 q 849 22 848 22 q 851 19 849 19 q 852 18 851 19 q 853 17 852 17 l 860 17 l 867 17 q 874 17 871 17 q 880 17 876 17 q 884 15 883 15 q 889 13 886 15 q 897 7 894 10 q 902 -3 901 4 q 904 -15 905 -9 q 903 -22 904 -19 q 900 -28 901 -24 q 897 -33 899 -31 q 892 -39 895 -35 q 885 -42 888 -40 q 879 -45 883 -44 q 874 -47 876 -46 q 867 -47 871 -47 q 857 -46 863 -49 q 847 -42 851 -45 q 842 -39 844 -41 q 839 -35 840 -37 l 844 -28 q 847 -26 845 -26 q 849 -24 849 -24 q 856 -23 851 -23 q 859 -23 858 -23 q 861 -24 860 -24 q 864 -24 863 -24 q 866 -25 865 -25 q 871 -24 869 -25 q 874 -23 873 -24 q 876 -22 874 -23 l 879 -19 q 881 -14 881 -17 q 881 -10 881 -14 l 878 -8 q 875 -7 878 -7 q 872 -6 874 -6 q 869 -6 871 -6 l 863 -6 q 858 -6 860 -6 q 852 -5 856 -6 q 842 -3 848 -5 q 837 -1 840 -2 q 833 2 835 1 q 826 13 830 6 q 825 19 825 16 q 825 24 825 22 q 826 30 826 28 q 829 35 827 33 q 832 41 831 39 q 837 44 834 42 q 847 50 842 48 q 851 51 849 51 q 856 52 853 52 q 860 51 858 52 q 865 51 862 51 q 868 50 866 50 q 874 48 870 49 q 877 46 875 47 q 880 44 878 46 l 876 37 q 874 32 875 35 q 870 31 872 31 q 867 31 869 31 q 865 30 867 30 l 861 30 l 858 30 q 856 28 856 30 m 918 -14 q 917 -11 918 -12 q 917 -9 917 -10 q 918 -4 917 -6 q 920 1 918 -3 q 924 4 921 3 q 927 5 926 5 q 930 6 928 5 q 932 5 931 6 q 935 5 933 5 q 939 2 938 3 q 942 -3 941 1 q 945 -8 945 -6 q 944 -12 945 -11 q 942 -15 942 -14 q 941 -17 942 -16 q 939 -19 940 -18 q 937 -21 938 -19 q 932 -22 933 -22 q 927 -22 928 -22 q 921 -19 924 -22 q 918 -14 919 -17 m 954 46 q 962 38 956 42 q 966 35 964 36 q 972 33 969 35 q 982 33 976 32 q 987 35 985 33 q 992 38 989 36 q 995 41 994 39 q 999 44 997 42 l 1003 50 q 1008 58 1004 55 q 1010 59 1009 59 q 1013 60 1012 59 l 1019 60 l 1027 58 q 1026 52 1026 55 q 1024 46 1025 49 q 1019 35 1023 42 q 1013 26 1017 30 q 1005 19 1008 22 q 998 16 1001 17 q 992 13 995 14 q 979 10 986 10 q 973 10 976 10 q 966 11 969 10 q 961 13 964 13 q 954 15 958 13 q 949 18 951 17 q 944 23 946 20 q 939 27 941 25 q 934 32 936 29 q 931 39 933 35 q 928 45 930 42 q 927 51 928 48 q 926 58 927 54 q 926 64 926 61 q 927 70 926 67 q 931 83 928 76 q 934 88 933 85 q 938 94 935 91 q 943 99 940 97 q 949 103 946 101 q 958 108 954 106 q 964 109 961 109 q 969 111 966 110 l 981 111 q 988 110 985 111 q 992 109 990 110 l 992 100 q 990 95 990 97 q 988 93 988 94 q 985 91 987 92 q 976 88 980 88 q 969 87 972 88 q 960 84 965 86 q 953 76 956 81 q 950 67 950 71 q 950 56 949 61 q 954 46 951 49 m 1013 85 q 1009 90 1010 88 q 1005 96 1007 92 q 1002 102 1003 99 q 1001 108 1001 105 q 999 115 999 112 q 999 121 999 117 q 1000 127 999 124 q 1001 134 1000 131 q 1003 140 1001 138 q 1006 147 1004 143 q 1009 151 1008 149 q 1014 156 1011 154 q 1019 161 1017 159 q 1025 165 1022 163 q 1031 168 1028 167 q 1037 169 1033 169 q 1043 171 1040 171 q 1049 171 1046 171 q 1056 171 1053 171 q 1063 169 1059 171 q 1069 168 1066 169 q 1075 165 1072 167 q 1081 161 1078 163 q 1086 156 1083 159 q 1090 151 1088 153 q 1094 145 1092 149 q 1096 140 1095 142 q 1099 133 1097 137 q 1099 127 1099 130 q 1099 120 1099 124 q 1098 108 1099 115 q 1096 102 1097 105 q 1093 96 1094 99 q 1085 85 1090 90 q 1080 80 1082 82 q 1074 77 1077 78 q 1068 74 1071 76 q 1062 72 1065 73 q 1049 70 1056 70 q 1036 72 1042 70 q 1030 74 1033 73 q 1024 77 1027 76 q 1019 81 1022 78 q 1013 85 1016 83 m 1030 101 q 1034 98 1032 99 q 1040 95 1037 97 q 1049 94 1044 94 q 1060 95 1057 94 q 1065 98 1063 96 q 1069 101 1067 99 q 1075 110 1074 106 q 1077 120 1077 115 q 1075 131 1077 125 q 1069 140 1074 135 q 1060 147 1065 144 q 1049 149 1056 149 q 1044 148 1047 149 q 1040 147 1042 148 q 1034 144 1037 146 q 1030 140 1032 143 q 1024 131 1026 138 q 1022 126 1022 129 q 1022 121 1022 124 q 1024 111 1022 114 q 1026 106 1025 108 q 1030 101 1028 103 m 1190 224 l 1178 203 l 1138 229 l 1166 187 l 1156 170 l 1106 179 l 1144 153 l 1131 134 l 1049 188 l 1058 201 q 1064 207 1060 205 q 1068 208 1066 208 q 1072 208 1071 208 l 1131 199 l 1098 247 q 1096 252 1097 250 q 1095 256 1095 253 q 1096 260 1095 258 q 1098 264 1097 262 l 1107 277 l 1190 224 m 231 645 l 226 632 l 133 667 l 146 699 q 151 710 148 706 q 162 717 156 716 q 167 719 165 719 q 173 720 169 720 q 179 720 176 720 q 185 719 182 719 q 195 711 192 716 q 200 707 199 710 q 202 702 201 705 q 204 696 203 699 q 206 691 205 693 q 203 678 206 685 l 197 658 l 231 645 m 191 683 q 191 686 191 685 q 192 690 192 688 q 191 693 192 692 q 190 697 191 694 q 189 699 190 698 q 186 702 188 701 q 181 706 184 704 q 177 706 179 706 q 174 706 175 706 q 170 706 172 706 q 167 705 169 706 q 165 703 166 703 q 162 701 163 703 q 158 695 159 697 l 151 674 l 183 663 l 191 683 m 281 753 l 251 699 l 165 747 l 194 800 l 206 793 l 183 752 l 208 738 l 227 772 l 239 766 l 220 733 l 246 717 l 269 759 l 281 753 m 294 771 l 286 760 l 208 820 l 228 849 q 233 852 231 850 q 238 856 235 854 q 243 858 240 858 q 248 860 245 859 q 253 860 251 860 q 259 859 256 860 q 269 853 265 858 q 273 850 272 852 q 276 847 274 849 q 278 843 277 845 q 280 840 279 841 q 281 834 281 836 q 281 830 281 832 q 279 822 281 826 l 331 820 l 326 813 q 321 808 324 810 q 317 807 319 808 q 315 806 316 806 l 271 808 l 262 796 l 294 771 m 226 823 l 251 804 l 264 822 q 266 824 265 823 q 267 827 266 826 l 267 833 q 267 835 267 834 q 265 839 266 837 q 261 842 263 842 q 256 845 258 845 q 250 846 254 846 q 247 845 249 845 q 244 844 246 845 q 240 840 242 843 l 226 823 m 303 903 q 299 903 300 903 q 296 902 297 903 q 292 899 294 901 q 288 894 290 897 q 286 889 286 892 l 286 884 q 289 880 287 882 q 293 876 291 877 l 297 876 q 303 878 299 876 q 307 880 306 879 q 312 881 309 880 q 314 883 313 882 q 316 883 315 883 q 322 885 317 884 q 326 888 324 885 q 328 888 327 888 q 331 888 329 888 q 353 880 344 890 q 360 869 360 876 q 361 863 361 865 q 362 858 362 861 q 360 851 361 854 q 358 845 360 848 q 355 839 357 842 q 351 835 352 837 q 329 824 342 826 l 325 824 q 321 826 323 826 q 318 826 319 826 q 317 826 317 826 q 316 827 316 826 q 315 827 316 827 l 316 831 q 317 833 317 832 q 318 835 317 834 q 326 839 324 839 l 328 839 q 335 840 331 839 q 342 844 338 841 q 343 847 343 846 q 345 850 344 849 q 347 858 347 853 q 347 864 349 860 q 346 867 347 866 q 344 870 345 869 q 338 874 342 874 q 331 874 334 876 q 325 872 327 874 q 317 868 319 870 q 308 865 315 867 q 302 863 305 863 q 298 863 299 863 q 288 863 291 863 q 283 866 286 865 q 279 870 281 867 q 273 880 274 874 q 272 890 272 886 q 276 900 274 897 q 281 909 277 903 q 289 913 285 913 q 296 916 292 916 q 304 917 303 917 q 311 917 309 917 l 310 913 q 308 906 310 910 q 303 903 306 903 m 344 900 q 341 906 343 903 q 339 913 340 909 q 335 925 335 919 q 335 932 335 928 q 335 938 335 935 q 338 945 337 942 q 340 951 339 948 q 343 956 342 954 q 347 962 345 958 q 358 970 351 966 q 369 976 363 975 q 383 978 376 978 q 396 978 389 981 q 401 977 399 978 q 407 974 403 976 q 413 971 410 973 q 419 967 416 969 q 423 963 422 965 q 428 957 425 960 q 431 951 429 954 q 433 945 433 949 q 436 933 436 939 q 436 919 438 926 q 434 913 435 916 q 432 907 433 910 q 424 896 428 900 q 420 891 422 894 q 415 888 418 889 q 397 880 405 881 q 376 880 386 877 q 367 882 372 881 q 358 886 363 884 q 344 900 350 892 m 356 908 q 366 898 359 901 q 379 893 372 894 q 394 893 386 891 q 406 899 401 894 q 417 909 414 903 q 420 915 419 913 q 422 922 421 918 q 422 937 423 929 q 420 943 421 940 q 416 949 419 946 q 406 960 413 956 q 393 965 399 965 q 379 965 385 967 q 365 959 372 964 q 355 949 359 955 q 352 942 353 945 q 349 935 351 939 q 349 922 348 929 q 352 915 351 918 q 356 908 353 912 m 474 924 l 460 918 l 423 1010 l 433 1014 q 438 1015 435 1015 q 442 1014 442 1015 l 518 965 l 519 965 q 519 963 519 963 q 521 962 521 963 q 522 962 521 962 l 490 1038 l 503 1042 l 540 951 l 531 947 q 525 947 528 947 q 519 947 522 947 l 446 996 q 444 996 444 996 q 443 997 444 997 q 442 999 443 998 q 442 999 442 999 l 442 1001 l 474 924 m 563 1058 l 576 1060 l 638 972 l 630 970 q 627 970 628 969 q 624 970 626 970 q 619 974 621 971 l 610 988 l 560 978 l 557 962 q 553 956 556 958 q 551 954 553 955 q 548 953 549 953 l 540 952 l 563 1058 m 573 1038 l 563 993 l 601 1001 l 576 1038 q 574 1040 574 1039 q 573 1043 574 1042 l 573 1040 l 573 1038 m 638 969 l 635 1069 l 648 1069 l 651 984 l 695 986 l 696 972 l 638 969 m 750 1006 q 750 995 749 1000 q 752 991 751 993 q 754 987 753 988 q 757 983 756 985 q 760 980 759 981 q 766 977 763 978 q 771 975 768 976 q 781 976 778 975 q 786 977 784 976 q 790 980 788 978 q 797 987 794 983 q 800 991 799 989 q 802 997 801 994 l 812 1056 l 826 1054 l 814 994 q 813 989 813 992 q 811 984 813 987 q 809 979 810 981 q 806 975 808 977 q 802 972 804 974 q 798 969 799 970 q 790 965 794 966 q 784 963 787 963 q 779 962 781 963 q 769 963 772 962 q 763 964 765 963 q 758 966 761 965 q 754 968 756 967 q 750 971 752 969 q 742 978 745 974 q 738 988 741 982 q 736 998 736 992 q 737 1008 736 1005 l 747 1067 l 760 1065 l 750 1006 m 878 1018 q 877 1020 878 1019 q 875 1023 876 1022 q 872 1024 874 1024 q 869 1025 871 1024 q 863 1026 867 1026 l 858 1026 q 853 1024 856 1024 q 851 1019 851 1022 q 851 1014 849 1016 q 852 1010 851 1011 q 853 1007 853 1008 q 856 1005 854 1006 q 863 1000 858 1003 q 865 998 864 999 q 867 996 865 997 q 869 994 868 995 q 871 992 869 993 q 873 991 872 992 q 875 989 874 990 q 876 987 876 988 q 878 985 876 986 q 881 962 885 974 q 877 956 879 958 q 874 951 876 953 q 868 947 871 949 q 863 944 866 945 q 851 942 858 942 q 845 942 848 942 q 839 943 842 942 q 820 959 826 949 q 819 961 820 960 q 817 963 818 962 q 817 965 817 964 q 817 967 817 965 q 816 969 816 967 l 816 972 l 820 973 q 825 972 823 973 q 831 967 829 971 l 831 966 q 833 963 833 964 q 835 960 834 962 q 840 958 838 959 q 843 956 841 957 q 846 956 844 956 q 849 956 848 956 q 853 956 851 956 q 857 956 856 956 q 863 960 862 958 q 867 966 867 963 q 867 973 869 970 q 867 976 867 974 q 865 978 866 977 q 863 981 864 980 q 860 984 862 983 q 858 986 859 985 q 853 988 856 987 q 850 992 852 990 q 847 996 848 994 q 843 999 844 997 q 840 1004 842 1001 q 838 1008 839 1006 q 837 1012 837 1010 q 839 1024 835 1017 q 844 1033 840 1029 q 853 1038 849 1038 q 859 1040 856 1040 q 863 1040 861 1040 q 869 1040 866 1040 q 875 1038 872 1039 q 881 1034 878 1038 q 888 1028 885 1031 q 890 1025 889 1026 q 892 1022 892 1024 q 893 1019 893 1020 q 894 1016 894 1017 l 890 1014 q 883 1014 887 1013 q 878 1018 880 1017 m 930 903 l 876 931 l 920 1019 l 974 991 l 969 978 l 927 1001 l 914 975 l 948 958 l 941 945 l 907 963 l 894 938 l 936 915 l 930 903 m 992 922 q 1003 931 997 929 q 1008 935 1005 933 q 1013 938 1010 936 q 1020 939 1017 939 q 1026 940 1023 939 q 1033 940 1030 940 q 1040 939 1036 940 q 1052 935 1046 938 q 1063 927 1057 933 q 1068 923 1065 925 q 1072 917 1071 920 q 1077 906 1076 912 q 1080 893 1080 900 q 1080 886 1080 890 q 1079 880 1080 883 q 1077 873 1078 876 q 1075 867 1076 870 q 1067 857 1072 860 q 1063 851 1065 853 q 1058 847 1060 849 q 1051 844 1054 845 q 1045 842 1049 842 q 1033 840 1039 840 q 1026 840 1029 840 q 1019 840 1023 840 q 1014 842 1017 841 q 1008 844 1011 842 q 1002 848 1004 846 q 996 851 999 849 q 989 859 992 856 q 984 867 986 863 q 981 877 983 872 q 979 886 980 881 q 982 906 979 897 q 992 922 985 916 m 1003 914 q 994 901 997 908 q 993 894 993 898 q 992 888 992 891 q 993 880 992 883 q 996 874 994 877 q 1000 867 999 870 q 1005 862 1002 864 q 1011 858 1008 859 q 1018 854 1015 856 q 1031 853 1026 852 q 1045 857 1040 853 q 1052 860 1049 858 q 1058 865 1055 863 q 1064 878 1063 871 q 1066 892 1067 884 q 1065 899 1066 895 q 1063 906 1065 902 q 1059 911 1061 909 q 1054 917 1057 914 q 1048 921 1051 919 q 1041 924 1044 923 q 1034 926 1038 926 q 1027 926 1031 926 q 1020 925 1024 926 q 1013 922 1017 924 q 1003 914 1007 919 m 1046 804 l 1038 814 l 1117 874 l 1124 865 q 1126 860 1126 862 l 1126 854 l 1097 771 q 1097 770 1097 770 q 1097 769 1097 770 q 1096 769 1097 769 q 1095 768 1095 769 l 1094 767 l 1160 815 l 1169 805 l 1090 746 l 1083 754 q 1080 759 1081 756 q 1081 764 1080 763 l 1109 849 q 1110 849 1109 849 q 1110 850 1110 849 l 1111 851 q 1113 853 1112 852 l 1046 804 m 1094 734 l 1183 779 l 1188 768 l 1113 728 l 1133 691 l 1120 684 l 1094 734 m 1131 656 l 1126 668 l 1165 683 q 1167 684 1167 684 q 1169 685 1169 685 q 1170 687 1169 687 q 1170 688 1170 688 q 1172 690 1172 688 l 1205 740 l 1207 732 q 1209 727 1208 729 q 1209 724 1209 725 q 1208 720 1208 722 q 1206 717 1207 719 l 1185 685 l 1183 683 l 1183 683 l 1184 683 q 1186 683 1184 683 l 1224 672 q 1227 670 1225 671 q 1230 668 1228 669 q 1233 663 1233 667 l 1237 653 l 1180 670 q 1178 671 1178 670 l 1175 671 l 1172 671 q 1169 670 1170 671 l 1131 656 z "},"4":{"ha":1385,"x_min":133,"x_max":1237,"o":"m 927 226 q 815 160 877 185 q 683 135 753 135 q 552 160 613 135 q 442 226 492 185 l 927 226 m 413 254 q 347 365 370 303 q 323 497 323 426 q 344 620 323 563 q 404 726 365 678 l 883 726 l 413 254 m 440 766 q 551 834 490 810 q 683 859 613 859 q 815 834 753 859 q 923 766 876 809 l 440 766 m 1044 497 q 1023 372 1044 430 q 963 265 1001 314 l 482 265 l 952 740 q 1021 623 998 683 q 1044 497 1044 563 m 800 76 q 743 65 772 69 q 683 60 715 60 q 565 76 622 60 q 460 122 508 92 q 372 191 411 151 q 305 280 333 231 q 262 383 277 328 q 247 497 247 438 q 263 615 247 558 q 308 721 278 672 q 377 809 337 769 q 466 876 417 849 q 570 919 515 904 q 683 935 625 935 q 858 899 778 935 q 996 802 938 863 q 1087 662 1054 741 q 1119 497 1119 583 q 1094 350 1119 418 q 1026 228 1069 282 q 925 135 983 174 q 800 76 867 97 m 789 883 q 739 895 765 891 q 683 899 713 899 q 574 884 626 899 q 477 842 522 869 q 397 778 433 815 q 336 696 361 740 q 297 601 310 651 q 283 497 283 550 q 297 392 283 442 q 337 296 311 341 q 399 214 363 251 q 479 150 435 177 q 575 109 524 124 q 683 94 627 94 q 839 125 766 94 q 967 211 913 157 q 1053 339 1022 266 q 1085 497 1085 413 q 1061 634 1085 570 q 997 747 1038 697 q 903 832 957 797 q 789 883 849 867 m 205 221 l 227 183 l 208 172 l 168 238 l 177 243 q 188 246 183 247 l 257 239 l 235 276 l 255 287 l 293 221 l 284 216 q 279 215 280 215 q 274 213 277 213 l 205 221 m 265 100 l 223 151 l 299 215 l 342 163 l 324 149 l 296 181 l 285 172 l 307 147 l 290 131 l 268 157 l 255 147 l 282 115 l 265 100 m 331 140 l 347 157 l 406 106 l 392 90 l 371 108 l 322 49 l 304 64 l 353 122 l 331 140 m 428 94 l 444 83 l 431 -23 l 417 -15 q 414 -12 416 -13 q 412 -9 412 -10 q 410 -5 410 -6 l 410 -1 l 412 11 l 379 31 l 369 24 q 368 23 369 23 q 366 22 367 23 l 362 22 q 359 22 360 22 q 358 22 358 22 q 355 23 356 23 q 353 24 353 23 l 340 31 l 428 94 m 419 60 q 418 59 418 59 q 416 58 415 58 q 415 56 415 56 q 415 56 415 56 l 400 45 l 415 35 l 417 54 q 417 55 417 55 q 418 56 418 56 q 418 58 418 58 q 419 58 419 58 q 419 59 419 59 q 419 60 419 60 m 522 6 l 513 -16 l 480 -3 l 467 -37 l 444 -28 l 481 63 l 542 40 l 535 19 l 494 33 l 489 19 l 522 6 m 529 -9 q 533 4 530 -3 q 541 14 538 8 q 545 19 543 17 q 550 23 548 21 q 556 26 553 25 q 563 28 559 27 q 569 30 565 30 q 576 31 572 31 q 582 31 579 31 q 589 30 585 31 q 595 28 592 28 q 601 26 599 27 q 613 19 608 22 q 617 14 615 16 q 621 9 619 12 q 626 -3 626 3 q 628 -10 628 -7 q 630 -16 629 -12 q 630 -23 630 -19 q 629 -29 630 -26 q 624 -42 628 -36 q 620 -48 622 -45 q 617 -53 619 -50 q 608 -61 614 -58 q 601 -64 604 -62 q 595 -67 599 -65 q 589 -69 592 -68 q 583 -69 586 -69 q 576 -69 579 -69 q 568 -68 573 -69 q 562 -67 565 -67 q 556 -65 560 -66 q 551 -61 553 -63 q 545 -57 548 -60 q 541 -52 542 -55 q 537 -47 539 -49 q 534 -42 535 -44 q 531 -36 532 -39 q 528 -23 529 -28 q 528 -16 528 -19 q 529 -9 528 -12 m 553 -14 q 553 -25 552 -20 q 554 -30 553 -27 q 556 -35 555 -32 q 563 -42 559 -39 q 568 -44 565 -44 q 574 -46 571 -45 q 584 -46 578 -48 q 594 -43 590 -45 q 601 -35 599 -39 q 604 -30 603 -32 q 606 -25 606 -27 q 606 -13 608 -19 q 601 -4 606 -10 q 598 0 600 -1 q 594 4 597 2 q 590 6 592 6 q 584 8 588 7 q 574 8 578 10 q 568 6 571 7 q 563 4 566 6 q 560 1 562 3 q 557 -4 558 -1 q 553 -14 554 -7 m 727 -78 l 706 -79 l 661 -13 l 662 -79 l 638 -80 l 637 19 l 647 19 l 656 19 q 663 19 661 19 q 666 15 665 17 l 701 -34 q 701 -35 701 -35 q 702 -37 701 -36 q 703 -39 702 -38 q 703 -40 703 -39 q 704 -43 703 -42 l 702 20 l 726 20 l 727 -78 m 738 -1 l 734 22 l 812 35 l 816 14 l 789 8 l 803 -66 l 781 -70 l 767 4 l 738 -1 m 856 28 q 851 27 853 28 q 849 26 849 27 q 848 23 848 23 q 849 22 848 22 q 851 19 849 19 q 852 18 851 19 q 853 17 852 17 l 860 17 l 867 17 q 874 17 871 17 q 880 17 876 17 q 884 15 883 15 q 889 13 886 15 q 897 7 894 10 q 902 -3 901 4 q 904 -15 905 -9 q 903 -22 904 -19 q 900 -28 901 -24 q 897 -33 899 -31 q 892 -39 895 -35 q 885 -42 888 -40 q 879 -45 883 -44 q 874 -47 876 -46 q 867 -47 871 -47 q 857 -46 863 -49 q 847 -42 851 -45 q 842 -39 844 -41 q 839 -35 840 -37 l 844 -28 q 847 -26 845 -26 q 849 -24 849 -24 q 856 -23 851 -23 q 859 -23 858 -23 q 861 -24 860 -24 q 864 -24 863 -24 q 866 -25 865 -25 q 871 -24 869 -25 q 874 -23 873 -24 q 876 -22 874 -23 l 879 -19 q 881 -14 881 -17 q 881 -10 881 -14 l 878 -8 q 875 -7 878 -7 q 872 -6 874 -6 q 869 -6 871 -6 l 863 -6 q 858 -6 860 -6 q 852 -5 856 -6 q 842 -3 848 -5 q 837 -1 840 -2 q 833 2 835 1 q 826 13 830 6 q 825 19 825 16 q 825 24 825 22 q 826 30 826 28 q 829 35 827 33 q 832 41 831 39 q 837 44 834 42 q 847 50 842 48 q 851 51 849 51 q 856 52 853 52 q 860 51 858 52 q 865 51 862 51 q 868 50 866 50 q 874 48 870 49 q 877 46 875 47 q 880 44 878 46 l 876 37 q 874 32 875 35 q 870 31 872 31 q 867 31 869 31 q 865 30 867 30 l 861 30 l 858 30 q 856 28 856 30 m 918 -14 q 917 -11 918 -12 q 917 -9 917 -10 q 918 -4 917 -6 q 920 1 918 -3 q 924 4 921 3 q 927 5 926 5 q 930 6 928 5 q 932 5 931 6 q 935 5 933 5 q 939 2 938 3 q 942 -3 941 1 q 945 -8 945 -6 q 944 -12 945 -11 q 942 -15 942 -14 q 941 -17 942 -16 q 939 -19 940 -18 q 937 -21 938 -19 q 932 -22 933 -22 q 927 -22 928 -22 q 921 -19 924 -22 q 918 -14 919 -17 m 954 46 q 962 38 956 42 q 966 35 964 36 q 972 33 969 35 q 982 33 976 32 q 987 35 985 33 q 992 38 989 36 q 995 41 994 39 q 999 44 997 42 l 1003 50 q 1008 58 1004 55 q 1010 59 1009 59 q 1013 60 1012 59 l 1019 60 l 1027 58 q 1026 52 1026 55 q 1024 46 1025 49 q 1019 35 1023 42 q 1013 26 1017 30 q 1005 19 1008 22 q 998 16 1001 17 q 992 13 995 14 q 979 10 986 10 q 973 10 976 10 q 966 11 969 10 q 961 13 964 13 q 954 15 958 13 q 949 18 951 17 q 944 23 946 20 q 939 27 941 25 q 934 32 936 29 q 931 39 933 35 q 928 45 930 42 q 927 51 928 48 q 926 58 927 54 q 926 64 926 61 q 927 70 926 67 q 931 83 928 76 q 934 88 933 85 q 938 94 935 91 q 943 99 940 97 q 949 103 946 101 q 958 108 954 106 q 964 109 961 109 q 969 111 966 110 l 981 111 q 988 110 985 111 q 992 109 990 110 l 992 100 q 990 95 990 97 q 988 93 988 94 q 985 91 987 92 q 976 88 980 88 q 969 87 972 88 q 960 84 965 86 q 953 76 956 81 q 950 67 950 71 q 950 56 949 61 q 954 46 951 49 m 1013 85 q 1009 90 1010 88 q 1005 96 1007 92 q 1002 102 1003 99 q 1001 108 1001 105 q 999 115 999 112 q 999 121 999 117 q 1000 127 999 124 q 1001 134 1000 131 q 1003 140 1001 138 q 1006 147 1004 143 q 1009 151 1008 149 q 1014 156 1011 154 q 1019 161 1017 159 q 1025 165 1022 163 q 1031 168 1028 167 q 1037 169 1033 169 q 1043 171 1040 171 q 1049 171 1046 171 q 1056 171 1053 171 q 1063 169 1059 171 q 1069 168 1066 169 q 1075 165 1072 167 q 1081 161 1078 163 q 1086 156 1083 159 q 1090 151 1088 153 q 1094 145 1092 149 q 1096 140 1095 142 q 1099 133 1097 137 q 1099 127 1099 130 q 1099 120 1099 124 q 1098 108 1099 115 q 1096 102 1097 105 q 1093 96 1094 99 q 1085 85 1090 90 q 1080 80 1082 82 q 1074 77 1077 78 q 1068 74 1071 76 q 1062 72 1065 73 q 1049 70 1056 70 q 1036 72 1042 70 q 1030 74 1033 73 q 1024 77 1027 76 q 1019 81 1022 78 q 1013 85 1016 83 m 1030 101 q 1034 98 1032 99 q 1040 95 1037 97 q 1049 94 1044 94 q 1060 95 1057 94 q 1065 98 1063 96 q 1069 101 1067 99 q 1075 110 1074 106 q 1077 120 1077 115 q 1075 131 1077 125 q 1069 140 1074 135 q 1060 147 1065 144 q 1049 149 1056 149 q 1044 148 1047 149 q 1040 147 1042 148 q 1034 144 1037 146 q 1030 140 1032 143 q 1024 131 1026 138 q 1022 126 1022 129 q 1022 121 1022 124 q 1024 111 1022 114 q 1026 106 1025 108 q 1030 101 1028 103 m 1190 224 l 1178 203 l 1138 229 l 1166 187 l 1156 170 l 1106 179 l 1144 153 l 1131 134 l 1049 188 l 1058 201 q 1064 207 1060 205 q 1068 208 1066 208 q 1072 208 1071 208 l 1131 199 l 1098 247 q 1096 252 1097 250 q 1095 256 1095 253 q 1096 260 1095 258 q 1098 264 1097 262 l 1107 277 l 1190 224 m 231 645 l 226 632 l 133 667 l 146 699 q 151 710 148 706 q 162 717 156 716 q 167 719 165 719 q 173 720 169 720 q 179 720 176 720 q 185 719 182 719 q 195 711 192 716 q 200 707 199 710 q 202 702 201 705 q 204 696 203 699 q 206 691 205 693 q 203 678 206 685 l 197 658 l 231 645 m 191 683 q 191 686 191 685 q 192 690 192 688 q 191 693 192 692 q 190 697 191 694 q 189 699 190 698 q 186 702 188 701 q 181 706 184 704 q 177 706 179 706 q 174 706 175 706 q 170 706 172 706 q 167 705 169 706 q 165 703 166 703 q 162 701 163 703 q 158 695 159 697 l 151 674 l 183 663 l 191 683 m 281 753 l 251 699 l 165 747 l 194 800 l 206 793 l 183 752 l 208 738 l 227 772 l 239 766 l 220 733 l 246 717 l 269 759 l 281 753 m 294 771 l 286 760 l 208 820 l 228 849 q 233 852 231 850 q 238 856 235 854 q 243 858 240 858 q 248 860 245 859 q 253 860 251 860 q 259 859 256 860 q 269 853 265 858 q 273 850 272 852 q 276 847 274 849 q 278 843 277 845 q 280 840 279 841 q 281 834 281 836 q 281 830 281 832 q 279 822 281 826 l 331 820 l 326 813 q 321 808 324 810 q 317 807 319 808 q 315 806 316 806 l 271 808 l 262 796 l 294 771 m 226 823 l 251 804 l 264 822 q 266 824 265 823 q 267 827 266 826 l 267 833 q 267 835 267 834 q 265 839 266 837 q 261 842 263 842 q 256 845 258 845 q 250 846 254 846 q 247 845 249 845 q 244 844 246 845 q 240 840 242 843 l 226 823 m 303 903 q 299 903 300 903 q 296 902 297 903 q 292 899 294 901 q 288 894 290 897 q 286 889 286 892 l 286 884 q 289 880 287 882 q 293 876 291 877 l 297 876 q 303 878 299 876 q 307 880 306 879 q 312 881 309 880 q 314 883 313 882 q 316 883 315 883 q 322 885 317 884 q 326 888 324 885 q 328 888 327 888 q 331 888 329 888 q 353 880 344 890 q 360 869 360 876 q 361 863 361 865 q 362 858 362 861 q 360 851 361 854 q 358 845 360 848 q 355 839 357 842 q 351 835 352 837 q 329 824 342 826 l 325 824 q 321 826 323 826 q 318 826 319 826 q 317 826 317 826 q 316 827 316 826 q 315 827 316 827 l 316 831 q 317 833 317 832 q 318 835 317 834 q 326 839 324 839 l 328 839 q 335 840 331 839 q 342 844 338 841 q 343 847 343 846 q 345 850 344 849 q 347 858 347 853 q 347 864 349 860 q 346 867 347 866 q 344 870 345 869 q 338 874 342 874 q 331 874 334 876 q 325 872 327 874 q 317 868 319 870 q 308 865 315 867 q 302 863 305 863 q 298 863 299 863 q 288 863 291 863 q 283 866 286 865 q 279 870 281 867 q 273 880 274 874 q 272 890 272 886 q 276 900 274 897 q 281 909 277 903 q 289 913 285 913 q 296 916 292 916 q 304 917 303 917 q 311 917 309 917 l 310 913 q 308 906 310 910 q 303 903 306 903 m 344 900 q 341 906 343 903 q 339 913 340 909 q 335 925 335 919 q 335 932 335 928 q 335 938 335 935 q 338 945 337 942 q 340 951 339 948 q 343 956 342 954 q 347 962 345 958 q 358 970 351 966 q 369 976 363 975 q 383 978 376 978 q 396 978 389 981 q 401 977 399 978 q 407 974 403 976 q 413 971 410 973 q 419 967 416 969 q 423 963 422 965 q 428 957 425 960 q 431 951 429 954 q 433 945 433 949 q 436 933 436 939 q 436 919 438 926 q 434 913 435 916 q 432 907 433 910 q 424 896 428 900 q 420 891 422 894 q 415 888 418 889 q 397 880 405 881 q 376 880 386 877 q 367 882 372 881 q 358 886 363 884 q 344 900 350 892 m 356 908 q 366 898 359 901 q 379 893 372 894 q 394 893 386 891 q 406 899 401 894 q 417 909 414 903 q 420 915 419 913 q 422 922 421 918 q 422 937 423 929 q 420 943 421 940 q 416 949 419 946 q 406 960 413 956 q 393 965 399 965 q 379 965 385 967 q 365 959 372 964 q 355 949 359 955 q 352 942 353 945 q 349 935 351 939 q 349 922 348 929 q 352 915 351 918 q 356 908 353 912 m 474 924 l 460 918 l 423 1010 l 433 1014 q 438 1015 435 1015 q 442 1014 442 1015 l 518 965 l 519 965 q 519 963 519 963 q 521 962 521 963 q 522 962 521 962 l 490 1038 l 503 1042 l 540 951 l 531 947 q 525 947 528 947 q 519 947 522 947 l 446 996 q 444 996 444 996 q 443 997 444 997 q 442 999 443 998 q 442 999 442 999 l 442 1001 l 474 924 m 563 1058 l 576 1060 l 638 972 l 630 970 q 627 970 628 969 q 624 970 626 970 q 619 974 621 971 l 610 988 l 560 978 l 557 962 q 553 956 556 958 q 551 954 553 955 q 548 953 549 953 l 540 952 l 563 1058 m 573 1038 l 563 993 l 601 1001 l 576 1038 q 574 1040 574 1039 q 573 1043 574 1042 l 573 1040 l 573 1038 m 638 969 l 635 1069 l 648 1069 l 651 984 l 695 986 l 696 972 l 638 969 m 750 1006 q 750 995 749 1000 q 752 991 751 993 q 754 987 753 988 q 757 983 756 985 q 760 980 759 981 q 766 977 763 978 q 771 975 768 976 q 781 976 778 975 q 786 977 784 976 q 790 980 788 978 q 797 987 794 983 q 800 991 799 989 q 802 997 801 994 l 812 1056 l 826 1054 l 814 994 q 813 989 813 992 q 811 984 813 987 q 809 979 810 981 q 806 975 808 977 q 802 972 804 974 q 798 969 799 970 q 790 965 794 966 q 784 963 787 963 q 779 962 781 963 q 769 963 772 962 q 763 964 765 963 q 758 966 761 965 q 754 968 756 967 q 750 971 752 969 q 742 978 745 974 q 738 988 741 982 q 736 998 736 992 q 737 1008 736 1005 l 747 1067 l 760 1065 l 750 1006 m 878 1018 q 877 1020 878 1019 q 875 1023 876 1022 q 872 1024 874 1024 q 869 1025 871 1024 q 863 1026 867 1026 l 858 1026 q 853 1024 856 1024 q 851 1019 851 1022 q 851 1014 849 1016 q 852 1010 851 1011 q 853 1007 853 1008 q 856 1005 854 1006 q 863 1000 858 1003 q 865 998 864 999 q 867 996 865 997 q 869 994 868 995 q 871 992 869 993 q 873 991 872 992 q 875 989 874 990 q 876 987 876 988 q 878 985 876 986 q 881 962 885 974 q 877 956 879 958 q 874 951 876 953 q 868 947 871 949 q 863 944 866 945 q 851 942 858 942 q 845 942 848 942 q 839 943 842 942 q 820 959 826 949 q 819 961 820 960 q 817 963 818 962 q 817 965 817 964 q 817 967 817 965 q 816 969 816 967 l 816 972 l 820 973 q 825 972 823 973 q 831 967 829 971 l 831 966 q 833 963 833 964 q 835 960 834 962 q 840 958 838 959 q 843 956 841 957 q 846 956 844 956 q 849 956 848 956 q 853 956 851 956 q 857 956 856 956 q 863 960 862 958 q 867 966 867 963 q 867 973 869 970 q 867 976 867 974 q 865 978 866 977 q 863 981 864 980 q 860 984 862 983 q 858 986 859 985 q 853 988 856 987 q 850 992 852 990 q 847 996 848 994 q 843 999 844 997 q 840 1004 842 1001 q 838 1008 839 1006 q 837 1012 837 1010 q 839 1024 835 1017 q 844 1033 840 1029 q 853 1038 849 1038 q 859 1040 856 1040 q 863 1040 861 1040 q 869 1040 866 1040 q 875 1038 872 1039 q 881 1034 878 1038 q 888 1028 885 1031 q 890 1025 889 1026 q 892 1022 892 1024 q 893 1019 893 1020 q 894 1016 894 1017 l 890 1014 q 883 1014 887 1013 q 878 1018 880 1017 m 930 903 l 876 931 l 920 1019 l 974 991 l 969 978 l 927 1001 l 914 975 l 948 958 l 941 945 l 907 963 l 894 938 l 936 915 l 930 903 m 992 922 q 1003 931 997 929 q 1008 935 1005 933 q 1013 938 1010 936 q 1020 939 1017 939 q 1026 940 1023 939 q 1033 940 1030 940 q 1040 939 1036 940 q 1052 935 1046 938 q 1063 927 1057 933 q 1068 923 1065 925 q 1072 917 1071 920 q 1077 906 1076 912 q 1080 893 1080 900 q 1080 886 1080 890 q 1079 880 1080 883 q 1077 873 1078 876 q 1075 867 1076 870 q 1067 857 1072 860 q 1063 851 1065 853 q 1058 847 1060 849 q 1051 844 1054 845 q 1045 842 1049 842 q 1033 840 1039 840 q 1026 840 1029 840 q 1019 840 1023 840 q 1014 842 1017 841 q 1008 844 1011 842 q 1002 848 1004 846 q 996 851 999 849 q 989 859 992 856 q 984 867 986 863 q 981 877 983 872 q 979 886 980 881 q 982 906 979 897 q 992 922 985 916 m 1003 914 q 994 901 997 908 q 993 894 993 898 q 992 888 992 891 q 993 880 992 883 q 996 874 994 877 q 1000 867 999 870 q 1005 862 1002 864 q 1011 858 1008 859 q 1018 854 1015 856 q 1031 853 1026 852 q 1045 857 1040 853 q 1052 860 1049 858 q 1058 865 1055 863 q 1064 878 1063 871 q 1066 892 1067 884 q 1065 899 1066 895 q 1063 906 1065 902 q 1059 911 1061 909 q 1054 917 1057 914 q 1048 921 1051 919 q 1041 924 1044 923 q 1034 926 1038 926 q 1027 926 1031 926 q 1020 925 1024 926 q 1013 922 1017 924 q 1003 914 1007 919 m 1046 804 l 1038 814 l 1117 874 l 1124 865 q 1126 860 1126 862 l 1126 854 l 1097 771 q 1097 770 1097 770 q 1097 769 1097 770 q 1096 769 1097 769 q 1095 768 1095 769 l 1094 767 l 1160 815 l 1169 805 l 1090 746 l 1083 754 q 1080 759 1081 756 q 1081 764 1080 763 l 1109 849 q 1110 849 1109 849 q 1110 850 1110 849 l 1111 851 q 1113 853 1112 852 l 1046 804 m 1094 734 l 1183 779 l 1188 768 l 1113 728 l 1133 691 l 1120 684 l 1094 734 m 1131 656 l 1126 668 l 1165 683 q 1167 684 1167 684 q 1169 685 1169 685 q 1170 687 1169 687 q 1170 688 1170 688 q 1172 690 1172 688 l 1205 740 l 1207 732 q 1209 727 1208 729 q 1209 724 1209 725 q 1208 720 1208 722 q 1206 717 1207 719 l 1185 685 l 1183 683 l 1183 683 l 1184 683 q 1186 683 1184 683 l 1224 672 q 1227 670 1225 671 q 1230 668 1228 669 q 1233 663 1233 667 l 1237 653 l 1180 670 q 1178 671 1178 670 l 1175 671 l 1172 671 q 1169 670 1170 671 l 1131 656 z "},"5":{"ha":1385,"x_min":133,"x_max":1237,"o":"m 927 226 q 815 160 877 185 q 683 135 753 135 q 552 160 613 135 q 442 226 492 185 l 927 226 m 413 254 q 347 365 370 303 q 323 497 323 426 q 344 620 323 563 q 404 726 365 678 l 883 726 l 413 254 m 440 766 q 551 834 490 810 q 683 859 613 859 q 815 834 753 859 q 923 766 876 809 l 440 766 m 1044 497 q 1023 372 1044 430 q 963 265 1001 314 l 482 265 l 952 740 q 1021 623 998 683 q 1044 497 1044 563 m 800 76 q 743 65 772 69 q 683 60 715 60 q 565 76 622 60 q 460 122 508 92 q 372 191 411 151 q 305 280 333 231 q 262 383 277 328 q 247 497 247 438 q 263 615 247 558 q 308 721 278 672 q 377 809 337 769 q 466 876 417 849 q 570 919 515 904 q 683 935 625 935 q 858 899 778 935 q 996 802 938 863 q 1087 662 1054 741 q 1119 497 1119 583 q 1094 350 1119 418 q 1026 228 1069 282 q 925 135 983 174 q 800 76 867 97 m 789 883 q 739 895 765 891 q 683 899 713 899 q 574 884 626 899 q 477 842 522 869 q 397 778 433 815 q 336 696 361 740 q 297 601 310 651 q 283 497 283 550 q 297 392 283 442 q 337 296 311 341 q 399 214 363 251 q 479 150 435 177 q 575 109 524 124 q 683 94 627 94 q 839 125 766 94 q 967 211 913 157 q 1053 339 1022 266 q 1085 497 1085 413 q 1061 634 1085 570 q 997 747 1038 697 q 903 832 957 797 q 789 883 849 867 m 205 221 l 227 183 l 208 172 l 168 238 l 177 243 q 188 246 183 247 l 257 239 l 235 276 l 255 287 l 293 221 l 284 216 q 279 215 280 215 q 274 213 277 213 l 205 221 m 265 100 l 223 151 l 299 215 l 342 163 l 324 149 l 296 181 l 285 172 l 307 147 l 290 131 l 268 157 l 255 147 l 282 115 l 265 100 m 331 140 l 347 157 l 406 106 l 392 90 l 371 108 l 322 49 l 304 64 l 353 122 l 331 140 m 428 94 l 444 83 l 431 -23 l 417 -15 q 414 -12 416 -13 q 412 -9 412 -10 q 410 -5 410 -6 l 410 -1 l 412 11 l 379 31 l 369 24 q 368 23 369 23 q 366 22 367 23 l 362 22 q 359 22 360 22 q 358 22 358 22 q 355 23 356 23 q 353 24 353 23 l 340 31 l 428 94 m 419 60 q 418 59 418 59 q 416 58 415 58 q 415 56 415 56 q 415 56 415 56 l 400 45 l 415 35 l 417 54 q 417 55 417 55 q 418 56 418 56 q 418 58 418 58 q 419 58 419 58 q 419 59 419 59 q 419 60 419 60 m 522 6 l 513 -16 l 480 -3 l 467 -37 l 444 -28 l 481 63 l 542 40 l 535 19 l 494 33 l 489 19 l 522 6 m 529 -9 q 533 4 530 -3 q 541 14 538 8 q 545 19 543 17 q 550 23 548 21 q 556 26 553 25 q 563 28 559 27 q 569 30 565 30 q 576 31 572 31 q 582 31 579 31 q 589 30 585 31 q 595 28 592 28 q 601 26 599 27 q 613 19 608 22 q 617 14 615 16 q 621 9 619 12 q 626 -3 626 3 q 628 -10 628 -7 q 630 -16 629 -12 q 630 -23 630 -19 q 629 -29 630 -26 q 624 -42 628 -36 q 620 -48 622 -45 q 617 -53 619 -50 q 608 -61 614 -58 q 601 -64 604 -62 q 595 -67 599 -65 q 589 -69 592 -68 q 583 -69 586 -69 q 576 -69 579 -69 q 568 -68 573 -69 q 562 -67 565 -67 q 556 -65 560 -66 q 551 -61 553 -63 q 545 -57 548 -60 q 541 -52 542 -55 q 537 -47 539 -49 q 534 -42 535 -44 q 531 -36 532 -39 q 528 -23 529 -28 q 528 -16 528 -19 q 529 -9 528 -12 m 553 -14 q 553 -25 552 -20 q 554 -30 553 -27 q 556 -35 555 -32 q 563 -42 559 -39 q 568 -44 565 -44 q 574 -46 571 -45 q 584 -46 578 -48 q 594 -43 590 -45 q 601 -35 599 -39 q 604 -30 603 -32 q 606 -25 606 -27 q 606 -13 608 -19 q 601 -4 606 -10 q 598 0 600 -1 q 594 4 597 2 q 590 6 592 6 q 584 8 588 7 q 574 8 578 10 q 568 6 571 7 q 563 4 566 6 q 560 1 562 3 q 557 -4 558 -1 q 553 -14 554 -7 m 727 -78 l 706 -79 l 661 -13 l 662 -79 l 638 -80 l 637 19 l 647 19 l 656 19 q 663 19 661 19 q 666 15 665 17 l 701 -34 q 701 -35 701 -35 q 702 -37 701 -36 q 703 -39 702 -38 q 703 -40 703 -39 q 704 -43 703 -42 l 702 20 l 726 20 l 727 -78 m 738 -1 l 734 22 l 812 35 l 816 14 l 789 8 l 803 -66 l 781 -70 l 767 4 l 738 -1 m 856 28 q 851 27 853 28 q 849 26 849 27 q 848 23 848 23 q 849 22 848 22 q 851 19 849 19 q 852 18 851 19 q 853 17 852 17 l 860 17 l 867 17 q 874 17 871 17 q 880 17 876 17 q 884 15 883 15 q 889 13 886 15 q 897 7 894 10 q 902 -3 901 4 q 904 -15 905 -9 q 903 -22 904 -19 q 900 -28 901 -24 q 897 -33 899 -31 q 892 -39 895 -35 q 885 -42 888 -40 q 879 -45 883 -44 q 874 -47 876 -46 q 867 -47 871 -47 q 857 -46 863 -49 q 847 -42 851 -45 q 842 -39 844 -41 q 839 -35 840 -37 l 844 -28 q 847 -26 845 -26 q 849 -24 849 -24 q 856 -23 851 -23 q 859 -23 858 -23 q 861 -24 860 -24 q 864 -24 863 -24 q 866 -25 865 -25 q 871 -24 869 -25 q 874 -23 873 -24 q 876 -22 874 -23 l 879 -19 q 881 -14 881 -17 q 881 -10 881 -14 l 878 -8 q 875 -7 878 -7 q 872 -6 874 -6 q 869 -6 871 -6 l 863 -6 q 858 -6 860 -6 q 852 -5 856 -6 q 842 -3 848 -5 q 837 -1 840 -2 q 833 2 835 1 q 826 13 830 6 q 825 19 825 16 q 825 24 825 22 q 826 30 826 28 q 829 35 827 33 q 832 41 831 39 q 837 44 834 42 q 847 50 842 48 q 851 51 849 51 q 856 52 853 52 q 860 51 858 52 q 865 51 862 51 q 868 50 866 50 q 874 48 870 49 q 877 46 875 47 q 880 44 878 46 l 876 37 q 874 32 875 35 q 870 31 872 31 q 867 31 869 31 q 865 30 867 30 l 861 30 l 858 30 q 856 28 856 30 m 918 -14 q 917 -11 918 -12 q 917 -9 917 -10 q 918 -4 917 -6 q 920 1 918 -3 q 924 4 921 3 q 927 5 926 5 q 930 6 928 5 q 932 5 931 6 q 935 5 933 5 q 939 2 938 3 q 942 -3 941 1 q 945 -8 945 -6 q 944 -12 945 -11 q 942 -15 942 -14 q 941 -17 942 -16 q 939 -19 940 -18 q 937 -21 938 -19 q 932 -22 933 -22 q 927 -22 928 -22 q 921 -19 924 -22 q 918 -14 919 -17 m 954 46 q 962 38 956 42 q 966 35 964 36 q 972 33 969 35 q 982 33 976 32 q 987 35 985 33 q 992 38 989 36 q 995 41 994 39 q 999 44 997 42 l 1003 50 q 1008 58 1004 55 q 1010 59 1009 59 q 1013 60 1012 59 l 1019 60 l 1027 58 q 1026 52 1026 55 q 1024 46 1025 49 q 1019 35 1023 42 q 1013 26 1017 30 q 1005 19 1008 22 q 998 16 1001 17 q 992 13 995 14 q 979 10 986 10 q 973 10 976 10 q 966 11 969 10 q 961 13 964 13 q 954 15 958 13 q 949 18 951 17 q 944 23 946 20 q 939 27 941 25 q 934 32 936 29 q 931 39 933 35 q 928 45 930 42 q 927 51 928 48 q 926 58 927 54 q 926 64 926 61 q 927 70 926 67 q 931 83 928 76 q 934 88 933 85 q 938 94 935 91 q 943 99 940 97 q 949 103 946 101 q 958 108 954 106 q 964 109 961 109 q 969 111 966 110 l 981 111 q 988 110 985 111 q 992 109 990 110 l 992 100 q 990 95 990 97 q 988 93 988 94 q 985 91 987 92 q 976 88 980 88 q 969 87 972 88 q 960 84 965 86 q 953 76 956 81 q 950 67 950 71 q 950 56 949 61 q 954 46 951 49 m 1013 85 q 1009 90 1010 88 q 1005 96 1007 92 q 1002 102 1003 99 q 1001 108 1001 105 q 999 115 999 112 q 999 121 999 117 q 1000 127 999 124 q 1001 134 1000 131 q 1003 140 1001 138 q 1006 147 1004 143 q 1009 151 1008 149 q 1014 156 1011 154 q 1019 161 1017 159 q 1025 165 1022 163 q 1031 168 1028 167 q 1037 169 1033 169 q 1043 171 1040 171 q 1049 171 1046 171 q 1056 171 1053 171 q 1063 169 1059 171 q 1069 168 1066 169 q 1075 165 1072 167 q 1081 161 1078 163 q 1086 156 1083 159 q 1090 151 1088 153 q 1094 145 1092 149 q 1096 140 1095 142 q 1099 133 1097 137 q 1099 127 1099 130 q 1099 120 1099 124 q 1098 108 1099 115 q 1096 102 1097 105 q 1093 96 1094 99 q 1085 85 1090 90 q 1080 80 1082 82 q 1074 77 1077 78 q 1068 74 1071 76 q 1062 72 1065 73 q 1049 70 1056 70 q 1036 72 1042 70 q 1030 74 1033 73 q 1024 77 1027 76 q 1019 81 1022 78 q 1013 85 1016 83 m 1030 101 q 1034 98 1032 99 q 1040 95 1037 97 q 1049 94 1044 94 q 1060 95 1057 94 q 1065 98 1063 96 q 1069 101 1067 99 q 1075 110 1074 106 q 1077 120 1077 115 q 1075 131 1077 125 q 1069 140 1074 135 q 1060 147 1065 144 q 1049 149 1056 149 q 1044 148 1047 149 q 1040 147 1042 148 q 1034 144 1037 146 q 1030 140 1032 143 q 1024 131 1026 138 q 1022 126 1022 129 q 1022 121 1022 124 q 1024 111 1022 114 q 1026 106 1025 108 q 1030 101 1028 103 m 1190 224 l 1178 203 l 1138 229 l 1166 187 l 1156 170 l 1106 179 l 1144 153 l 1131 134 l 1049 188 l 1058 201 q 1064 207 1060 205 q 1068 208 1066 208 q 1072 208 1071 208 l 1131 199 l 1098 247 q 1096 252 1097 250 q 1095 256 1095 253 q 1096 260 1095 258 q 1098 264 1097 262 l 1107 277 l 1190 224 m 231 645 l 226 632 l 133 667 l 146 699 q 151 710 148 706 q 162 717 156 716 q 167 719 165 719 q 173 720 169 720 q 179 720 176 720 q 185 719 182 719 q 195 711 192 716 q 200 707 199 710 q 202 702 201 705 q 204 696 203 699 q 206 691 205 693 q 203 678 206 685 l 197 658 l 231 645 m 191 683 q 191 686 191 685 q 192 690 192 688 q 191 693 192 692 q 190 697 191 694 q 189 699 190 698 q 186 702 188 701 q 181 706 184 704 q 177 706 179 706 q 174 706 175 706 q 170 706 172 706 q 167 705 169 706 q 165 703 166 703 q 162 701 163 703 q 158 695 159 697 l 151 674 l 183 663 l 191 683 m 281 753 l 251 699 l 165 747 l 194 800 l 206 793 l 183 752 l 208 738 l 227 772 l 239 766 l 220 733 l 246 717 l 269 759 l 281 753 m 294 771 l 286 760 l 208 820 l 228 849 q 233 852 231 850 q 238 856 235 854 q 243 858 240 858 q 248 860 245 859 q 253 860 251 860 q 259 859 256 860 q 269 853 265 858 q 273 850 272 852 q 276 847 274 849 q 278 843 277 845 q 280 840 279 841 q 281 834 281 836 q 281 830 281 832 q 279 822 281 826 l 331 820 l 326 813 q 321 808 324 810 q 317 807 319 808 q 315 806 316 806 l 271 808 l 262 796 l 294 771 m 226 823 l 251 804 l 264 822 q 266 824 265 823 q 267 827 266 826 l 267 833 q 267 835 267 834 q 265 839 266 837 q 261 842 263 842 q 256 845 258 845 q 250 846 254 846 q 247 845 249 845 q 244 844 246 845 q 240 840 242 843 l 226 823 m 303 903 q 299 903 300 903 q 296 902 297 903 q 292 899 294 901 q 288 894 290 897 q 286 889 286 892 l 286 884 q 289 880 287 882 q 293 876 291 877 l 297 876 q 303 878 299 876 q 307 880 306 879 q 312 881 309 880 q 314 883 313 882 q 316 883 315 883 q 322 885 317 884 q 326 888 324 885 q 328 888 327 888 q 331 888 329 888 q 353 880 344 890 q 360 869 360 876 q 361 863 361 865 q 362 858 362 861 q 360 851 361 854 q 358 845 360 848 q 355 839 357 842 q 351 835 352 837 q 329 824 342 826 l 325 824 q 321 826 323 826 q 318 826 319 826 q 317 826 317 826 q 316 827 316 826 q 315 827 316 827 l 316 831 q 317 833 317 832 q 318 835 317 834 q 326 839 324 839 l 328 839 q 335 840 331 839 q 342 844 338 841 q 343 847 343 846 q 345 850 344 849 q 347 858 347 853 q 347 864 349 860 q 346 867 347 866 q 344 870 345 869 q 338 874 342 874 q 331 874 334 876 q 325 872 327 874 q 317 868 319 870 q 308 865 315 867 q 302 863 305 863 q 298 863 299 863 q 288 863 291 863 q 283 866 286 865 q 279 870 281 867 q 273 880 274 874 q 272 890 272 886 q 276 900 274 897 q 281 909 277 903 q 289 913 285 913 q 296 916 292 916 q 304 917 303 917 q 311 917 309 917 l 310 913 q 308 906 310 910 q 303 903 306 903 m 344 900 q 341 906 343 903 q 339 913 340 909 q 335 925 335 919 q 335 932 335 928 q 335 938 335 935 q 338 945 337 942 q 340 951 339 948 q 343 956 342 954 q 347 962 345 958 q 358 970 351 966 q 369 976 363 975 q 383 978 376 978 q 396 978 389 981 q 401 977 399 978 q 407 974 403 976 q 413 971 410 973 q 419 967 416 969 q 423 963 422 965 q 428 957 425 960 q 431 951 429 954 q 433 945 433 949 q 436 933 436 939 q 436 919 438 926 q 434 913 435 916 q 432 907 433 910 q 424 896 428 900 q 420 891 422 894 q 415 888 418 889 q 397 880 405 881 q 376 880 386 877 q 367 882 372 881 q 358 886 363 884 q 344 900 350 892 m 356 908 q 366 898 359 901 q 379 893 372 894 q 394 893 386 891 q 406 899 401 894 q 417 909 414 903 q 420 915 419 913 q 422 922 421 918 q 422 937 423 929 q 420 943 421 940 q 416 949 419 946 q 406 960 413 956 q 393 965 399 965 q 379 965 385 967 q 365 959 372 964 q 355 949 359 955 q 352 942 353 945 q 349 935 351 939 q 349 922 348 929 q 352 915 351 918 q 356 908 353 912 m 474 924 l 460 918 l 423 1010 l 433 1014 q 438 1015 435 1015 q 442 1014 442 1015 l 518 965 l 519 965 q 519 963 519 963 q 521 962 521 963 q 522 962 521 962 l 490 1038 l 503 1042 l 540 951 l 531 947 q 525 947 528 947 q 519 947 522 947 l 446 996 q 444 996 444 996 q 443 997 444 997 q 442 999 443 998 q 442 999 442 999 l 442 1001 l 474 924 m 563 1058 l 576 1060 l 638 972 l 630 970 q 627 970 628 969 q 624 970 626 970 q 619 974 621 971 l 610 988 l 560 978 l 557 962 q 553 956 556 958 q 551 954 553 955 q 548 953 549 953 l 540 952 l 563 1058 m 573 1038 l 563 993 l 601 1001 l 576 1038 q 574 1040 574 1039 q 573 1043 574 1042 l 573 1040 l 573 1038 m 638 969 l 635 1069 l 648 1069 l 651 984 l 695 986 l 696 972 l 638 969 m 750 1006 q 750 995 749 1000 q 752 991 751 993 q 754 987 753 988 q 757 983 756 985 q 760 980 759 981 q 766 977 763 978 q 771 975 768 976 q 781 976 778 975 q 786 977 784 976 q 790 980 788 978 q 797 987 794 983 q 800 991 799 989 q 802 997 801 994 l 812 1056 l 826 1054 l 814 994 q 813 989 813 992 q 811 984 813 987 q 809 979 810 981 q 806 975 808 977 q 802 972 804 974 q 798 969 799 970 q 790 965 794 966 q 784 963 787 963 q 779 962 781 963 q 769 963 772 962 q 763 964 765 963 q 758 966 761 965 q 754 968 756 967 q 750 971 752 969 q 742 978 745 974 q 738 988 741 982 q 736 998 736 992 q 737 1008 736 1005 l 747 1067 l 760 1065 l 750 1006 m 878 1018 q 877 1020 878 1019 q 875 1023 876 1022 q 872 1024 874 1024 q 869 1025 871 1024 q 863 1026 867 1026 l 858 1026 q 853 1024 856 1024 q 851 1019 851 1022 q 851 1014 849 1016 q 852 1010 851 1011 q 853 1007 853 1008 q 856 1005 854 1006 q 863 1000 858 1003 q 865 998 864 999 q 867 996 865 997 q 869 994 868 995 q 871 992 869 993 q 873 991 872 992 q 875 989 874 990 q 876 987 876 988 q 878 985 876 986 q 881 962 885 974 q 877 956 879 958 q 874 951 876 953 q 868 947 871 949 q 863 944 866 945 q 851 942 858 942 q 845 942 848 942 q 839 943 842 942 q 820 959 826 949 q 819 961 820 960 q 817 963 818 962 q 817 965 817 964 q 817 967 817 965 q 816 969 816 967 l 816 972 l 820 973 q 825 972 823 973 q 831 967 829 971 l 831 966 q 833 963 833 964 q 835 960 834 962 q 840 958 838 959 q 843 956 841 957 q 846 956 844 956 q 849 956 848 956 q 853 956 851 956 q 857 956 856 956 q 863 960 862 958 q 867 966 867 963 q 867 973 869 970 q 867 976 867 974 q 865 978 866 977 q 863 981 864 980 q 860 984 862 983 q 858 986 859 985 q 853 988 856 987 q 850 992 852 990 q 847 996 848 994 q 843 999 844 997 q 840 1004 842 1001 q 838 1008 839 1006 q 837 1012 837 1010 q 839 1024 835 1017 q 844 1033 840 1029 q 853 1038 849 1038 q 859 1040 856 1040 q 863 1040 861 1040 q 869 1040 866 1040 q 875 1038 872 1039 q 881 1034 878 1038 q 888 1028 885 1031 q 890 1025 889 1026 q 892 1022 892 1024 q 893 1019 893 1020 q 894 1016 894 1017 l 890 1014 q 883 1014 887 1013 q 878 1018 880 1017 m 930 903 l 876 931 l 920 1019 l 974 991 l 969 978 l 927 1001 l 914 975 l 948 958 l 941 945 l 907 963 l 894 938 l 936 915 l 930 903 m 992 922 q 1003 931 997 929 q 1008 935 1005 933 q 1013 938 1010 936 q 1020 939 1017 939 q 1026 940 1023 939 q 1033 940 1030 940 q 1040 939 1036 940 q 1052 935 1046 938 q 1063 927 1057 933 q 1068 923 1065 925 q 1072 917 1071 920 q 1077 906 1076 912 q 1080 893 1080 900 q 1080 886 1080 890 q 1079 880 1080 883 q 1077 873 1078 876 q 1075 867 1076 870 q 1067 857 1072 860 q 1063 851 1065 853 q 1058 847 1060 849 q 1051 844 1054 845 q 1045 842 1049 842 q 1033 840 1039 840 q 1026 840 1029 840 q 1019 840 1023 840 q 1014 842 1017 841 q 1008 844 1011 842 q 1002 848 1004 846 q 996 851 999 849 q 989 859 992 856 q 984 867 986 863 q 981 877 983 872 q 979 886 980 881 q 982 906 979 897 q 992 922 985 916 m 1003 914 q 994 901 997 908 q 993 894 993 898 q 992 888 992 891 q 993 880 992 883 q 996 874 994 877 q 1000 867 999 870 q 1005 862 1002 864 q 1011 858 1008 859 q 1018 854 1015 856 q 1031 853 1026 852 q 1045 857 1040 853 q 1052 860 1049 858 q 1058 865 1055 863 q 1064 878 1063 871 q 1066 892 1067 884 q 1065 899 1066 895 q 1063 906 1065 902 q 1059 911 1061 909 q 1054 917 1057 914 q 1048 921 1051 919 q 1041 924 1044 923 q 1034 926 1038 926 q 1027 926 1031 926 q 1020 925 1024 926 q 1013 922 1017 924 q 1003 914 1007 919 m 1046 804 l 1038 814 l 1117 874 l 1124 865 q 1126 860 1126 862 l 1126 854 l 1097 771 q 1097 770 1097 770 q 1097 769 1097 770 q 1096 769 1097 769 q 1095 768 1095 769 l 1094 767 l 1160 815 l 1169 805 l 1090 746 l 1083 754 q 1080 759 1081 756 q 1081 764 1080 763 l 1109 849 q 1110 849 1109 849 q 1110 850 1110 849 l 1111 851 q 1113 853 1112 852 l 1046 804 m 1094 734 l 1183 779 l 1188 768 l 1113 728 l 1133 691 l 1120 684 l 1094 734 m 1131 656 l 1126 668 l 1165 683 q 1167 684 1167 684 q 1169 685 1169 685 q 1170 687 1169 687 q 1170 688 1170 688 q 1172 690 1172 688 l 1205 740 l 1207 732 q 1209 727 1208 729 q 1209 724 1209 725 q 1208 720 1208 722 q 1206 717 1207 719 l 1185 685 l 1183 683 l 1183 683 l 1184 683 q 1186 683 1184 683 l 1224 672 q 1227 670 1225 671 q 1230 668 1228 669 q 1233 663 1233 667 l 1237 653 l 1180 670 q 1178 671 1178 670 l 1175 671 l 1172 671 q 1169 670 1170 671 l 1131 656 z "},"6":{"ha":1385,"x_min":133,"x_max":1237,"o":"m 927 226 q 815 160 877 185 q 683 135 753 135 q 552 160 613 135 q 442 226 492 185 l 927 226 m 413 254 q 347 365 370 303 q 323 497 323 426 q 344 620 323 563 q 404 726 365 678 l 883 726 l 413 254 m 440 766 q 551 834 490 810 q 683 859 613 859 q 815 834 753 859 q 923 766 876 809 l 440 766 m 1044 497 q 1023 372 1044 430 q 963 265 1001 314 l 482 265 l 952 740 q 1021 623 998 683 q 1044 497 1044 563 m 800 76 q 743 65 772 69 q 683 60 715 60 q 565 76 622 60 q 460 122 508 92 q 372 191 411 151 q 305 280 333 231 q 262 383 277 328 q 247 497 247 438 q 263 615 247 558 q 308 721 278 672 q 377 809 337 769 q 466 876 417 849 q 570 919 515 904 q 683 935 625 935 q 858 899 778 935 q 996 802 938 863 q 1087 662 1054 741 q 1119 497 1119 583 q 1094 350 1119 418 q 1026 228 1069 282 q 925 135 983 174 q 800 76 867 97 m 789 883 q 739 895 765 891 q 683 899 713 899 q 574 884 626 899 q 477 842 522 869 q 397 778 433 815 q 336 696 361 740 q 297 601 310 651 q 283 497 283 550 q 297 392 283 442 q 337 296 311 341 q 399 214 363 251 q 479 150 435 177 q 575 109 524 124 q 683 94 627 94 q 839 125 766 94 q 967 211 913 157 q 1053 339 1022 266 q 1085 497 1085 413 q 1061 634 1085 570 q 997 747 1038 697 q 903 832 957 797 q 789 883 849 867 m 205 221 l 227 183 l 208 172 l 168 238 l 177 243 q 188 246 183 247 l 257 239 l 235 276 l 255 287 l 293 221 l 284 216 q 279 215 280 215 q 274 213 277 213 l 205 221 m 265 100 l 223 151 l 299 215 l 342 163 l 324 149 l 296 181 l 285 172 l 307 147 l 290 131 l 268 157 l 255 147 l 282 115 l 265 100 m 331 140 l 347 157 l 406 106 l 392 90 l 371 108 l 322 49 l 304 64 l 353 122 l 331 140 m 428 94 l 444 83 l 431 -23 l 417 -15 q 414 -12 416 -13 q 412 -9 412 -10 q 410 -5 410 -6 l 410 -1 l 412 11 l 379 31 l 369 24 q 368 23 369 23 q 366 22 367 23 l 362 22 q 359 22 360 22 q 358 22 358 22 q 355 23 356 23 q 353 24 353 23 l 340 31 l 428 94 m 419 60 q 418 59 418 59 q 416 58 415 58 q 415 56 415 56 q 415 56 415 56 l 400 45 l 415 35 l 417 54 q 417 55 417 55 q 418 56 418 56 q 418 58 418 58 q 419 58 419 58 q 419 59 419 59 q 419 60 419 60 m 522 6 l 513 -16 l 480 -3 l 467 -37 l 444 -28 l 481 63 l 542 40 l 535 19 l 494 33 l 489 19 l 522 6 m 529 -9 q 533 4 530 -3 q 541 14 538 8 q 545 19 543 17 q 550 23 548 21 q 556 26 553 25 q 563 28 559 27 q 569 30 565 30 q 576 31 572 31 q 582 31 579 31 q 589 30 585 31 q 595 28 592 28 q 601 26 599 27 q 613 19 608 22 q 617 14 615 16 q 621 9 619 12 q 626 -3 626 3 q 628 -10 628 -7 q 630 -16 629 -12 q 630 -23 630 -19 q 629 -29 630 -26 q 624 -42 628 -36 q 620 -48 622 -45 q 617 -53 619 -50 q 608 -61 614 -58 q 601 -64 604 -62 q 595 -67 599 -65 q 589 -69 592 -68 q 583 -69 586 -69 q 576 -69 579 -69 q 568 -68 573 -69 q 562 -67 565 -67 q 556 -65 560 -66 q 551 -61 553 -63 q 545 -57 548 -60 q 541 -52 542 -55 q 537 -47 539 -49 q 534 -42 535 -44 q 531 -36 532 -39 q 528 -23 529 -28 q 528 -16 528 -19 q 529 -9 528 -12 m 553 -14 q 553 -25 552 -20 q 554 -30 553 -27 q 556 -35 555 -32 q 563 -42 559 -39 q 568 -44 565 -44 q 574 -46 571 -45 q 584 -46 578 -48 q 594 -43 590 -45 q 601 -35 599 -39 q 604 -30 603 -32 q 606 -25 606 -27 q 606 -13 608 -19 q 601 -4 606 -10 q 598 0 600 -1 q 594 4 597 2 q 590 6 592 6 q 584 8 588 7 q 574 8 578 10 q 568 6 571 7 q 563 4 566 6 q 560 1 562 3 q 557 -4 558 -1 q 553 -14 554 -7 m 727 -78 l 706 -79 l 661 -13 l 662 -79 l 638 -80 l 637 19 l 647 19 l 656 19 q 663 19 661 19 q 666 15 665 17 l 701 -34 q 701 -35 701 -35 q 702 -37 701 -36 q 703 -39 702 -38 q 703 -40 703 -39 q 704 -43 703 -42 l 702 20 l 726 20 l 727 -78 m 738 -1 l 734 22 l 812 35 l 816 14 l 789 8 l 803 -66 l 781 -70 l 767 4 l 738 -1 m 856 28 q 851 27 853 28 q 849 26 849 27 q 848 23 848 23 q 849 22 848 22 q 851 19 849 19 q 852 18 851 19 q 853 17 852 17 l 860 17 l 867 17 q 874 17 871 17 q 880 17 876 17 q 884 15 883 15 q 889 13 886 15 q 897 7 894 10 q 902 -3 901 4 q 904 -15 905 -9 q 903 -22 904 -19 q 900 -28 901 -24 q 897 -33 899 -31 q 892 -39 895 -35 q 885 -42 888 -40 q 879 -45 883 -44 q 874 -47 876 -46 q 867 -47 871 -47 q 857 -46 863 -49 q 847 -42 851 -45 q 842 -39 844 -41 q 839 -35 840 -37 l 844 -28 q 847 -26 845 -26 q 849 -24 849 -24 q 856 -23 851 -23 q 859 -23 858 -23 q 861 -24 860 -24 q 864 -24 863 -24 q 866 -25 865 -25 q 871 -24 869 -25 q 874 -23 873 -24 q 876 -22 874 -23 l 879 -19 q 881 -14 881 -17 q 881 -10 881 -14 l 878 -8 q 875 -7 878 -7 q 872 -6 874 -6 q 869 -6 871 -6 l 863 -6 q 858 -6 860 -6 q 852 -5 856 -6 q 842 -3 848 -5 q 837 -1 840 -2 q 833 2 835 1 q 826 13 830 6 q 825 19 825 16 q 825 24 825 22 q 826 30 826 28 q 829 35 827 33 q 832 41 831 39 q 837 44 834 42 q 847 50 842 48 q 851 51 849 51 q 856 52 853 52 q 860 51 858 52 q 865 51 862 51 q 868 50 866 50 q 874 48 870 49 q 877 46 875 47 q 880 44 878 46 l 876 37 q 874 32 875 35 q 870 31 872 31 q 867 31 869 31 q 865 30 867 30 l 861 30 l 858 30 q 856 28 856 30 m 918 -14 q 917 -11 918 -12 q 917 -9 917 -10 q 918 -4 917 -6 q 920 1 918 -3 q 924 4 921 3 q 927 5 926 5 q 930 6 928 5 q 932 5 931 6 q 935 5 933 5 q 939 2 938 3 q 942 -3 941 1 q 945 -8 945 -6 q 944 -12 945 -11 q 942 -15 942 -14 q 941 -17 942 -16 q 939 -19 940 -18 q 937 -21 938 -19 q 932 -22 933 -22 q 927 -22 928 -22 q 921 -19 924 -22 q 918 -14 919 -17 m 954 46 q 962 38 956 42 q 966 35 964 36 q 972 33 969 35 q 982 33 976 32 q 987 35 985 33 q 992 38 989 36 q 995 41 994 39 q 999 44 997 42 l 1003 50 q 1008 58 1004 55 q 1010 59 1009 59 q 1013 60 1012 59 l 1019 60 l 1027 58 q 1026 52 1026 55 q 1024 46 1025 49 q 1019 35 1023 42 q 1013 26 1017 30 q 1005 19 1008 22 q 998 16 1001 17 q 992 13 995 14 q 979 10 986 10 q 973 10 976 10 q 966 11 969 10 q 961 13 964 13 q 954 15 958 13 q 949 18 951 17 q 944 23 946 20 q 939 27 941 25 q 934 32 936 29 q 931 39 933 35 q 928 45 930 42 q 927 51 928 48 q 926 58 927 54 q 926 64 926 61 q 927 70 926 67 q 931 83 928 76 q 934 88 933 85 q 938 94 935 91 q 943 99 940 97 q 949 103 946 101 q 958 108 954 106 q 964 109 961 109 q 969 111 966 110 l 981 111 q 988 110 985 111 q 992 109 990 110 l 992 100 q 990 95 990 97 q 988 93 988 94 q 985 91 987 92 q 976 88 980 88 q 969 87 972 88 q 960 84 965 86 q 953 76 956 81 q 950 67 950 71 q 950 56 949 61 q 954 46 951 49 m 1013 85 q 1009 90 1010 88 q 1005 96 1007 92 q 1002 102 1003 99 q 1001 108 1001 105 q 999 115 999 112 q 999 121 999 117 q 1000 127 999 124 q 1001 134 1000 131 q 1003 140 1001 138 q 1006 147 1004 143 q 1009 151 1008 149 q 1014 156 1011 154 q 1019 161 1017 159 q 1025 165 1022 163 q 1031 168 1028 167 q 1037 169 1033 169 q 1043 171 1040 171 q 1049 171 1046 171 q 1056 171 1053 171 q 1063 169 1059 171 q 1069 168 1066 169 q 1075 165 1072 167 q 1081 161 1078 163 q 1086 156 1083 159 q 1090 151 1088 153 q 1094 145 1092 149 q 1096 140 1095 142 q 1099 133 1097 137 q 1099 127 1099 130 q 1099 120 1099 124 q 1098 108 1099 115 q 1096 102 1097 105 q 1093 96 1094 99 q 1085 85 1090 90 q 1080 80 1082 82 q 1074 77 1077 78 q 1068 74 1071 76 q 1062 72 1065 73 q 1049 70 1056 70 q 1036 72 1042 70 q 1030 74 1033 73 q 1024 77 1027 76 q 1019 81 1022 78 q 1013 85 1016 83 m 1030 101 q 1034 98 1032 99 q 1040 95 1037 97 q 1049 94 1044 94 q 1060 95 1057 94 q 1065 98 1063 96 q 1069 101 1067 99 q 1075 110 1074 106 q 1077 120 1077 115 q 1075 131 1077 125 q 1069 140 1074 135 q 1060 147 1065 144 q 1049 149 1056 149 q 1044 148 1047 149 q 1040 147 1042 148 q 1034 144 1037 146 q 1030 140 1032 143 q 1024 131 1026 138 q 1022 126 1022 129 q 1022 121 1022 124 q 1024 111 1022 114 q 1026 106 1025 108 q 1030 101 1028 103 m 1190 224 l 1178 203 l 1138 229 l 1166 187 l 1156 170 l 1106 179 l 1144 153 l 1131 134 l 1049 188 l 1058 201 q 1064 207 1060 205 q 1068 208 1066 208 q 1072 208 1071 208 l 1131 199 l 1098 247 q 1096 252 1097 250 q 1095 256 1095 253 q 1096 260 1095 258 q 1098 264 1097 262 l 1107 277 l 1190 224 m 231 645 l 226 632 l 133 667 l 146 699 q 151 710 148 706 q 162 717 156 716 q 167 719 165 719 q 173 720 169 720 q 179 720 176 720 q 185 719 182 719 q 195 711 192 716 q 200 707 199 710 q 202 702 201 705 q 204 696 203 699 q 206 691 205 693 q 203 678 206 685 l 197 658 l 231 645 m 191 683 q 191 686 191 685 q 192 690 192 688 q 191 693 192 692 q 190 697 191 694 q 189 699 190 698 q 186 702 188 701 q 181 706 184 704 q 177 706 179 706 q 174 706 175 706 q 170 706 172 706 q 167 705 169 706 q 165 703 166 703 q 162 701 163 703 q 158 695 159 697 l 151 674 l 183 663 l 191 683 m 281 753 l 251 699 l 165 747 l 194 800 l 206 793 l 183 752 l 208 738 l 227 772 l 239 766 l 220 733 l 246 717 l 269 759 l 281 753 m 294 771 l 286 760 l 208 820 l 228 849 q 233 852 231 850 q 238 856 235 854 q 243 858 240 858 q 248 860 245 859 q 253 860 251 860 q 259 859 256 860 q 269 853 265 858 q 273 850 272 852 q 276 847 274 849 q 278 843 277 845 q 280 840 279 841 q 281 834 281 836 q 281 830 281 832 q 279 822 281 826 l 331 820 l 326 813 q 321 808 324 810 q 317 807 319 808 q 315 806 316 806 l 271 808 l 262 796 l 294 771 m 226 823 l 251 804 l 264 822 q 266 824 265 823 q 267 827 266 826 l 267 833 q 267 835 267 834 q 265 839 266 837 q 261 842 263 842 q 256 845 258 845 q 250 846 254 846 q 247 845 249 845 q 244 844 246 845 q 240 840 242 843 l 226 823 m 303 903 q 299 903 300 903 q 296 902 297 903 q 292 899 294 901 q 288 894 290 897 q 286 889 286 892 l 286 884 q 289 880 287 882 q 293 876 291 877 l 297 876 q 303 878 299 876 q 307 880 306 879 q 312 881 309 880 q 314 883 313 882 q 316 883 315 883 q 322 885 317 884 q 326 888 324 885 q 328 888 327 888 q 331 888 329 888 q 353 880 344 890 q 360 869 360 876 q 361 863 361 865 q 362 858 362 861 q 360 851 361 854 q 358 845 360 848 q 355 839 357 842 q 351 835 352 837 q 329 824 342 826 l 325 824 q 321 826 323 826 q 318 826 319 826 q 317 826 317 826 q 316 827 316 826 q 315 827 316 827 l 316 831 q 317 833 317 832 q 318 835 317 834 q 326 839 324 839 l 328 839 q 335 840 331 839 q 342 844 338 841 q 343 847 343 846 q 345 850 344 849 q 347 858 347 853 q 347 864 349 860 q 346 867 347 866 q 344 870 345 869 q 338 874 342 874 q 331 874 334 876 q 325 872 327 874 q 317 868 319 870 q 308 865 315 867 q 302 863 305 863 q 298 863 299 863 q 288 863 291 863 q 283 866 286 865 q 279 870 281 867 q 273 880 274 874 q 272 890 272 886 q 276 900 274 897 q 281 909 277 903 q 289 913 285 913 q 296 916 292 916 q 304 917 303 917 q 311 917 309 917 l 310 913 q 308 906 310 910 q 303 903 306 903 m 344 900 q 341 906 343 903 q 339 913 340 909 q 335 925 335 919 q 335 932 335 928 q 335 938 335 935 q 338 945 337 942 q 340 951 339 948 q 343 956 342 954 q 347 962 345 958 q 358 970 351 966 q 369 976 363 975 q 383 978 376 978 q 396 978 389 981 q 401 977 399 978 q 407 974 403 976 q 413 971 410 973 q 419 967 416 969 q 423 963 422 965 q 428 957 425 960 q 431 951 429 954 q 433 945 433 949 q 436 933 436 939 q 436 919 438 926 q 434 913 435 916 q 432 907 433 910 q 424 896 428 900 q 420 891 422 894 q 415 888 418 889 q 397 880 405 881 q 376 880 386 877 q 367 882 372 881 q 358 886 363 884 q 344 900 350 892 m 356 908 q 366 898 359 901 q 379 893 372 894 q 394 893 386 891 q 406 899 401 894 q 417 909 414 903 q 420 915 419 913 q 422 922 421 918 q 422 937 423 929 q 420 943 421 940 q 416 949 419 946 q 406 960 413 956 q 393 965 399 965 q 379 965 385 967 q 365 959 372 964 q 355 949 359 955 q 352 942 353 945 q 349 935 351 939 q 349 922 348 929 q 352 915 351 918 q 356 908 353 912 m 474 924 l 460 918 l 423 1010 l 433 1014 q 438 1015 435 1015 q 442 1014 442 1015 l 518 965 l 519 965 q 519 963 519 963 q 521 962 521 963 q 522 962 521 962 l 490 1038 l 503 1042 l 540 951 l 531 947 q 525 947 528 947 q 519 947 522 947 l 446 996 q 444 996 444 996 q 443 997 444 997 q 442 999 443 998 q 442 999 442 999 l 442 1001 l 474 924 m 563 1058 l 576 1060 l 638 972 l 630 970 q 627 970 628 969 q 624 970 626 970 q 619 974 621 971 l 610 988 l 560 978 l 557 962 q 553 956 556 958 q 551 954 553 955 q 548 953 549 953 l 540 952 l 563 1058 m 573 1038 l 563 993 l 601 1001 l 576 1038 q 574 1040 574 1039 q 573 1043 574 1042 l 573 1040 l 573 1038 m 638 969 l 635 1069 l 648 1069 l 651 984 l 695 986 l 696 972 l 638 969 m 750 1006 q 750 995 749 1000 q 752 991 751 993 q 754 987 753 988 q 757 983 756 985 q 760 980 759 981 q 766 977 763 978 q 771 975 768 976 q 781 976 778 975 q 786 977 784 976 q 790 980 788 978 q 797 987 794 983 q 800 991 799 989 q 802 997 801 994 l 812 1056 l 826 1054 l 814 994 q 813 989 813 992 q 811 984 813 987 q 809 979 810 981 q 806 975 808 977 q 802 972 804 974 q 798 969 799 970 q 790 965 794 966 q 784 963 787 963 q 779 962 781 963 q 769 963 772 962 q 763 964 765 963 q 758 966 761 965 q 754 968 756 967 q 750 971 752 969 q 742 978 745 974 q 738 988 741 982 q 736 998 736 992 q 737 1008 736 1005 l 747 1067 l 760 1065 l 750 1006 m 878 1018 q 877 1020 878 1019 q 875 1023 876 1022 q 872 1024 874 1024 q 869 1025 871 1024 q 863 1026 867 1026 l 858 1026 q 853 1024 856 1024 q 851 1019 851 1022 q 851 1014 849 1016 q 852 1010 851 1011 q 853 1007 853 1008 q 856 1005 854 1006 q 863 1000 858 1003 q 865 998 864 999 q 867 996 865 997 q 869 994 868 995 q 871 992 869 993 q 873 991 872 992 q 875 989 874 990 q 876 987 876 988 q 878 985 876 986 q 881 962 885 974 q 877 956 879 958 q 874 951 876 953 q 868 947 871 949 q 863 944 866 945 q 851 942 858 942 q 845 942 848 942 q 839 943 842 942 q 820 959 826 949 q 819 961 820 960 q 817 963 818 962 q 817 965 817 964 q 817 967 817 965 q 816 969 816 967 l 816 972 l 820 973 q 825 972 823 973 q 831 967 829 971 l 831 966 q 833 963 833 964 q 835 960 834 962 q 840 958 838 959 q 843 956 841 957 q 846 956 844 956 q 849 956 848 956 q 853 956 851 956 q 857 956 856 956 q 863 960 862 958 q 867 966 867 963 q 867 973 869 970 q 867 976 867 974 q 865 978 866 977 q 863 981 864 980 q 860 984 862 983 q 858 986 859 985 q 853 988 856 987 q 850 992 852 990 q 847 996 848 994 q 843 999 844 997 q 840 1004 842 1001 q 838 1008 839 1006 q 837 1012 837 1010 q 839 1024 835 1017 q 844 1033 840 1029 q 853 1038 849 1038 q 859 1040 856 1040 q 863 1040 861 1040 q 869 1040 866 1040 q 875 1038 872 1039 q 881 1034 878 1038 q 888 1028 885 1031 q 890 1025 889 1026 q 892 1022 892 1024 q 893 1019 893 1020 q 894 1016 894 1017 l 890 1014 q 883 1014 887 1013 q 878 1018 880 1017 m 930 903 l 876 931 l 920 1019 l 974 991 l 969 978 l 927 1001 l 914 975 l 948 958 l 941 945 l 907 963 l 894 938 l 936 915 l 930 903 m 992 922 q 1003 931 997 929 q 1008 935 1005 933 q 1013 938 1010 936 q 1020 939 1017 939 q 1026 940 1023 939 q 1033 940 1030 940 q 1040 939 1036 940 q 1052 935 1046 938 q 1063 927 1057 933 q 1068 923 1065 925 q 1072 917 1071 920 q 1077 906 1076 912 q 1080 893 1080 900 q 1080 886 1080 890 q 1079 880 1080 883 q 1077 873 1078 876 q 1075 867 1076 870 q 1067 857 1072 860 q 1063 851 1065 853 q 1058 847 1060 849 q 1051 844 1054 845 q 1045 842 1049 842 q 1033 840 1039 840 q 1026 840 1029 840 q 1019 840 1023 840 q 1014 842 1017 841 q 1008 844 1011 842 q 1002 848 1004 846 q 996 851 999 849 q 989 859 992 856 q 984 867 986 863 q 981 877 983 872 q 979 886 980 881 q 982 906 979 897 q 992 922 985 916 m 1003 914 q 994 901 997 908 q 993 894 993 898 q 992 888 992 891 q 993 880 992 883 q 996 874 994 877 q 1000 867 999 870 q 1005 862 1002 864 q 1011 858 1008 859 q 1018 854 1015 856 q 1031 853 1026 852 q 1045 857 1040 853 q 1052 860 1049 858 q 1058 865 1055 863 q 1064 878 1063 871 q 1066 892 1067 884 q 1065 899 1066 895 q 1063 906 1065 902 q 1059 911 1061 909 q 1054 917 1057 914 q 1048 921 1051 919 q 1041 924 1044 923 q 1034 926 1038 926 q 1027 926 1031 926 q 1020 925 1024 926 q 1013 922 1017 924 q 1003 914 1007 919 m 1046 804 l 1038 814 l 1117 874 l 1124 865 q 1126 860 1126 862 l 1126 854 l 1097 771 q 1097 770 1097 770 q 1097 769 1097 770 q 1096 769 1097 769 q 1095 768 1095 769 l 1094 767 l 1160 815 l 1169 805 l 1090 746 l 1083 754 q 1080 759 1081 756 q 1081 764 1080 763 l 1109 849 q 1110 849 1109 849 q 1110 850 1110 849 l 1111 851 q 1113 853 1112 852 l 1046 804 m 1094 734 l 1183 779 l 1188 768 l 1113 728 l 1133 691 l 1120 684 l 1094 734 m 1131 656 l 1126 668 l 1165 683 q 1167 684 1167 684 q 1169 685 1169 685 q 1170 687 1169 687 q 1170 688 1170 688 q 1172 690 1172 688 l 1205 740 l 1207 732 q 1209 727 1208 729 q 1209 724 1209 725 q 1208 720 1208 722 q 1206 717 1207 719 l 1185 685 l 1183 683 l 1183 683 l 1184 683 q 1186 683 1184 683 l 1224 672 q 1227 670 1225 671 q 1230 668 1228 669 q 1233 663 1233 667 l 1237 653 l 1180 670 q 1178 671 1178 670 l 1175 671 l 1172 671 q 1169 670 1170 671 l 1131 656 z "},"7":{"ha":1385,"x_min":133,"x_max":1237,"o":"m 927 226 q 815 160 877 185 q 683 135 753 135 q 552 160 613 135 q 442 226 492 185 l 927 226 m 413 254 q 347 365 370 303 q 323 497 323 426 q 344 620 323 563 q 404 726 365 678 l 883 726 l 413 254 m 440 766 q 551 834 490 810 q 683 859 613 859 q 815 834 753 859 q 923 766 876 809 l 440 766 m 1044 497 q 1023 372 1044 430 q 963 265 1001 314 l 482 265 l 952 740 q 1021 623 998 683 q 1044 497 1044 563 m 800 76 q 743 65 772 69 q 683 60 715 60 q 565 76 622 60 q 460 122 508 92 q 372 191 411 151 q 305 280 333 231 q 262 383 277 328 q 247 497 247 438 q 263 615 247 558 q 308 721 278 672 q 377 809 337 769 q 466 876 417 849 q 570 919 515 904 q 683 935 625 935 q 858 899 778 935 q 996 802 938 863 q 1087 662 1054 741 q 1119 497 1119 583 q 1094 350 1119 418 q 1026 228 1069 282 q 925 135 983 174 q 800 76 867 97 m 789 883 q 739 895 765 891 q 683 899 713 899 q 574 884 626 899 q 477 842 522 869 q 397 778 433 815 q 336 696 361 740 q 297 601 310 651 q 283 497 283 550 q 297 392 283 442 q 337 296 311 341 q 399 214 363 251 q 479 150 435 177 q 575 109 524 124 q 683 94 627 94 q 839 125 766 94 q 967 211 913 157 q 1053 339 1022 266 q 1085 497 1085 413 q 1061 634 1085 570 q 997 747 1038 697 q 903 832 957 797 q 789 883 849 867 m 205 221 l 227 183 l 208 172 l 168 238 l 177 243 q 188 246 183 247 l 257 239 l 235 276 l 255 287 l 293 221 l 284 216 q 279 215 280 215 q 274 213 277 213 l 205 221 m 265 100 l 223 151 l 299 215 l 342 163 l 324 149 l 296 181 l 285 172 l 307 147 l 290 131 l 268 157 l 255 147 l 282 115 l 265 100 m 331 140 l 347 157 l 406 106 l 392 90 l 371 108 l 322 49 l 304 64 l 353 122 l 331 140 m 428 94 l 444 83 l 431 -23 l 417 -15 q 414 -12 416 -13 q 412 -9 412 -10 q 410 -5 410 -6 l 410 -1 l 412 11 l 379 31 l 369 24 q 368 23 369 23 q 366 22 367 23 l 362 22 q 359 22 360 22 q 358 22 358 22 q 355 23 356 23 q 353 24 353 23 l 340 31 l 428 94 m 419 60 q 418 59 418 59 q 416 58 415 58 q 415 56 415 56 q 415 56 415 56 l 400 45 l 415 35 l 417 54 q 417 55 417 55 q 418 56 418 56 q 418 58 418 58 q 419 58 419 58 q 419 59 419 59 q 419 60 419 60 m 522 6 l 513 -16 l 480 -3 l 467 -37 l 444 -28 l 481 63 l 542 40 l 535 19 l 494 33 l 489 19 l 522 6 m 529 -9 q 533 4 530 -3 q 541 14 538 8 q 545 19 543 17 q 550 23 548 21 q 556 26 553 25 q 563 28 559 27 q 569 30 565 30 q 576 31 572 31 q 582 31 579 31 q 589 30 585 31 q 595 28 592 28 q 601 26 599 27 q 613 19 608 22 q 617 14 615 16 q 621 9 619 12 q 626 -3 626 3 q 628 -10 628 -7 q 630 -16 629 -12 q 630 -23 630 -19 q 629 -29 630 -26 q 624 -42 628 -36 q 620 -48 622 -45 q 617 -53 619 -50 q 608 -61 614 -58 q 601 -64 604 -62 q 595 -67 599 -65 q 589 -69 592 -68 q 583 -69 586 -69 q 576 -69 579 -69 q 568 -68 573 -69 q 562 -67 565 -67 q 556 -65 560 -66 q 551 -61 553 -63 q 545 -57 548 -60 q 541 -52 542 -55 q 537 -47 539 -49 q 534 -42 535 -44 q 531 -36 532 -39 q 528 -23 529 -28 q 528 -16 528 -19 q 529 -9 528 -12 m 553 -14 q 553 -25 552 -20 q 554 -30 553 -27 q 556 -35 555 -32 q 563 -42 559 -39 q 568 -44 565 -44 q 574 -46 571 -45 q 584 -46 578 -48 q 594 -43 590 -45 q 601 -35 599 -39 q 604 -30 603 -32 q 606 -25 606 -27 q 606 -13 608 -19 q 601 -4 606 -10 q 598 0 600 -1 q 594 4 597 2 q 590 6 592 6 q 584 8 588 7 q 574 8 578 10 q 568 6 571 7 q 563 4 566 6 q 560 1 562 3 q 557 -4 558 -1 q 553 -14 554 -7 m 727 -78 l 706 -79 l 661 -13 l 662 -79 l 638 -80 l 637 19 l 647 19 l 656 19 q 663 19 661 19 q 666 15 665 17 l 701 -34 q 701 -35 701 -35 q 702 -37 701 -36 q 703 -39 702 -38 q 703 -40 703 -39 q 704 -43 703 -42 l 702 20 l 726 20 l 727 -78 m 738 -1 l 734 22 l 812 35 l 816 14 l 789 8 l 803 -66 l 781 -70 l 767 4 l 738 -1 m 856 28 q 851 27 853 28 q 849 26 849 27 q 848 23 848 23 q 849 22 848 22 q 851 19 849 19 q 852 18 851 19 q 853 17 852 17 l 860 17 l 867 17 q 874 17 871 17 q 880 17 876 17 q 884 15 883 15 q 889 13 886 15 q 897 7 894 10 q 902 -3 901 4 q 904 -15 905 -9 q 903 -22 904 -19 q 900 -28 901 -24 q 897 -33 899 -31 q 892 -39 895 -35 q 885 -42 888 -40 q 879 -45 883 -44 q 874 -47 876 -46 q 867 -47 871 -47 q 857 -46 863 -49 q 847 -42 851 -45 q 842 -39 844 -41 q 839 -35 840 -37 l 844 -28 q 847 -26 845 -26 q 849 -24 849 -24 q 856 -23 851 -23 q 859 -23 858 -23 q 861 -24 860 -24 q 864 -24 863 -24 q 866 -25 865 -25 q 871 -24 869 -25 q 874 -23 873 -24 q 876 -22 874 -23 l 879 -19 q 881 -14 881 -17 q 881 -10 881 -14 l 878 -8 q 875 -7 878 -7 q 872 -6 874 -6 q 869 -6 871 -6 l 863 -6 q 858 -6 860 -6 q 852 -5 856 -6 q 842 -3 848 -5 q 837 -1 840 -2 q 833 2 835 1 q 826 13 830 6 q 825 19 825 16 q 825 24 825 22 q 826 30 826 28 q 829 35 827 33 q 832 41 831 39 q 837 44 834 42 q 847 50 842 48 q 851 51 849 51 q 856 52 853 52 q 860 51 858 52 q 865 51 862 51 q 868 50 866 50 q 874 48 870 49 q 877 46 875 47 q 880 44 878 46 l 876 37 q 874 32 875 35 q 870 31 872 31 q 867 31 869 31 q 865 30 867 30 l 861 30 l 858 30 q 856 28 856 30 m 918 -14 q 917 -11 918 -12 q 917 -9 917 -10 q 918 -4 917 -6 q 920 1 918 -3 q 924 4 921 3 q 927 5 926 5 q 930 6 928 5 q 932 5 931 6 q 935 5 933 5 q 939 2 938 3 q 942 -3 941 1 q 945 -8 945 -6 q 944 -12 945 -11 q 942 -15 942 -14 q 941 -17 942 -16 q 939 -19 940 -18 q 937 -21 938 -19 q 932 -22 933 -22 q 927 -22 928 -22 q 921 -19 924 -22 q 918 -14 919 -17 m 954 46 q 962 38 956 42 q 966 35 964 36 q 972 33 969 35 q 982 33 976 32 q 987 35 985 33 q 992 38 989 36 q 995 41 994 39 q 999 44 997 42 l 1003 50 q 1008 58 1004 55 q 1010 59 1009 59 q 1013 60 1012 59 l 1019 60 l 1027 58 q 1026 52 1026 55 q 1024 46 1025 49 q 1019 35 1023 42 q 1013 26 1017 30 q 1005 19 1008 22 q 998 16 1001 17 q 992 13 995 14 q 979 10 986 10 q 973 10 976 10 q 966 11 969 10 q 961 13 964 13 q 954 15 958 13 q 949 18 951 17 q 944 23 946 20 q 939 27 941 25 q 934 32 936 29 q 931 39 933 35 q 928 45 930 42 q 927 51 928 48 q 926 58 927 54 q 926 64 926 61 q 927 70 926 67 q 931 83 928 76 q 934 88 933 85 q 938 94 935 91 q 943 99 940 97 q 949 103 946 101 q 958 108 954 106 q 964 109 961 109 q 969 111 966 110 l 981 111 q 988 110 985 111 q 992 109 990 110 l 992 100 q 990 95 990 97 q 988 93 988 94 q 985 91 987 92 q 976 88 980 88 q 969 87 972 88 q 960 84 965 86 q 953 76 956 81 q 950 67 950 71 q 950 56 949 61 q 954 46 951 49 m 1013 85 q 1009 90 1010 88 q 1005 96 1007 92 q 1002 102 1003 99 q 1001 108 1001 105 q 999 115 999 112 q 999 121 999 117 q 1000 127 999 124 q 1001 134 1000 131 q 1003 140 1001 138 q 1006 147 1004 143 q 1009 151 1008 149 q 1014 156 1011 154 q 1019 161 1017 159 q 1025 165 1022 163 q 1031 168 1028 167 q 1037 169 1033 169 q 1043 171 1040 171 q 1049 171 1046 171 q 1056 171 1053 171 q 1063 169 1059 171 q 1069 168 1066 169 q 1075 165 1072 167 q 1081 161 1078 163 q 1086 156 1083 159 q 1090 151 1088 153 q 1094 145 1092 149 q 1096 140 1095 142 q 1099 133 1097 137 q 1099 127 1099 130 q 1099 120 1099 124 q 1098 108 1099 115 q 1096 102 1097 105 q 1093 96 1094 99 q 1085 85 1090 90 q 1080 80 1082 82 q 1074 77 1077 78 q 1068 74 1071 76 q 1062 72 1065 73 q 1049 70 1056 70 q 1036 72 1042 70 q 1030 74 1033 73 q 1024 77 1027 76 q 1019 81 1022 78 q 1013 85 1016 83 m 1030 101 q 1034 98 1032 99 q 1040 95 1037 97 q 1049 94 1044 94 q 1060 95 1057 94 q 1065 98 1063 96 q 1069 101 1067 99 q 1075 110 1074 106 q 1077 120 1077 115 q 1075 131 1077 125 q 1069 140 1074 135 q 1060 147 1065 144 q 1049 149 1056 149 q 1044 148 1047 149 q 1040 147 1042 148 q 1034 144 1037 146 q 1030 140 1032 143 q 1024 131 1026 138 q 1022 126 1022 129 q 1022 121 1022 124 q 1024 111 1022 114 q 1026 106 1025 108 q 1030 101 1028 103 m 1190 224 l 1178 203 l 1138 229 l 1166 187 l 1156 170 l 1106 179 l 1144 153 l 1131 134 l 1049 188 l 1058 201 q 1064 207 1060 205 q 1068 208 1066 208 q 1072 208 1071 208 l 1131 199 l 1098 247 q 1096 252 1097 250 q 1095 256 1095 253 q 1096 260 1095 258 q 1098 264 1097 262 l 1107 277 l 1190 224 m 231 645 l 226 632 l 133 667 l 146 699 q 151 710 148 706 q 162 717 156 716 q 167 719 165 719 q 173 720 169 720 q 179 720 176 720 q 185 719 182 719 q 195 711 192 716 q 200 707 199 710 q 202 702 201 705 q 204 696 203 699 q 206 691 205 693 q 203 678 206 685 l 197 658 l 231 645 m 191 683 q 191 686 191 685 q 192 690 192 688 q 191 693 192 692 q 190 697 191 694 q 189 699 190 698 q 186 702 188 701 q 181 706 184 704 q 177 706 179 706 q 174 706 175 706 q 170 706 172 706 q 167 705 169 706 q 165 703 166 703 q 162 701 163 703 q 158 695 159 697 l 151 674 l 183 663 l 191 683 m 281 753 l 251 699 l 165 747 l 194 800 l 206 793 l 183 752 l 208 738 l 227 772 l 239 766 l 220 733 l 246 717 l 269 759 l 281 753 m 294 771 l 286 760 l 208 820 l 228 849 q 233 852 231 850 q 238 856 235 854 q 243 858 240 858 q 248 860 245 859 q 253 860 251 860 q 259 859 256 860 q 269 853 265 858 q 273 850 272 852 q 276 847 274 849 q 278 843 277 845 q 280 840 279 841 q 281 834 281 836 q 281 830 281 832 q 279 822 281 826 l 331 820 l 326 813 q 321 808 324 810 q 317 807 319 808 q 315 806 316 806 l 271 808 l 262 796 l 294 771 m 226 823 l 251 804 l 264 822 q 266 824 265 823 q 267 827 266 826 l 267 833 q 267 835 267 834 q 265 839 266 837 q 261 842 263 842 q 256 845 258 845 q 250 846 254 846 q 247 845 249 845 q 244 844 246 845 q 240 840 242 843 l 226 823 m 303 903 q 299 903 300 903 q 296 902 297 903 q 292 899 294 901 q 288 894 290 897 q 286 889 286 892 l 286 884 q 289 880 287 882 q 293 876 291 877 l 297 876 q 303 878 299 876 q 307 880 306 879 q 312 881 309 880 q 314 883 313 882 q 316 883 315 883 q 322 885 317 884 q 326 888 324 885 q 328 888 327 888 q 331 888 329 888 q 353 880 344 890 q 360 869 360 876 q 361 863 361 865 q 362 858 362 861 q 360 851 361 854 q 358 845 360 848 q 355 839 357 842 q 351 835 352 837 q 329 824 342 826 l 325 824 q 321 826 323 826 q 318 826 319 826 q 317 826 317 826 q 316 827 316 826 q 315 827 316 827 l 316 831 q 317 833 317 832 q 318 835 317 834 q 326 839 324 839 l 328 839 q 335 840 331 839 q 342 844 338 841 q 343 847 343 846 q 345 850 344 849 q 347 858 347 853 q 347 864 349 860 q 346 867 347 866 q 344 870 345 869 q 338 874 342 874 q 331 874 334 876 q 325 872 327 874 q 317 868 319 870 q 308 865 315 867 q 302 863 305 863 q 298 863 299 863 q 288 863 291 863 q 283 866 286 865 q 279 870 281 867 q 273 880 274 874 q 272 890 272 886 q 276 900 274 897 q 281 909 277 903 q 289 913 285 913 q 296 916 292 916 q 304 917 303 917 q 311 917 309 917 l 310 913 q 308 906 310 910 q 303 903 306 903 m 344 900 q 341 906 343 903 q 339 913 340 909 q 335 925 335 919 q 335 932 335 928 q 335 938 335 935 q 338 945 337 942 q 340 951 339 948 q 343 956 342 954 q 347 962 345 958 q 358 970 351 966 q 369 976 363 975 q 383 978 376 978 q 396 978 389 981 q 401 977 399 978 q 407 974 403 976 q 413 971 410 973 q 419 967 416 969 q 423 963 422 965 q 428 957 425 960 q 431 951 429 954 q 433 945 433 949 q 436 933 436 939 q 436 919 438 926 q 434 913 435 916 q 432 907 433 910 q 424 896 428 900 q 420 891 422 894 q 415 888 418 889 q 397 880 405 881 q 376 880 386 877 q 367 882 372 881 q 358 886 363 884 q 344 900 350 892 m 356 908 q 366 898 359 901 q 379 893 372 894 q 394 893 386 891 q 406 899 401 894 q 417 909 414 903 q 420 915 419 913 q 422 922 421 918 q 422 937 423 929 q 420 943 421 940 q 416 949 419 946 q 406 960 413 956 q 393 965 399 965 q 379 965 385 967 q 365 959 372 964 q 355 949 359 955 q 352 942 353 945 q 349 935 351 939 q 349 922 348 929 q 352 915 351 918 q 356 908 353 912 m 474 924 l 460 918 l 423 1010 l 433 1014 q 438 1015 435 1015 q 442 1014 442 1015 l 518 965 l 519 965 q 519 963 519 963 q 521 962 521 963 q 522 962 521 962 l 490 1038 l 503 1042 l 540 951 l 531 947 q 525 947 528 947 q 519 947 522 947 l 446 996 q 444 996 444 996 q 443 997 444 997 q 442 999 443 998 q 442 999 442 999 l 442 1001 l 474 924 m 563 1058 l 576 1060 l 638 972 l 630 970 q 627 970 628 969 q 624 970 626 970 q 619 974 621 971 l 610 988 l 560 978 l 557 962 q 553 956 556 958 q 551 954 553 955 q 548 953 549 953 l 540 952 l 563 1058 m 573 1038 l 563 993 l 601 1001 l 576 1038 q 574 1040 574 1039 q 573 1043 574 1042 l 573 1040 l 573 1038 m 638 969 l 635 1069 l 648 1069 l 651 984 l 695 986 l 696 972 l 638 969 m 750 1006 q 750 995 749 1000 q 752 991 751 993 q 754 987 753 988 q 757 983 756 985 q 760 980 759 981 q 766 977 763 978 q 771 975 768 976 q 781 976 778 975 q 786 977 784 976 q 790 980 788 978 q 797 987 794 983 q 800 991 799 989 q 802 997 801 994 l 812 1056 l 826 1054 l 814 994 q 813 989 813 992 q 811 984 813 987 q 809 979 810 981 q 806 975 808 977 q 802 972 804 974 q 798 969 799 970 q 790 965 794 966 q 784 963 787 963 q 779 962 781 963 q 769 963 772 962 q 763 964 765 963 q 758 966 761 965 q 754 968 756 967 q 750 971 752 969 q 742 978 745 974 q 738 988 741 982 q 736 998 736 992 q 737 1008 736 1005 l 747 1067 l 760 1065 l 750 1006 m 878 1018 q 877 1020 878 1019 q 875 1023 876 1022 q 872 1024 874 1024 q 869 1025 871 1024 q 863 1026 867 1026 l 858 1026 q 853 1024 856 1024 q 851 1019 851 1022 q 851 1014 849 1016 q 852 1010 851 1011 q 853 1007 853 1008 q 856 1005 854 1006 q 863 1000 858 1003 q 865 998 864 999 q 867 996 865 997 q 869 994 868 995 q 871 992 869 993 q 873 991 872 992 q 875 989 874 990 q 876 987 876 988 q 878 985 876 986 q 881 962 885 974 q 877 956 879 958 q 874 951 876 953 q 868 947 871 949 q 863 944 866 945 q 851 942 858 942 q 845 942 848 942 q 839 943 842 942 q 820 959 826 949 q 819 961 820 960 q 817 963 818 962 q 817 965 817 964 q 817 967 817 965 q 816 969 816 967 l 816 972 l 820 973 q 825 972 823 973 q 831 967 829 971 l 831 966 q 833 963 833 964 q 835 960 834 962 q 840 958 838 959 q 843 956 841 957 q 846 956 844 956 q 849 956 848 956 q 853 956 851 956 q 857 956 856 956 q 863 960 862 958 q 867 966 867 963 q 867 973 869 970 q 867 976 867 974 q 865 978 866 977 q 863 981 864 980 q 860 984 862 983 q 858 986 859 985 q 853 988 856 987 q 850 992 852 990 q 847 996 848 994 q 843 999 844 997 q 840 1004 842 1001 q 838 1008 839 1006 q 837 1012 837 1010 q 839 1024 835 1017 q 844 1033 840 1029 q 853 1038 849 1038 q 859 1040 856 1040 q 863 1040 861 1040 q 869 1040 866 1040 q 875 1038 872 1039 q 881 1034 878 1038 q 888 1028 885 1031 q 890 1025 889 1026 q 892 1022 892 1024 q 893 1019 893 1020 q 894 1016 894 1017 l 890 1014 q 883 1014 887 1013 q 878 1018 880 1017 m 930 903 l 876 931 l 920 1019 l 974 991 l 969 978 l 927 1001 l 914 975 l 948 958 l 941 945 l 907 963 l 894 938 l 936 915 l 930 903 m 992 922 q 1003 931 997 929 q 1008 935 1005 933 q 1013 938 1010 936 q 1020 939 1017 939 q 1026 940 1023 939 q 1033 940 1030 940 q 1040 939 1036 940 q 1052 935 1046 938 q 1063 927 1057 933 q 1068 923 1065 925 q 1072 917 1071 920 q 1077 906 1076 912 q 1080 893 1080 900 q 1080 886 1080 890 q 1079 880 1080 883 q 1077 873 1078 876 q 1075 867 1076 870 q 1067 857 1072 860 q 1063 851 1065 853 q 1058 847 1060 849 q 1051 844 1054 845 q 1045 842 1049 842 q 1033 840 1039 840 q 1026 840 1029 840 q 1019 840 1023 840 q 1014 842 1017 841 q 1008 844 1011 842 q 1002 848 1004 846 q 996 851 999 849 q 989 859 992 856 q 984 867 986 863 q 981 877 983 872 q 979 886 980 881 q 982 906 979 897 q 992 922 985 916 m 1003 914 q 994 901 997 908 q 993 894 993 898 q 992 888 992 891 q 993 880 992 883 q 996 874 994 877 q 1000 867 999 870 q 1005 862 1002 864 q 1011 858 1008 859 q 1018 854 1015 856 q 1031 853 1026 852 q 1045 857 1040 853 q 1052 860 1049 858 q 1058 865 1055 863 q 1064 878 1063 871 q 1066 892 1067 884 q 1065 899 1066 895 q 1063 906 1065 902 q 1059 911 1061 909 q 1054 917 1057 914 q 1048 921 1051 919 q 1041 924 1044 923 q 1034 926 1038 926 q 1027 926 1031 926 q 1020 925 1024 926 q 1013 922 1017 924 q 1003 914 1007 919 m 1046 804 l 1038 814 l 1117 874 l 1124 865 q 1126 860 1126 862 l 1126 854 l 1097 771 q 1097 770 1097 770 q 1097 769 1097 770 q 1096 769 1097 769 q 1095 768 1095 769 l 1094 767 l 1160 815 l 1169 805 l 1090 746 l 1083 754 q 1080 759 1081 756 q 1081 764 1080 763 l 1109 849 q 1110 849 1109 849 q 1110 850 1110 849 l 1111 851 q 1113 853 1112 852 l 1046 804 m 1094 734 l 1183 779 l 1188 768 l 1113 728 l 1133 691 l 1120 684 l 1094 734 m 1131 656 l 1126 668 l 1165 683 q 1167 684 1167 684 q 1169 685 1169 685 q 1170 687 1169 687 q 1170 688 1170 688 q 1172 690 1172 688 l 1205 740 l 1207 732 q 1209 727 1208 729 q 1209 724 1209 725 q 1208 720 1208 722 q 1206 717 1207 719 l 1185 685 l 1183 683 l 1183 683 l 1184 683 q 1186 683 1184 683 l 1224 672 q 1227 670 1225 671 q 1230 668 1228 669 q 1233 663 1233 667 l 1237 653 l 1180 670 q 1178 671 1178 670 l 1175 671 l 1172 671 q 1169 670 1170 671 l 1131 656 z "},"8":{"ha":1385,"x_min":133,"x_max":1237,"o":"m 927 226 q 815 160 877 185 q 683 135 753 135 q 552 160 613 135 q 442 226 492 185 l 927 226 m 413 254 q 347 365 370 303 q 323 497 323 426 q 344 620 323 563 q 404 726 365 678 l 883 726 l 413 254 m 440 766 q 551 834 490 810 q 683 859 613 859 q 815 834 753 859 q 923 766 876 809 l 440 766 m 1044 497 q 1023 372 1044 430 q 963 265 1001 314 l 482 265 l 952 740 q 1021 623 998 683 q 1044 497 1044 563 m 800 76 q 743 65 772 69 q 683 60 715 60 q 565 76 622 60 q 460 122 508 92 q 372 191 411 151 q 305 280 333 231 q 262 383 277 328 q 247 497 247 438 q 263 615 247 558 q 308 721 278 672 q 377 809 337 769 q 466 876 417 849 q 570 919 515 904 q 683 935 625 935 q 858 899 778 935 q 996 802 938 863 q 1087 662 1054 741 q 1119 497 1119 583 q 1094 350 1119 418 q 1026 228 1069 282 q 925 135 983 174 q 800 76 867 97 m 789 883 q 739 895 765 891 q 683 899 713 899 q 574 884 626 899 q 477 842 522 869 q 397 778 433 815 q 336 696 361 740 q 297 601 310 651 q 283 497 283 550 q 297 392 283 442 q 337 296 311 341 q 399 214 363 251 q 479 150 435 177 q 575 109 524 124 q 683 94 627 94 q 839 125 766 94 q 967 211 913 157 q 1053 339 1022 266 q 1085 497 1085 413 q 1061 634 1085 570 q 997 747 1038 697 q 903 832 957 797 q 789 883 849 867 m 205 221 l 227 183 l 208 172 l 168 238 l 177 243 q 188 246 183 247 l 257 239 l 235 276 l 255 287 l 293 221 l 284 216 q 279 215 280 215 q 274 213 277 213 l 205 221 m 265 100 l 223 151 l 299 215 l 342 163 l 324 149 l 296 181 l 285 172 l 307 147 l 290 131 l 268 157 l 255 147 l 282 115 l 265 100 m 331 140 l 347 157 l 406 106 l 392 90 l 371 108 l 322 49 l 304 64 l 353 122 l 331 140 m 428 94 l 444 83 l 431 -23 l 417 -15 q 414 -12 416 -13 q 412 -9 412 -10 q 410 -5 410 -6 l 410 -1 l 412 11 l 379 31 l 369 24 q 368 23 369 23 q 366 22 367 23 l 362 22 q 359 22 360 22 q 358 22 358 22 q 355 23 356 23 q 353 24 353 23 l 340 31 l 428 94 m 419 60 q 418 59 418 59 q 416 58 415 58 q 415 56 415 56 q 415 56 415 56 l 400 45 l 415 35 l 417 54 q 417 55 417 55 q 418 56 418 56 q 418 58 418 58 q 419 58 419 58 q 419 59 419 59 q 419 60 419 60 m 522 6 l 513 -16 l 480 -3 l 467 -37 l 444 -28 l 481 63 l 542 40 l 535 19 l 494 33 l 489 19 l 522 6 m 529 -9 q 533 4 530 -3 q 541 14 538 8 q 545 19 543 17 q 550 23 548 21 q 556 26 553 25 q 563 28 559 27 q 569 30 565 30 q 576 31 572 31 q 582 31 579 31 q 589 30 585 31 q 595 28 592 28 q 601 26 599 27 q 613 19 608 22 q 617 14 615 16 q 621 9 619 12 q 626 -3 626 3 q 628 -10 628 -7 q 630 -16 629 -12 q 630 -23 630 -19 q 629 -29 630 -26 q 624 -42 628 -36 q 620 -48 622 -45 q 617 -53 619 -50 q 608 -61 614 -58 q 601 -64 604 -62 q 595 -67 599 -65 q 589 -69 592 -68 q 583 -69 586 -69 q 576 -69 579 -69 q 568 -68 573 -69 q 562 -67 565 -67 q 556 -65 560 -66 q 551 -61 553 -63 q 545 -57 548 -60 q 541 -52 542 -55 q 537 -47 539 -49 q 534 -42 535 -44 q 531 -36 532 -39 q 528 -23 529 -28 q 528 -16 528 -19 q 529 -9 528 -12 m 553 -14 q 553 -25 552 -20 q 554 -30 553 -27 q 556 -35 555 -32 q 563 -42 559 -39 q 568 -44 565 -44 q 574 -46 571 -45 q 584 -46 578 -48 q 594 -43 590 -45 q 601 -35 599 -39 q 604 -30 603 -32 q 606 -25 606 -27 q 606 -13 608 -19 q 601 -4 606 -10 q 598 0 600 -1 q 594 4 597 2 q 590 6 592 6 q 584 8 588 7 q 574 8 578 10 q 568 6 571 7 q 563 4 566 6 q 560 1 562 3 q 557 -4 558 -1 q 553 -14 554 -7 m 727 -78 l 706 -79 l 661 -13 l 662 -79 l 638 -80 l 637 19 l 647 19 l 656 19 q 663 19 661 19 q 666 15 665 17 l 701 -34 q 701 -35 701 -35 q 702 -37 701 -36 q 703 -39 702 -38 q 703 -40 703 -39 q 704 -43 703 -42 l 702 20 l 726 20 l 727 -78 m 738 -1 l 734 22 l 812 35 l 816 14 l 789 8 l 803 -66 l 781 -70 l 767 4 l 738 -1 m 856 28 q 851 27 853 28 q 849 26 849 27 q 848 23 848 23 q 849 22 848 22 q 851 19 849 19 q 852 18 851 19 q 853 17 852 17 l 860 17 l 867 17 q 874 17 871 17 q 880 17 876 17 q 884 15 883 15 q 889 13 886 15 q 897 7 894 10 q 902 -3 901 4 q 904 -15 905 -9 q 903 -22 904 -19 q 900 -28 901 -24 q 897 -33 899 -31 q 892 -39 895 -35 q 885 -42 888 -40 q 879 -45 883 -44 q 874 -47 876 -46 q 867 -47 871 -47 q 857 -46 863 -49 q 847 -42 851 -45 q 842 -39 844 -41 q 839 -35 840 -37 l 844 -28 q 847 -26 845 -26 q 849 -24 849 -24 q 856 -23 851 -23 q 859 -23 858 -23 q 861 -24 860 -24 q 864 -24 863 -24 q 866 -25 865 -25 q 871 -24 869 -25 q 874 -23 873 -24 q 876 -22 874 -23 l 879 -19 q 881 -14 881 -17 q 881 -10 881 -14 l 878 -8 q 875 -7 878 -7 q 872 -6 874 -6 q 869 -6 871 -6 l 863 -6 q 858 -6 860 -6 q 852 -5 856 -6 q 842 -3 848 -5 q 837 -1 840 -2 q 833 2 835 1 q 826 13 830 6 q 825 19 825 16 q 825 24 825 22 q 826 30 826 28 q 829 35 827 33 q 832 41 831 39 q 837 44 834 42 q 847 50 842 48 q 851 51 849 51 q 856 52 853 52 q 860 51 858 52 q 865 51 862 51 q 868 50 866 50 q 874 48 870 49 q 877 46 875 47 q 880 44 878 46 l 876 37 q 874 32 875 35 q 870 31 872 31 q 867 31 869 31 q 865 30 867 30 l 861 30 l 858 30 q 856 28 856 30 m 918 -14 q 917 -11 918 -12 q 917 -9 917 -10 q 918 -4 917 -6 q 920 1 918 -3 q 924 4 921 3 q 927 5 926 5 q 930 6 928 5 q 932 5 931 6 q 935 5 933 5 q 939 2 938 3 q 942 -3 941 1 q 945 -8 945 -6 q 944 -12 945 -11 q 942 -15 942 -14 q 941 -17 942 -16 q 939 -19 940 -18 q 937 -21 938 -19 q 932 -22 933 -22 q 927 -22 928 -22 q 921 -19 924 -22 q 918 -14 919 -17 m 954 46 q 962 38 956 42 q 966 35 964 36 q 972 33 969 35 q 982 33 976 32 q 987 35 985 33 q 992 38 989 36 q 995 41 994 39 q 999 44 997 42 l 1003 50 q 1008 58 1004 55 q 1010 59 1009 59 q 1013 60 1012 59 l 1019 60 l 1027 58 q 1026 52 1026 55 q 1024 46 1025 49 q 1019 35 1023 42 q 1013 26 1017 30 q 1005 19 1008 22 q 998 16 1001 17 q 992 13 995 14 q 979 10 986 10 q 973 10 976 10 q 966 11 969 10 q 961 13 964 13 q 954 15 958 13 q 949 18 951 17 q 944 23 946 20 q 939 27 941 25 q 934 32 936 29 q 931 39 933 35 q 928 45 930 42 q 927 51 928 48 q 926 58 927 54 q 926 64 926 61 q 927 70 926 67 q 931 83 928 76 q 934 88 933 85 q 938 94 935 91 q 943 99 940 97 q 949 103 946 101 q 958 108 954 106 q 964 109 961 109 q 969 111 966 110 l 981 111 q 988 110 985 111 q 992 109 990 110 l 992 100 q 990 95 990 97 q 988 93 988 94 q 985 91 987 92 q 976 88 980 88 q 969 87 972 88 q 960 84 965 86 q 953 76 956 81 q 950 67 950 71 q 950 56 949 61 q 954 46 951 49 m 1013 85 q 1009 90 1010 88 q 1005 96 1007 92 q 1002 102 1003 99 q 1001 108 1001 105 q 999 115 999 112 q 999 121 999 117 q 1000 127 999 124 q 1001 134 1000 131 q 1003 140 1001 138 q 1006 147 1004 143 q 1009 151 1008 149 q 1014 156 1011 154 q 1019 161 1017 159 q 1025 165 1022 163 q 1031 168 1028 167 q 1037 169 1033 169 q 1043 171 1040 171 q 1049 171 1046 171 q 1056 171 1053 171 q 1063 169 1059 171 q 1069 168 1066 169 q 1075 165 1072 167 q 1081 161 1078 163 q 1086 156 1083 159 q 1090 151 1088 153 q 1094 145 1092 149 q 1096 140 1095 142 q 1099 133 1097 137 q 1099 127 1099 130 q 1099 120 1099 124 q 1098 108 1099 115 q 1096 102 1097 105 q 1093 96 1094 99 q 1085 85 1090 90 q 1080 80 1082 82 q 1074 77 1077 78 q 1068 74 1071 76 q 1062 72 1065 73 q 1049 70 1056 70 q 1036 72 1042 70 q 1030 74 1033 73 q 1024 77 1027 76 q 1019 81 1022 78 q 1013 85 1016 83 m 1030 101 q 1034 98 1032 99 q 1040 95 1037 97 q 1049 94 1044 94 q 1060 95 1057 94 q 1065 98 1063 96 q 1069 101 1067 99 q 1075 110 1074 106 q 1077 120 1077 115 q 1075 131 1077 125 q 1069 140 1074 135 q 1060 147 1065 144 q 1049 149 1056 149 q 1044 148 1047 149 q 1040 147 1042 148 q 1034 144 1037 146 q 1030 140 1032 143 q 1024 131 1026 138 q 1022 126 1022 129 q 1022 121 1022 124 q 1024 111 1022 114 q 1026 106 1025 108 q 1030 101 1028 103 m 1190 224 l 1178 203 l 1138 229 l 1166 187 l 1156 170 l 1106 179 l 1144 153 l 1131 134 l 1049 188 l 1058 201 q 1064 207 1060 205 q 1068 208 1066 208 q 1072 208 1071 208 l 1131 199 l 1098 247 q 1096 252 1097 250 q 1095 256 1095 253 q 1096 260 1095 258 q 1098 264 1097 262 l 1107 277 l 1190 224 m 231 645 l 226 632 l 133 667 l 146 699 q 151 710 148 706 q 162 717 156 716 q 167 719 165 719 q 173 720 169 720 q 179 720 176 720 q 185 719 182 719 q 195 711 192 716 q 200 707 199 710 q 202 702 201 705 q 204 696 203 699 q 206 691 205 693 q 203 678 206 685 l 197 658 l 231 645 m 191 683 q 191 686 191 685 q 192 690 192 688 q 191 693 192 692 q 190 697 191 694 q 189 699 190 698 q 186 702 188 701 q 181 706 184 704 q 177 706 179 706 q 174 706 175 706 q 170 706 172 706 q 167 705 169 706 q 165 703 166 703 q 162 701 163 703 q 158 695 159 697 l 151 674 l 183 663 l 191 683 m 281 753 l 251 699 l 165 747 l 194 800 l 206 793 l 183 752 l 208 738 l 227 772 l 239 766 l 220 733 l 246 717 l 269 759 l 281 753 m 294 771 l 286 760 l 208 820 l 228 849 q 233 852 231 850 q 238 856 235 854 q 243 858 240 858 q 248 860 245 859 q 253 860 251 860 q 259 859 256 860 q 269 853 265 858 q 273 850 272 852 q 276 847 274 849 q 278 843 277 845 q 280 840 279 841 q 281 834 281 836 q 281 830 281 832 q 279 822 281 826 l 331 820 l 326 813 q 321 808 324 810 q 317 807 319 808 q 315 806 316 806 l 271 808 l 262 796 l 294 771 m 226 823 l 251 804 l 264 822 q 266 824 265 823 q 267 827 266 826 l 267 833 q 267 835 267 834 q 265 839 266 837 q 261 842 263 842 q 256 845 258 845 q 250 846 254 846 q 247 845 249 845 q 244 844 246 845 q 240 840 242 843 l 226 823 m 303 903 q 299 903 300 903 q 296 902 297 903 q 292 899 294 901 q 288 894 290 897 q 286 889 286 892 l 286 884 q 289 880 287 882 q 293 876 291 877 l 297 876 q 303 878 299 876 q 307 880 306 879 q 312 881 309 880 q 314 883 313 882 q 316 883 315 883 q 322 885 317 884 q 326 888 324 885 q 328 888 327 888 q 331 888 329 888 q 353 880 344 890 q 360 869 360 876 q 361 863 361 865 q 362 858 362 861 q 360 851 361 854 q 358 845 360 848 q 355 839 357 842 q 351 835 352 837 q 329 824 342 826 l 325 824 q 321 826 323 826 q 318 826 319 826 q 317 826 317 826 q 316 827 316 826 q 315 827 316 827 l 316 831 q 317 833 317 832 q 318 835 317 834 q 326 839 324 839 l 328 839 q 335 840 331 839 q 342 844 338 841 q 343 847 343 846 q 345 850 344 849 q 347 858 347 853 q 347 864 349 860 q 346 867 347 866 q 344 870 345 869 q 338 874 342 874 q 331 874 334 876 q 325 872 327 874 q 317 868 319 870 q 308 865 315 867 q 302 863 305 863 q 298 863 299 863 q 288 863 291 863 q 283 866 286 865 q 279 870 281 867 q 273 880 274 874 q 272 890 272 886 q 276 900 274 897 q 281 909 277 903 q 289 913 285 913 q 296 916 292 916 q 304 917 303 917 q 311 917 309 917 l 310 913 q 308 906 310 910 q 303 903 306 903 m 344 900 q 341 906 343 903 q 339 913 340 909 q 335 925 335 919 q 335 932 335 928 q 335 938 335 935 q 338 945 337 942 q 340 951 339 948 q 343 956 342 954 q 347 962 345 958 q 358 970 351 966 q 369 976 363 975 q 383 978 376 978 q 396 978 389 981 q 401 977 399 978 q 407 974 403 976 q 413 971 410 973 q 419 967 416 969 q 423 963 422 965 q 428 957 425 960 q 431 951 429 954 q 433 945 433 949 q 436 933 436 939 q 436 919 438 926 q 434 913 435 916 q 432 907 433 910 q 424 896 428 900 q 420 891 422 894 q 415 888 418 889 q 397 880 405 881 q 376 880 386 877 q 367 882 372 881 q 358 886 363 884 q 344 900 350 892 m 356 908 q 366 898 359 901 q 379 893 372 894 q 394 893 386 891 q 406 899 401 894 q 417 909 414 903 q 420 915 419 913 q 422 922 421 918 q 422 937 423 929 q 420 943 421 940 q 416 949 419 946 q 406 960 413 956 q 393 965 399 965 q 379 965 385 967 q 365 959 372 964 q 355 949 359 955 q 352 942 353 945 q 349 935 351 939 q 349 922 348 929 q 352 915 351 918 q 356 908 353 912 m 474 924 l 460 918 l 423 1010 l 433 1014 q 438 1015 435 1015 q 442 1014 442 1015 l 518 965 l 519 965 q 519 963 519 963 q 521 962 521 963 q 522 962 521 962 l 490 1038 l 503 1042 l 540 951 l 531 947 q 525 947 528 947 q 519 947 522 947 l 446 996 q 444 996 444 996 q 443 997 444 997 q 442 999 443 998 q 442 999 442 999 l 442 1001 l 474 924 m 563 1058 l 576 1060 l 638 972 l 630 970 q 627 970 628 969 q 624 970 626 970 q 619 974 621 971 l 610 988 l 560 978 l 557 962 q 553 956 556 958 q 551 954 553 955 q 548 953 549 953 l 540 952 l 563 1058 m 573 1038 l 563 993 l 601 1001 l 576 1038 q 574 1040 574 1039 q 573 1043 574 1042 l 573 1040 l 573 1038 m 638 969 l 635 1069 l 648 1069 l 651 984 l 695 986 l 696 972 l 638 969 m 750 1006 q 750 995 749 1000 q 752 991 751 993 q 754 987 753 988 q 757 983 756 985 q 760 980 759 981 q 766 977 763 978 q 771 975 768 976 q 781 976 778 975 q 786 977 784 976 q 790 980 788 978 q 797 987 794 983 q 800 991 799 989 q 802 997 801 994 l 812 1056 l 826 1054 l 814 994 q 813 989 813 992 q 811 984 813 987 q 809 979 810 981 q 806 975 808 977 q 802 972 804 974 q 798 969 799 970 q 790 965 794 966 q 784 963 787 963 q 779 962 781 963 q 769 963 772 962 q 763 964 765 963 q 758 966 761 965 q 754 968 756 967 q 750 971 752 969 q 742 978 745 974 q 738 988 741 982 q 736 998 736 992 q 737 1008 736 1005 l 747 1067 l 760 1065 l 750 1006 m 878 1018 q 877 1020 878 1019 q 875 1023 876 1022 q 872 1024 874 1024 q 869 1025 871 1024 q 863 1026 867 1026 l 858 1026 q 853 1024 856 1024 q 851 1019 851 1022 q 851 1014 849 1016 q 852 1010 851 1011 q 853 1007 853 1008 q 856 1005 854 1006 q 863 1000 858 1003 q 865 998 864 999 q 867 996 865 997 q 869 994 868 995 q 871 992 869 993 q 873 991 872 992 q 875 989 874 990 q 876 987 876 988 q 878 985 876 986 q 881 962 885 974 q 877 956 879 958 q 874 951 876 953 q 868 947 871 949 q 863 944 866 945 q 851 942 858 942 q 845 942 848 942 q 839 943 842 942 q 820 959 826 949 q 819 961 820 960 q 817 963 818 962 q 817 965 817 964 q 817 967 817 965 q 816 969 816 967 l 816 972 l 820 973 q 825 972 823 973 q 831 967 829 971 l 831 966 q 833 963 833 964 q 835 960 834 962 q 840 958 838 959 q 843 956 841 957 q 846 956 844 956 q 849 956 848 956 q 853 956 851 956 q 857 956 856 956 q 863 960 862 958 q 867 966 867 963 q 867 973 869 970 q 867 976 867 974 q 865 978 866 977 q 863 981 864 980 q 860 984 862 983 q 858 986 859 985 q 853 988 856 987 q 850 992 852 990 q 847 996 848 994 q 843 999 844 997 q 840 1004 842 1001 q 838 1008 839 1006 q 837 1012 837 1010 q 839 1024 835 1017 q 844 1033 840 1029 q 853 1038 849 1038 q 859 1040 856 1040 q 863 1040 861 1040 q 869 1040 866 1040 q 875 1038 872 1039 q 881 1034 878 1038 q 888 1028 885 1031 q 890 1025 889 1026 q 892 1022 892 1024 q 893 1019 893 1020 q 894 1016 894 1017 l 890 1014 q 883 1014 887 1013 q 878 1018 880 1017 m 930 903 l 876 931 l 920 1019 l 974 991 l 969 978 l 927 1001 l 914 975 l 948 958 l 941 945 l 907 963 l 894 938 l 936 915 l 930 903 m 992 922 q 1003 931 997 929 q 1008 935 1005 933 q 1013 938 1010 936 q 1020 939 1017 939 q 1026 940 1023 939 q 1033 940 1030 940 q 1040 939 1036 940 q 1052 935 1046 938 q 1063 927 1057 933 q 1068 923 1065 925 q 1072 917 1071 920 q 1077 906 1076 912 q 1080 893 1080 900 q 1080 886 1080 890 q 1079 880 1080 883 q 1077 873 1078 876 q 1075 867 1076 870 q 1067 857 1072 860 q 1063 851 1065 853 q 1058 847 1060 849 q 1051 844 1054 845 q 1045 842 1049 842 q 1033 840 1039 840 q 1026 840 1029 840 q 1019 840 1023 840 q 1014 842 1017 841 q 1008 844 1011 842 q 1002 848 1004 846 q 996 851 999 849 q 989 859 992 856 q 984 867 986 863 q 981 877 983 872 q 979 886 980 881 q 982 906 979 897 q 992 922 985 916 m 1003 914 q 994 901 997 908 q 993 894 993 898 q 992 888 992 891 q 993 880 992 883 q 996 874 994 877 q 1000 867 999 870 q 1005 862 1002 864 q 1011 858 1008 859 q 1018 854 1015 856 q 1031 853 1026 852 q 1045 857 1040 853 q 1052 860 1049 858 q 1058 865 1055 863 q 1064 878 1063 871 q 1066 892 1067 884 q 1065 899 1066 895 q 1063 906 1065 902 q 1059 911 1061 909 q 1054 917 1057 914 q 1048 921 1051 919 q 1041 924 1044 923 q 1034 926 1038 926 q 1027 926 1031 926 q 1020 925 1024 926 q 1013 922 1017 924 q 1003 914 1007 919 m 1046 804 l 1038 814 l 1117 874 l 1124 865 q 1126 860 1126 862 l 1126 854 l 1097 771 q 1097 770 1097 770 q 1097 769 1097 770 q 1096 769 1097 769 q 1095 768 1095 769 l 1094 767 l 1160 815 l 1169 805 l 1090 746 l 1083 754 q 1080 759 1081 756 q 1081 764 1080 763 l 1109 849 q 1110 849 1109 849 q 1110 850 1110 849 l 1111 851 q 1113 853 1112 852 l 1046 804 m 1094 734 l 1183 779 l 1188 768 l 1113 728 l 1133 691 l 1120 684 l 1094 734 m 1131 656 l 1126 668 l 1165 683 q 1167 684 1167 684 q 1169 685 1169 685 q 1170 687 1169 687 q 1170 688 1170 688 q 1172 690 1172 688 l 1205 740 l 1207 732 q 1209 727 1208 729 q 1209 724 1209 725 q 1208 720 1208 722 q 1206 717 1207 719 l 1185 685 l 1183 683 l 1183 683 l 1184 683 q 1186 683 1184 683 l 1224 672 q 1227 670 1225 671 q 1230 668 1228 669 q 1233 663 1233 667 l 1237 653 l 1180 670 q 1178 671 1178 670 l 1175 671 l 1172 671 q 1169 670 1170 671 l 1131 656 z "},"9":{"ha":1385,"x_min":133,"x_max":1237,"o":"m 927 226 q 815 160 877 185 q 683 135 753 135 q 552 160 613 135 q 442 226 492 185 l 927 226 m 413 254 q 347 365 370 303 q 323 497 323 426 q 344 620 323 563 q 404 726 365 678 l 883 726 l 413 254 m 440 766 q 551 834 490 810 q 683 859 613 859 q 815 834 753 859 q 923 766 876 809 l 440 766 m 1044 497 q 1023 372 1044 430 q 963 265 1001 314 l 482 265 l 952 740 q 1021 623 998 683 q 1044 497 1044 563 m 800 76 q 743 65 772 69 q 683 60 715 60 q 565 76 622 60 q 460 122 508 92 q 372 191 411 151 q 305 280 333 231 q 262 383 277 328 q 247 497 247 438 q 263 615 247 558 q 308 721 278 672 q 377 809 337 769 q 466 876 417 849 q 570 919 515 904 q 683 935 625 935 q 858 899 778 935 q 996 802 938 863 q 1087 662 1054 741 q 1119 497 1119 583 q 1094 350 1119 418 q 1026 228 1069 282 q 925 135 983 174 q 800 76 867 97 m 789 883 q 739 895 765 891 q 683 899 713 899 q 574 884 626 899 q 477 842 522 869 q 397 778 433 815 q 336 696 361 740 q 297 601 310 651 q 283 497 283 550 q 297 392 283 442 q 337 296 311 341 q 399 214 363 251 q 479 150 435 177 q 575 109 524 124 q 683 94 627 94 q 839 125 766 94 q 967 211 913 157 q 1053 339 1022 266 q 1085 497 1085 413 q 1061 634 1085 570 q 997 747 1038 697 q 903 832 957 797 q 789 883 849 867 m 205 221 l 227 183 l 208 172 l 168 238 l 177 243 q 188 246 183 247 l 257 239 l 235 276 l 255 287 l 293 221 l 284 216 q 279 215 280 215 q 274 213 277 213 l 205 221 m 265 100 l 223 151 l 299 215 l 342 163 l 324 149 l 296 181 l 285 172 l 307 147 l 290 131 l 268 157 l 255 147 l 282 115 l 265 100 m 331 140 l 347 157 l 406 106 l 392 90 l 371 108 l 322 49 l 304 64 l 353 122 l 331 140 m 428 94 l 444 83 l 431 -23 l 417 -15 q 414 -12 416 -13 q 412 -9 412 -10 q 410 -5 410 -6 l 410 -1 l 412 11 l 379 31 l 369 24 q 368 23 369 23 q 366 22 367 23 l 362 22 q 359 22 360 22 q 358 22 358 22 q 355 23 356 23 q 353 24 353 23 l 340 31 l 428 94 m 419 60 q 418 59 418 59 q 416 58 415 58 q 415 56 415 56 q 415 56 415 56 l 400 45 l 415 35 l 417 54 q 417 55 417 55 q 418 56 418 56 q 418 58 418 58 q 419 58 419 58 q 419 59 419 59 q 419 60 419 60 m 522 6 l 513 -16 l 480 -3 l 467 -37 l 444 -28 l 481 63 l 542 40 l 535 19 l 494 33 l 489 19 l 522 6 m 529 -9 q 533 4 530 -3 q 541 14 538 8 q 545 19 543 17 q 550 23 548 21 q 556 26 553 25 q 563 28 559 27 q 569 30 565 30 q 576 31 572 31 q 582 31 579 31 q 589 30 585 31 q 595 28 592 28 q 601 26 599 27 q 613 19 608 22 q 617 14 615 16 q 621 9 619 12 q 626 -3 626 3 q 628 -10 628 -7 q 630 -16 629 -12 q 630 -23 630 -19 q 629 -29 630 -26 q 624 -42 628 -36 q 620 -48 622 -45 q 617 -53 619 -50 q 608 -61 614 -58 q 601 -64 604 -62 q 595 -67 599 -65 q 589 -69 592 -68 q 583 -69 586 -69 q 576 -69 579 -69 q 568 -68 573 -69 q 562 -67 565 -67 q 556 -65 560 -66 q 551 -61 553 -63 q 545 -57 548 -60 q 541 -52 542 -55 q 537 -47 539 -49 q 534 -42 535 -44 q 531 -36 532 -39 q 528 -23 529 -28 q 528 -16 528 -19 q 529 -9 528 -12 m 553 -14 q 553 -25 552 -20 q 554 -30 553 -27 q 556 -35 555 -32 q 563 -42 559 -39 q 568 -44 565 -44 q 574 -46 571 -45 q 584 -46 578 -48 q 594 -43 590 -45 q 601 -35 599 -39 q 604 -30 603 -32 q 606 -25 606 -27 q 606 -13 608 -19 q 601 -4 606 -10 q 598 0 600 -1 q 594 4 597 2 q 590 6 592 6 q 584 8 588 7 q 574 8 578 10 q 568 6 571 7 q 563 4 566 6 q 560 1 562 3 q 557 -4 558 -1 q 553 -14 554 -7 m 727 -78 l 706 -79 l 661 -13 l 662 -79 l 638 -80 l 637 19 l 647 19 l 656 19 q 663 19 661 19 q 666 15 665 17 l 701 -34 q 701 -35 701 -35 q 702 -37 701 -36 q 703 -39 702 -38 q 703 -40 703 -39 q 704 -43 703 -42 l 702 20 l 726 20 l 727 -78 m 738 -1 l 734 22 l 812 35 l 816 14 l 789 8 l 803 -66 l 781 -70 l 767 4 l 738 -1 m 856 28 q 851 27 853 28 q 849 26 849 27 q 848 23 848 23 q 849 22 848 22 q 851 19 849 19 q 852 18 851 19 q 853 17 852 17 l 860 17 l 867 17 q 874 17 871 17 q 880 17 876 17 q 884 15 883 15 q 889 13 886 15 q 897 7 894 10 q 902 -3 901 4 q 904 -15 905 -9 q 903 -22 904 -19 q 900 -28 901 -24 q 897 -33 899 -31 q 892 -39 895 -35 q 885 -42 888 -40 q 879 -45 883 -44 q 874 -47 876 -46 q 867 -47 871 -47 q 857 -46 863 -49 q 847 -42 851 -45 q 842 -39 844 -41 q 839 -35 840 -37 l 844 -28 q 847 -26 845 -26 q 849 -24 849 -24 q 856 -23 851 -23 q 859 -23 858 -23 q 861 -24 860 -24 q 864 -24 863 -24 q 866 -25 865 -25 q 871 -24 869 -25 q 874 -23 873 -24 q 876 -22 874 -23 l 879 -19 q 881 -14 881 -17 q 881 -10 881 -14 l 878 -8 q 875 -7 878 -7 q 872 -6 874 -6 q 869 -6 871 -6 l 863 -6 q 858 -6 860 -6 q 852 -5 856 -6 q 842 -3 848 -5 q 837 -1 840 -2 q 833 2 835 1 q 826 13 830 6 q 825 19 825 16 q 825 24 825 22 q 826 30 826 28 q 829 35 827 33 q 832 41 831 39 q 837 44 834 42 q 847 50 842 48 q 851 51 849 51 q 856 52 853 52 q 860 51 858 52 q 865 51 862 51 q 868 50 866 50 q 874 48 870 49 q 877 46 875 47 q 880 44 878 46 l 876 37 q 874 32 875 35 q 870 31 872 31 q 867 31 869 31 q 865 30 867 30 l 861 30 l 858 30 q 856 28 856 30 m 918 -14 q 917 -11 918 -12 q 917 -9 917 -10 q 918 -4 917 -6 q 920 1 918 -3 q 924 4 921 3 q 927 5 926 5 q 930 6 928 5 q 932 5 931 6 q 935 5 933 5 q 939 2 938 3 q 942 -3 941 1 q 945 -8 945 -6 q 944 -12 945 -11 q 942 -15 942 -14 q 941 -17 942 -16 q 939 -19 940 -18 q 937 -21 938 -19 q 932 -22 933 -22 q 927 -22 928 -22 q 921 -19 924 -22 q 918 -14 919 -17 m 954 46 q 962 38 956 42 q 966 35 964 36 q 972 33 969 35 q 982 33 976 32 q 987 35 985 33 q 992 38 989 36 q 995 41 994 39 q 999 44 997 42 l 1003 50 q 1008 58 1004 55 q 1010 59 1009 59 q 1013 60 1012 59 l 1019 60 l 1027 58 q 1026 52 1026 55 q 1024 46 1025 49 q 1019 35 1023 42 q 1013 26 1017 30 q 1005 19 1008 22 q 998 16 1001 17 q 992 13 995 14 q 979 10 986 10 q 973 10 976 10 q 966 11 969 10 q 961 13 964 13 q 954 15 958 13 q 949 18 951 17 q 944 23 946 20 q 939 27 941 25 q 934 32 936 29 q 931 39 933 35 q 928 45 930 42 q 927 51 928 48 q 926 58 927 54 q 926 64 926 61 q 927 70 926 67 q 931 83 928 76 q 934 88 933 85 q 938 94 935 91 q 943 99 940 97 q 949 103 946 101 q 958 108 954 106 q 964 109 961 109 q 969 111 966 110 l 981 111 q 988 110 985 111 q 992 109 990 110 l 992 100 q 990 95 990 97 q 988 93 988 94 q 985 91 987 92 q 976 88 980 88 q 969 87 972 88 q 960 84 965 86 q 953 76 956 81 q 950 67 950 71 q 950 56 949 61 q 954 46 951 49 m 1013 85 q 1009 90 1010 88 q 1005 96 1007 92 q 1002 102 1003 99 q 1001 108 1001 105 q 999 115 999 112 q 999 121 999 117 q 1000 127 999 124 q 1001 134 1000 131 q 1003 140 1001 138 q 1006 147 1004 143 q 1009 151 1008 149 q 1014 156 1011 154 q 1019 161 1017 159 q 1025 165 1022 163 q 1031 168 1028 167 q 1037 169 1033 169 q 1043 171 1040 171 q 1049 171 1046 171 q 1056 171 1053 171 q 1063 169 1059 171 q 1069 168 1066 169 q 1075 165 1072 167 q 1081 161 1078 163 q 1086 156 1083 159 q 1090 151 1088 153 q 1094 145 1092 149 q 1096 140 1095 142 q 1099 133 1097 137 q 1099 127 1099 130 q 1099 120 1099 124 q 1098 108 1099 115 q 1096 102 1097 105 q 1093 96 1094 99 q 1085 85 1090 90 q 1080 80 1082 82 q 1074 77 1077 78 q 1068 74 1071 76 q 1062 72 1065 73 q 1049 70 1056 70 q 1036 72 1042 70 q 1030 74 1033 73 q 1024 77 1027 76 q 1019 81 1022 78 q 1013 85 1016 83 m 1030 101 q 1034 98 1032 99 q 1040 95 1037 97 q 1049 94 1044 94 q 1060 95 1057 94 q 1065 98 1063 96 q 1069 101 1067 99 q 1075 110 1074 106 q 1077 120 1077 115 q 1075 131 1077 125 q 1069 140 1074 135 q 1060 147 1065 144 q 1049 149 1056 149 q 1044 148 1047 149 q 1040 147 1042 148 q 1034 144 1037 146 q 1030 140 1032 143 q 1024 131 1026 138 q 1022 126 1022 129 q 1022 121 1022 124 q 1024 111 1022 114 q 1026 106 1025 108 q 1030 101 1028 103 m 1190 224 l 1178 203 l 1138 229 l 1166 187 l 1156 170 l 1106 179 l 1144 153 l 1131 134 l 1049 188 l 1058 201 q 1064 207 1060 205 q 1068 208 1066 208 q 1072 208 1071 208 l 1131 199 l 1098 247 q 1096 252 1097 250 q 1095 256 1095 253 q 1096 260 1095 258 q 1098 264 1097 262 l 1107 277 l 1190 224 m 231 645 l 226 632 l 133 667 l 146 699 q 151 710 148 706 q 162 717 156 716 q 167 719 165 719 q 173 720 169 720 q 179 720 176 720 q 185 719 182 719 q 195 711 192 716 q 200 707 199 710 q 202 702 201 705 q 204 696 203 699 q 206 691 205 693 q 203 678 206 685 l 197 658 l 231 645 m 191 683 q 191 686 191 685 q 192 690 192 688 q 191 693 192 692 q 190 697 191 694 q 189 699 190 698 q 186 702 188 701 q 181 706 184 704 q 177 706 179 706 q 174 706 175 706 q 170 706 172 706 q 167 705 169 706 q 165 703 166 703 q 162 701 163 703 q 158 695 159 697 l 151 674 l 183 663 l 191 683 m 281 753 l 251 699 l 165 747 l 194 800 l 206 793 l 183 752 l 208 738 l 227 772 l 239 766 l 220 733 l 246 717 l 269 759 l 281 753 m 294 771 l 286 760 l 208 820 l 228 849 q 233 852 231 850 q 238 856 235 854 q 243 858 240 858 q 248 860 245 859 q 253 860 251 860 q 259 859 256 860 q 269 853 265 858 q 273 850 272 852 q 276 847 274 849 q 278 843 277 845 q 280 840 279 841 q 281 834 281 836 q 281 830 281 832 q 279 822 281 826 l 331 820 l 326 813 q 321 808 324 810 q 317 807 319 808 q 315 806 316 806 l 271 808 l 262 796 l 294 771 m 226 823 l 251 804 l 264 822 q 266 824 265 823 q 267 827 266 826 l 267 833 q 267 835 267 834 q 265 839 266 837 q 261 842 263 842 q 256 845 258 845 q 250 846 254 846 q 247 845 249 845 q 244 844 246 845 q 240 840 242 843 l 226 823 m 303 903 q 299 903 300 903 q 296 902 297 903 q 292 899 294 901 q 288 894 290 897 q 286 889 286 892 l 286 884 q 289 880 287 882 q 293 876 291 877 l 297 876 q 303 878 299 876 q 307 880 306 879 q 312 881 309 880 q 314 883 313 882 q 316 883 315 883 q 322 885 317 884 q 326 888 324 885 q 328 888 327 888 q 331 888 329 888 q 353 880 344 890 q 360 869 360 876 q 361 863 361 865 q 362 858 362 861 q 360 851 361 854 q 358 845 360 848 q 355 839 357 842 q 351 835 352 837 q 329 824 342 826 l 325 824 q 321 826 323 826 q 318 826 319 826 q 317 826 317 826 q 316 827 316 826 q 315 827 316 827 l 316 831 q 317 833 317 832 q 318 835 317 834 q 326 839 324 839 l 328 839 q 335 840 331 839 q 342 844 338 841 q 343 847 343 846 q 345 850 344 849 q 347 858 347 853 q 347 864 349 860 q 346 867 347 866 q 344 870 345 869 q 338 874 342 874 q 331 874 334 876 q 325 872 327 874 q 317 868 319 870 q 308 865 315 867 q 302 863 305 863 q 298 863 299 863 q 288 863 291 863 q 283 866 286 865 q 279 870 281 867 q 273 880 274 874 q 272 890 272 886 q 276 900 274 897 q 281 909 277 903 q 289 913 285 913 q 296 916 292 916 q 304 917 303 917 q 311 917 309 917 l 310 913 q 308 906 310 910 q 303 903 306 903 m 344 900 q 341 906 343 903 q 339 913 340 909 q 335 925 335 919 q 335 932 335 928 q 335 938 335 935 q 338 945 337 942 q 340 951 339 948 q 343 956 342 954 q 347 962 345 958 q 358 970 351 966 q 369 976 363 975 q 383 978 376 978 q 396 978 389 981 q 401 977 399 978 q 407 974 403 976 q 413 971 410 973 q 419 967 416 969 q 423 963 422 965 q 428 957 425 960 q 431 951 429 954 q 433 945 433 949 q 436 933 436 939 q 436 919 438 926 q 434 913 435 916 q 432 907 433 910 q 424 896 428 900 q 420 891 422 894 q 415 888 418 889 q 397 880 405 881 q 376 880 386 877 q 367 882 372 881 q 358 886 363 884 q 344 900 350 892 m 356 908 q 366 898 359 901 q 379 893 372 894 q 394 893 386 891 q 406 899 401 894 q 417 909 414 903 q 420 915 419 913 q 422 922 421 918 q 422 937 423 929 q 420 943 421 940 q 416 949 419 946 q 406 960 413 956 q 393 965 399 965 q 379 965 385 967 q 365 959 372 964 q 355 949 359 955 q 352 942 353 945 q 349 935 351 939 q 349 922 348 929 q 352 915 351 918 q 356 908 353 912 m 474 924 l 460 918 l 423 1010 l 433 1014 q 438 1015 435 1015 q 442 1014 442 1015 l 518 965 l 519 965 q 519 963 519 963 q 521 962 521 963 q 522 962 521 962 l 490 1038 l 503 1042 l 540 951 l 531 947 q 525 947 528 947 q 519 947 522 947 l 446 996 q 444 996 444 996 q 443 997 444 997 q 442 999 443 998 q 442 999 442 999 l 442 1001 l 474 924 m 563 1058 l 576 1060 l 638 972 l 630 970 q 627 970 628 969 q 624 970 626 970 q 619 974 621 971 l 610 988 l 560 978 l 557 962 q 553 956 556 958 q 551 954 553 955 q 548 953 549 953 l 540 952 l 563 1058 m 573 1038 l 563 993 l 601 1001 l 576 1038 q 574 1040 574 1039 q 573 1043 574 1042 l 573 1040 l 573 1038 m 638 969 l 635 1069 l 648 1069 l 651 984 l 695 986 l 696 972 l 638 969 m 750 1006 q 750 995 749 1000 q 752 991 751 993 q 754 987 753 988 q 757 983 756 985 q 760 980 759 981 q 766 977 763 978 q 771 975 768 976 q 781 976 778 975 q 786 977 784 976 q 790 980 788 978 q 797 987 794 983 q 800 991 799 989 q 802 997 801 994 l 812 1056 l 826 1054 l 814 994 q 813 989 813 992 q 811 984 813 987 q 809 979 810 981 q 806 975 808 977 q 802 972 804 974 q 798 969 799 970 q 790 965 794 966 q 784 963 787 963 q 779 962 781 963 q 769 963 772 962 q 763 964 765 963 q 758 966 761 965 q 754 968 756 967 q 750 971 752 969 q 742 978 745 974 q 738 988 741 982 q 736 998 736 992 q 737 1008 736 1005 l 747 1067 l 760 1065 l 750 1006 m 878 1018 q 877 1020 878 1019 q 875 1023 876 1022 q 872 1024 874 1024 q 869 1025 871 1024 q 863 1026 867 1026 l 858 1026 q 853 1024 856 1024 q 851 1019 851 1022 q 851 1014 849 1016 q 852 1010 851 1011 q 853 1007 853 1008 q 856 1005 854 1006 q 863 1000 858 1003 q 865 998 864 999 q 867 996 865 997 q 869 994 868 995 q 871 992 869 993 q 873 991 872 992 q 875 989 874 990 q 876 987 876 988 q 878 985 876 986 q 881 962 885 974 q 877 956 879 958 q 874 951 876 953 q 868 947 871 949 q 863 944 866 945 q 851 942 858 942 q 845 942 848 942 q 839 943 842 942 q 820 959 826 949 q 819 961 820 960 q 817 963 818 962 q 817 965 817 964 q 817 967 817 965 q 816 969 816 967 l 816 972 l 820 973 q 825 972 823 973 q 831 967 829 971 l 831 966 q 833 963 833 964 q 835 960 834 962 q 840 958 838 959 q 843 956 841 957 q 846 956 844 956 q 849 956 848 956 q 853 956 851 956 q 857 956 856 956 q 863 960 862 958 q 867 966 867 963 q 867 973 869 970 q 867 976 867 974 q 865 978 866 977 q 863 981 864 980 q 860 984 862 983 q 858 986 859 985 q 853 988 856 987 q 850 992 852 990 q 847 996 848 994 q 843 999 844 997 q 840 1004 842 1001 q 838 1008 839 1006 q 837 1012 837 1010 q 839 1024 835 1017 q 844 1033 840 1029 q 853 1038 849 1038 q 859 1040 856 1040 q 863 1040 861 1040 q 869 1040 866 1040 q 875 1038 872 1039 q 881 1034 878 1038 q 888 1028 885 1031 q 890 1025 889 1026 q 892 1022 892 1024 q 893 1019 893 1020 q 894 1016 894 1017 l 890 1014 q 883 1014 887 1013 q 878 1018 880 1017 m 930 903 l 876 931 l 920 1019 l 974 991 l 969 978 l 927 1001 l 914 975 l 948 958 l 941 945 l 907 963 l 894 938 l 936 915 l 930 903 m 992 922 q 1003 931 997 929 q 1008 935 1005 933 q 1013 938 1010 936 q 1020 939 1017 939 q 1026 940 1023 939 q 1033 940 1030 940 q 1040 939 1036 940 q 1052 935 1046 938 q 1063 927 1057 933 q 1068 923 1065 925 q 1072 917 1071 920 q 1077 906 1076 912 q 1080 893 1080 900 q 1080 886 1080 890 q 1079 880 1080 883 q 1077 873 1078 876 q 1075 867 1076 870 q 1067 857 1072 860 q 1063 851 1065 853 q 1058 847 1060 849 q 1051 844 1054 845 q 1045 842 1049 842 q 1033 840 1039 840 q 1026 840 1029 840 q 1019 840 1023 840 q 1014 842 1017 841 q 1008 844 1011 842 q 1002 848 1004 846 q 996 851 999 849 q 989 859 992 856 q 984 867 986 863 q 981 877 983 872 q 979 886 980 881 q 982 906 979 897 q 992 922 985 916 m 1003 914 q 994 901 997 908 q 993 894 993 898 q 992 888 992 891 q 993 880 992 883 q 996 874 994 877 q 1000 867 999 870 q 1005 862 1002 864 q 1011 858 1008 859 q 1018 854 1015 856 q 1031 853 1026 852 q 1045 857 1040 853 q 1052 860 1049 858 q 1058 865 1055 863 q 1064 878 1063 871 q 1066 892 1067 884 q 1065 899 1066 895 q 1063 906 1065 902 q 1059 911 1061 909 q 1054 917 1057 914 q 1048 921 1051 919 q 1041 924 1044 923 q 1034 926 1038 926 q 1027 926 1031 926 q 1020 925 1024 926 q 1013 922 1017 924 q 1003 914 1007 919 m 1046 804 l 1038 814 l 1117 874 l 1124 865 q 1126 860 1126 862 l 1126 854 l 1097 771 q 1097 770 1097 770 q 1097 769 1097 770 q 1096 769 1097 769 q 1095 768 1095 769 l 1094 767 l 1160 815 l 1169 805 l 1090 746 l 1083 754 q 1080 759 1081 756 q 1081 764 1080 763 l 1109 849 q 1110 849 1109 849 q 1110 850 1110 849 l 1111 851 q 1113 853 1112 852 l 1046 804 m 1094 734 l 1183 779 l 1188 768 l 1113 728 l 1133 691 l 1120 684 l 1094 734 m 1131 656 l 1126 668 l 1165 683 q 1167 684 1167 684 q 1169 685 1169 685 q 1170 687 1169 687 q 1170 688 1170 688 q 1172 690 1172 688 l 1205 740 l 1207 732 q 1209 727 1208 729 q 1209 724 1209 725 q 1208 720 1208 722 q 1206 717 1207 719 l 1185 685 l 1183 683 l 1183 683 l 1184 683 q 1186 683 1184 683 l 1224 672 q 1227 670 1225 671 q 1230 668 1228 669 q 1233 663 1233 667 l 1237 653 l 1180 670 q 1178 671 1178 670 l 1175 671 l 1172 671 q 1169 670 1170 671 l 1131 656 z "},"\u0000":{"ha":0,"x_min":0,"x_max":0,"o":""},"\r":{"ha":435,"x_min":0,"x_max":0,"o":""}," ":{"ha":435,"x_min":0,"x_max":0,"o":""},"J":{"ha":495,"x_min":-150,"x_max":382,"o":"m 180 1003 q 208 1031 180 1029 l 348 1031 q 382 998 382 1031 l 382 56 q 376 -26 382 13 q 342 -124 368 -79 q 278 -202 317 -169 q 190 -253 240 -235 q 87 -272 141 -272 q -27 -251 27 -272 q -120 -189 -81 -231 q -129 -181 -124 -185 q -139 -170 -134 -176 q -147 -160 -144 -165 q -150 -150 -150 -154 q -147 -137 -150 -144 q -139 -123 -144 -130 q -127 -108 -133 -115 q -116 -97 -122 -101 l -52 -38 q -42 -32 -47 -34 q -32 -30 -37 -31 q -12 -38 -22 -30 q 9 -55 -3 -46 q 38 -73 22 -65 q 80 -81 55 -81 q 116 -72 98 -81 q 148 -50 134 -64 q 171 -19 163 -37 q 180 17 180 -1 l 180 1003 z "},"K":{"ha":1041,"x_min":113,"x_max":1018,"o":"m 113 1001 q 120 1022 113 1013 q 143 1031 128 1031 l 284 1031 q 295 1029 289 1031 q 306 1023 301 1027 q 314 1013 310 1019 q 317 1001 317 1008 l 317 588 l 707 1010 q 738 1031 721 1031 l 936 1031 q 955 1023 955 1031 q 947 1008 955 1017 l 580 581 l 1008 28 q 1018 8 1018 14 q 1003 0 1018 0 l 792 0 q 762 22 776 0 l 435 438 l 317 315 l 317 31 q 284 0 317 0 l 143 0 q 113 31 113 0 l 113 1001 z "},"L":{"ha":808,"x_min":114,"x_max":781,"o":"m 114 1001 q 122 1022 114 1013 q 146 1031 131 1031 l 284 1031 q 306 1023 297 1031 q 315 1001 315 1015 l 315 190 l 750 190 q 772 182 763 190 q 781 158 781 173 l 781 31 q 772 9 781 19 q 750 0 764 0 l 144 0 q 114 31 114 0 l 114 1001 z "},"M":{"ha":1310,"x_min":67,"x_max":1245,"o":"m 171 1001 q 181 1023 172 1014 q 204 1031 190 1031 l 378 1031 q 410 1005 402 1031 l 655 322 q 779 663 717 494 q 902 1005 841 833 q 934 1031 912 1031 l 1108 1031 q 1131 1022 1122 1031 q 1140 1001 1140 1013 q 1192 515 1166 757 q 1245 31 1219 274 l 1245 28 q 1215 0 1245 0 l 1080 0 q 1047 31 1049 0 l 976 688 l 745 49 q 734 31 742 39 q 718 22 726 22 l 593 22 q 576 30 584 22 q 565 49 569 38 q 451 367 508 209 q 335 687 393 526 l 264 31 q 232 0 264 0 l 97 0 q 67 31 67 0 l 171 1001 z "},"P":{"ha":910,"x_min":106,"x_max":852,"o":"m 106 999 q 137 1031 106 1031 l 531 1031 q 660 1004 601 1031 q 762 931 719 976 q 828 825 805 885 q 852 701 852 766 q 829 580 852 638 q 764 475 806 521 q 663 402 722 430 q 535 375 605 375 l 307 375 l 307 30 q 276 0 307 0 l 136 0 q 106 30 106 0 l 106 999 m 649 703 q 638 759 649 731 q 608 807 627 786 q 561 842 588 828 q 502 855 534 855 l 307 855 l 307 551 l 502 551 q 560 563 533 551 q 607 597 588 576 q 638 645 627 618 q 649 703 649 673 z "},"R":{"ha":966,"x_min":113,"x_max":914,"o":"m 113 999 q 143 1031 113 1031 l 568 1031 q 699 1005 638 1031 q 806 933 760 978 q 877 827 851 888 q 903 697 903 766 q 890 606 903 649 q 853 524 877 562 q 797 457 830 487 q 725 406 765 426 l 906 49 q 910 35 907 42 q 914 21 914 28 q 890 0 914 0 l 728 0 q 695 26 703 0 l 527 359 q 503 359 516 359 q 468 358 490 358 q 409 358 445 358 q 315 358 372 358 l 315 30 q 283 0 315 0 l 143 0 q 121 7 129 0 q 113 30 113 15 l 113 999 m 698 697 q 687 755 698 726 q 656 805 676 783 q 608 841 635 827 q 547 857 580 855 q 500 858 523 858 q 451 858 476 858 l 315 858 l 315 535 l 498 535 q 524 535 512 535 q 550 537 536 535 q 610 552 583 539 q 657 587 638 565 q 687 637 676 609 q 698 697 698 665 z "},"S":{"ha":917,"x_min":64,"x_max":855,"o":"m 699 756 q 683 761 690 756 q 665 773 675 765 l 664 774 q 630 803 651 787 q 583 833 609 819 q 528 856 558 847 q 468 866 499 866 q 399 857 429 866 q 349 834 369 849 q 319 799 329 819 q 308 756 308 778 q 324 712 308 731 q 366 678 340 693 q 428 652 393 664 q 501 628 463 640 q 588 599 544 615 q 670 565 631 584 q 743 523 709 546 q 802 469 777 499 q 841 402 826 439 q 855 318 855 365 q 824 181 855 242 q 740 77 794 120 q 614 10 686 33 q 458 -13 541 -13 q 351 -1 404 -13 q 250 35 299 12 q 158 90 201 58 q 81 163 115 122 l 81 162 l 79 165 q 64 197 64 182 q 68 211 64 204 q 81 226 72 218 l 103 249 q 126 269 114 258 q 149 290 138 281 q 171 305 161 299 q 188 311 181 311 q 206 305 197 311 q 219 293 214 299 l 222 290 l 222 290 q 276 247 246 267 q 338 209 306 226 q 402 184 370 193 q 461 174 433 174 q 533 184 499 174 q 590 211 566 194 q 628 254 615 229 q 642 310 642 279 q 624 362 642 340 q 577 400 606 384 q 511 428 548 417 q 438 451 475 440 q 290 506 353 476 q 184 573 226 536 q 120 657 142 610 q 99 760 99 703 q 125 878 99 825 q 199 969 151 931 q 315 1028 247 1007 q 465 1049 382 1049 q 594 1030 528 1049 q 715 975 659 1010 q 749 951 731 965 q 781 925 766 938 q 805 898 795 911 q 814 876 814 885 q 810 859 814 868 q 799 844 806 851 l 778 822 l 778 822 q 757 799 768 811 q 735 778 746 788 q 715 763 724 769 q 699 756 706 756 z "},"T":{"ha":893,"x_min":47,"x_max":843,"o":"m 47 1001 q 56 1023 47 1015 q 78 1031 65 1031 l 809 1031 q 832 1024 822 1031 q 843 1001 842 1016 l 843 879 q 834 855 843 865 q 809 844 826 844 l 545 844 l 545 32 q 536 10 545 19 q 513 0 528 0 l 376 0 q 353 9 363 0 q 343 32 343 18 l 343 844 l 78 844 q 56 853 65 844 q 47 879 47 862 l 47 1001 z "},"A":{"ha":1042,"x_min":41,"x_max":1007,"o":"m 42 26 q 50 51 45 40 q 58 73 54 63 l 432 1005 q 443 1022 434 1013 q 469 1031 453 1031 l 581 1031 q 605 1023 597 1031 q 615 1008 612 1015 l 638 954 l 1005 37 q 1006 30 1005 35 q 1007 21 1007 24 q 976 0 1007 0 l 840 0 q 816 6 824 0 q 802 26 808 13 l 790 58 q 763 124 776 91 q 738 192 750 158 l 309 192 q 274 100 291 143 q 245 26 257 58 q 209 0 235 0 l 70 0 q 49 5 57 0 q 41 19 41 10 q 42 26 41 24 m 525 767 q 450 568 488 671 q 376 370 413 465 l 672 370 l 525 767 z "},"U":{"ha":1060,"x_min":103,"x_max":967,"o":"m 306 419 q 322 314 306 360 q 369 235 339 267 q 441 186 399 203 q 535 169 483 169 q 632 187 589 169 q 705 238 675 205 q 750 317 734 271 q 765 419 765 363 l 765 1001 q 774 1022 765 1013 q 797 1031 783 1031 l 932 1031 q 957 1022 947 1031 q 967 1001 967 1013 l 967 411 q 932 223 967 303 q 838 90 897 143 q 701 10 779 36 q 535 -17 622 -17 q 369 11 447 -17 q 231 94 290 40 q 138 228 172 148 q 103 411 103 308 l 103 1001 q 111 1022 103 1012 q 131 1031 119 1031 l 273 1031 q 294 1022 283 1031 q 306 1001 306 1013 l 306 419 z "},"V":{"ha":1010,"x_min":26,"x_max":985,"o":"m 419 20 q 405 50 411 35 q 392 81 399 65 l 28 994 q 27 1000 28 996 q 26 1009 26 1003 q 54 1031 26 1031 l 203 1031 q 239 1005 229 1031 q 276 902 254 961 q 323 778 298 844 q 373 644 347 713 q 424 510 399 575 q 470 389 449 446 q 506 292 491 333 q 542 389 521 333 q 586 510 563 446 q 636 644 610 575 q 686 778 662 713 q 732 902 710 844 q 770 1005 754 961 q 808 1031 780 1031 l 953 1031 q 985 1008 985 1031 q 984 999 985 1003 q 983 994 983 995 l 619 81 q 608 52 613 67 q 595 25 602 38 q 569 3 585 7 q 531 0 553 0 l 451 0 q 429 6 435 0 q 419 20 422 13 z "},"W":{"ha":1488,"x_min":27,"x_max":1461,"o":"m 422 20 q 408 49 415 34 q 396 77 401 63 q 213 539 304 309 q 29 999 122 768 q 28 1005 29 1002 q 27 1010 27 1008 q 53 1031 27 1031 l 204 1031 q 239 1003 228 1031 l 508 288 l 768 1010 q 797 1031 775 1031 l 955 1031 q 978 1025 972 1031 q 984 1009 984 1019 l 984 999 l 842 631 l 974 288 l 1249 1005 q 1286 1031 1258 1031 l 1431 1031 q 1455 1025 1448 1031 q 1461 1009 1461 1019 q 1460 1003 1461 1005 l 1460 1001 q 1262 514 1363 756 q 1063 28 1161 272 q 1060 21 1063 26 q 1053 11 1058 16 q 1042 3 1049 7 q 1028 0 1036 0 l 919 0 q 894 7 903 0 q 884 24 886 15 q 812 203 848 114 q 740 382 776 292 l 605 46 q 598 30 602 38 q 589 15 594 22 q 577 4 584 8 q 563 0 571 0 l 453 0 q 433 6 441 0 q 422 20 425 13 z "},"X":{"ha":971,"x_min":28,"x_max":928,"o":"m 31 24 q 45 47 38 35 q 60 70 52 58 l 365 521 q 198 768 281 646 q 42 999 116 890 l 39 1004 q 33 1020 33 1015 q 40 1029 33 1028 q 58 1031 48 1030 l 222 1031 q 247 1025 237 1031 q 267 1003 257 1018 l 478 690 l 690 1003 q 711 1025 701 1018 q 736 1031 721 1031 l 901 1031 q 918 1028 913 1031 q 924 1019 924 1026 q 915 1000 924 1013 q 758 768 841 891 q 591 521 674 646 l 919 36 q 927 20 925 26 q 928 10 928 13 q 913 0 928 0 l 738 0 q 722 3 728 0 q 708 13 715 7 q 696 28 702 19 q 683 49 690 38 q 580 201 631 125 q 478 353 530 276 q 368 189 422 271 q 258 26 313 108 q 219 0 243 0 l 43 0 q 28 10 28 0 q 29 18 28 13 q 31 24 31 24 z "},"Y":{"ha":924,"x_min":16,"x_max":903,"o":"m 458 611 l 460 611 l 670 1009 q 683 1027 678 1024 q 699 1031 689 1029 l 890 1031 q 903 1019 903 1031 q 894 1002 903 1013 q 728 715 810 860 q 560 428 645 570 l 560 33 q 528 0 560 0 l 387 0 q 358 33 358 0 l 358 426 l 24 1001 q 18 1011 20 1004 q 16 1021 16 1017 q 29 1031 16 1031 l 219 1031 q 228 1030 225 1030 q 235 1027 232 1029 q 241 1020 238 1025 q 249 1006 244 1015 l 458 611 z "},"Z":{"ha":971,"x_min":45,"x_max":875,"o":"m 83 0 q 56 11 67 0 q 45 40 45 22 l 45 144 l 45 147 q 53 169 45 158 l 592 840 l 90 840 q 61 850 72 840 q 51 878 51 860 l 51 994 q 61 1022 51 1012 q 90 1031 72 1031 l 834 1031 q 862 1021 850 1031 q 874 993 874 1011 l 874 892 q 873 880 874 885 q 867 867 872 874 l 327 190 l 837 190 q 864 181 853 190 q 875 153 875 172 l 875 40 q 864 13 875 26 q 837 0 853 0 l 83 0 z "},"|":{"ha":388,"x_min":110,"x_max":274,"o":"m 110 1013 q 117 1034 110 1025 q 140 1043 125 1043 l 241 1043 q 264 1035 253 1043 q 274 1013 274 1026 l 274 -248 q 241 -278 274 -278 l 140 -278 q 110 -248 110 -278 l 110 1013 z "},"":{"ha":415,"x_min":128,"x_max":290,"o":"m 128 1013 q 136 1035 128 1026 q 159 1044 144 1044 l 257 1044 q 280 1035 269 1044 q 290 1013 290 1027 l 290 495 q 257 465 290 465 l 159 465 q 128 495 128 465 l 128 1013 m 128 269 q 136 290 128 281 q 159 299 144 299 l 257 299 q 280 291 269 299 q 290 269 290 283 l 290 -249 q 257 -280 290 -280 l 159 -280 q 128 -249 128 -280 l 128 269 z "},"[":{"ha":479,"x_min":111,"x_max":422,"o":"m 111 1135 q 142 1166 111 1166 l 392 1166 q 422 1135 422 1165 l 422 1017 q 414 993 422 1001 q 392 985 406 985 l 303 985 l 303 -14 l 392 -14 q 414 -23 405 -14 q 422 -47 422 -31 l 422 -165 q 392 -195 422 -194 l 142 -195 q 111 -165 111 -195 l 111 1135 z "},"]":{"ha":479,"x_min":-9,"x_max":302,"o":"m 302 -168 q 272 -199 302 -199 l 22 -199 q -9 -168 -8 -198 l -9 -49 q 0 -26 -9 -35 q 22 -17 10 -17 l 111 -17 l 111 982 l 22 982 q -1 990 8 982 q -9 1014 -9 999 l -9 1133 q -1 1155 -9 1147 q 22 1163 8 1163 l 272 1163 q 302 1133 302 1163 l 302 -168 z "},"{":{"ha":581,"x_min":54,"x_max":498,"o":"m 166 902 q 185 1011 166 960 q 239 1102 205 1063 q 319 1167 273 1142 q 421 1201 366 1193 q 442 1203 431 1203 q 465 1206 453 1204 q 498 1173 498 1202 l 498 1032 q 489 1008 498 1017 q 467 998 481 998 l 460 998 q 425 990 442 998 q 394 969 408 983 q 372 938 381 956 q 364 899 364 919 l 364 576 q 352 529 364 552 q 321 485 341 506 q 352 443 341 466 q 364 393 364 421 l 364 66 q 370 30 364 46 q 387 2 376 14 q 411 -16 397 -9 q 440 -26 425 -23 l 463 -33 q 488 -45 478 -36 q 498 -67 498 -53 l 498 -211 q 465 -244 498 -242 l 451 -243 q 436 -242 443 -243 q 421 -240 428 -242 q 318 -206 365 -232 q 237 -141 271 -180 q 185 -50 203 -101 q 166 59 166 1 l 166 314 q 165 336 166 324 q 161 359 165 349 q 150 377 158 369 q 130 384 143 384 l 85 384 q 54 417 54 384 l 54 554 q 85 585 54 585 l 127 585 q 158 600 150 585 q 166 635 166 615 l 166 902 z "},"_":{"ha":919,"x_min":115,"x_max":813,"o":"m 115 133 q 146 164 115 164 l 782 164 q 804 156 795 164 q 813 133 813 148 q 813 81 813 107 q 813 28 813 54 q 805 9 813 17 q 782 2 796 2 l 146 2 q 115 35 115 2 l 115 133 z "},"":{"ha":932,"x_min":117,"x_max":815,"o":"m 117 468 q 148 499 117 499 l 784 499 q 806 491 797 499 q 815 468 815 483 l 815 373 q 806 350 815 361 q 784 339 798 339 l 148 339 q 117 373 117 339 l 117 468 z "},"":{"ha":333,"x_min":72,"x_max":268,"o":"m 72 408 q 79 446 72 428 q 100 477 87 464 q 132 499 114 491 q 170 506 149 506 q 208 499 190 506 q 239 477 226 491 q 260 446 253 464 q 268 408 268 428 q 260 369 268 388 q 239 338 253 351 q 208 317 226 324 q 170 309 190 309 q 132 317 149 309 q 100 338 114 324 q 79 369 87 351 q 72 408 72 388 z "},"^":{"ha":678,"x_min":67,"x_max":610,"o":"m 76 888 q 319 1131 197 1009 q 329 1138 323 1135 q 339 1140 335 1140 q 359 1130 347 1140 l 596 894 q 606 880 602 887 q 610 866 610 874 q 601 847 610 856 l 532 775 q 509 765 522 765 q 487 773 496 765 l 339 922 l 190 773 q 167 766 176 766 q 147 775 156 766 l 77 844 q 67 865 67 851 q 70 877 67 871 q 76 888 72 884 z "},"\\":{"ha":700,"x_min":30,"x_max":667,"o":"m 48 962 q 43 973 46 967 q 37 987 40 980 q 32 1000 34 994 q 30 1011 30 1006 q 34 1022 30 1018 q 43 1028 38 1026 q 53 1031 48 1031 q 62 1031 58 1031 l 197 1031 q 224 1023 214 1031 q 241 1001 235 1015 l 256 963 q 460 497 359 728 q 663 30 561 265 q 665 20 664 22 q 667 17 666 18 q 640 0 667 0 l 492 0 q 470 7 478 0 q 456 28 463 13 l 48 962 z "},"~":{"ha":915,"x_min":84,"x_max":829,"o":"m 202 344 q 192 342 198 342 q 182 344 186 342 q 159 356 175 347 q 126 377 142 365 q 97 402 109 390 q 84 425 84 415 q 88 437 84 429 q 97 451 92 445 l 117 479 q 212 558 159 533 q 327 583 265 583 q 401 570 364 583 q 472 535 438 557 q 501 515 487 525 q 530 497 515 505 q 560 484 545 489 q 592 478 576 478 q 636 488 614 478 q 671 517 659 498 l 700 555 q 709 562 703 560 q 721 565 715 565 q 742 555 725 565 q 779 532 760 546 q 814 504 799 519 q 829 479 829 490 q 822 459 829 469 q 813 446 815 450 q 762 391 787 414 q 709 352 737 367 q 651 329 682 337 q 584 322 620 322 q 511 334 548 322 q 441 369 474 347 l 383 408 q 322 426 353 426 q 250 396 278 426 q 240 382 246 391 q 227 365 233 374 q 214 350 220 356 q 202 344 207 344 z "},"}":{"ha":568,"x_min":58,"x_max":501,"o":"m 390 657 q 391 630 390 643 q 394 607 391 617 q 406 591 398 597 q 429 585 414 585 l 471 585 q 501 554 501 585 l 501 417 q 471 384 501 384 l 426 384 q 406 377 413 384 q 395 359 399 369 q 391 336 392 349 q 390 314 390 324 l 390 59 q 372 -50 390 1 q 319 -141 353 -101 q 239 -206 285 -180 q 135 -240 192 -232 q 120 -242 128 -242 q 105 -243 113 -243 l 91 -244 q 58 -211 58 -241 l 58 -67 q 68 -45 58 -53 q 92 -33 78 -36 l 116 -26 q 144 -16 131 -23 q 169 2 158 -9 q 185 30 179 14 q 192 66 192 46 l 192 393 q 203 443 192 421 q 235 485 215 466 q 203 529 215 506 q 192 576 192 552 l 192 899 q 188 918 192 909 q 179 935 185 927 q 147 980 171 962 q 97 998 124 998 l 89 998 q 67 1008 76 998 q 58 1032 58 1017 l 58 1173 q 91 1206 58 1202 q 98 1205 94 1205 q 105 1204 101 1204 q 217 1176 165 1200 q 307 1113 269 1152 q 368 1019 346 1073 q 390 902 390 965 l 390 657 z "},"":{"ha":1071,"x_min":56,"x_max":972,"o":"m 140 680 q 215 827 166 760 q 331 942 265 894 q 476 1018 397 991 q 644 1046 556 1046 q 807 1021 730 1046 q 951 949 883 996 q 966 935 960 942 q 972 917 972 928 q 969 904 972 911 q 962 890 965 897 l 892 788 q 863 771 879 771 q 853 773 859 772 q 839 780 847 775 q 748 827 798 809 q 644 846 697 846 q 553 834 596 846 q 475 799 511 822 q 410 747 439 777 q 362 680 382 716 l 533 680 q 559 671 549 680 q 570 644 570 662 l 570 576 q 560 551 570 564 q 533 538 550 538 l 318 538 q 318 510 318 524 q 319 481 317 496 l 533 481 q 559 472 549 481 q 570 445 570 463 l 570 378 q 560 352 570 365 q 533 340 550 340 l 369 340 q 419 276 390 305 q 484 227 449 248 q 559 196 519 207 q 642 185 599 185 q 736 200 688 185 q 826 242 784 216 q 833 247 829 244 q 841 252 838 249 q 854 259 847 256 q 865 262 860 262 q 892 245 880 262 l 912 217 q 932 188 921 203 l 966 134 q 971 123 969 128 q 972 113 972 118 q 966 95 972 101 q 951 82 960 88 q 809 10 885 36 q 644 -15 732 -15 q 478 11 558 -15 q 334 85 399 38 q 219 197 268 132 q 143 340 169 263 l 94 340 q 56 378 56 340 l 56 445 q 94 481 56 481 l 115 481 q 114 501 115 489 q 114 538 114 513 l 94 538 q 56 576 56 538 l 56 644 q 94 680 56 680 l 140 680 z "},"E":{"ha":915,"x_min":113,"x_max":861,"o":"m 113 998 q 143 1031 113 1031 l 813 1031 q 838 1021 831 1031 q 846 996 846 1011 l 846 874 q 837 851 846 861 q 811 842 828 842 l 317 842 l 317 631 l 698 631 q 720 625 712 632 q 728 600 728 617 l 728 474 q 722 452 728 462 q 699 442 715 442 l 317 442 l 317 190 l 829 190 q 855 181 849 190 q 861 156 861 173 l 861 29 q 831 0 861 0 l 143 0 q 122 7 131 0 q 113 29 113 14 l 113 998 z "},"`":{"ha":371,"x_min":65,"x_max":301,"o":"m 294 1014 q 299 1003 297 1009 q 301 990 301 997 q 296 974 301 981 q 281 967 292 967 l 173 967 q 151 974 160 967 q 135 996 143 981 l 70 1143 q 66 1156 67 1149 q 65 1167 65 1163 q 69 1181 65 1175 q 85 1186 74 1186 l 209 1186 q 231 1179 221 1186 q 246 1157 240 1172 l 294 1014 z "},"":{"ha":950,"x_min":92,"x_max":873,"o":"m 92 107 q 93 134 92 122 q 97 158 95 147 q 105 174 98 169 q 123 180 113 178 q 147 182 134 182 q 171 181 159 181 l 204 181 q 239 181 224 181 q 264 174 254 180 q 278 157 274 169 q 283 124 283 145 l 283 75 q 281 38 283 53 q 274 15 280 24 q 256 3 269 6 q 222 -1 244 -1 l 171 -1 q 143 -1 157 -1 q 118 3 129 -1 q 99 15 106 6 q 92 41 92 24 l 92 107 m 388 107 q 389 134 387 122 q 392 158 390 147 q 400 174 393 169 q 418 180 408 178 q 442 182 429 182 q 466 181 454 181 l 499 181 q 534 181 519 181 q 559 175 549 180 q 574 158 569 169 q 578 124 578 146 l 578 75 q 577 39 578 53 q 570 16 576 24 q 551 3 564 7 q 517 -1 539 -1 l 466 -1 q 438 -1 452 -1 q 413 3 424 -1 q 394 15 401 6 q 388 41 388 24 l 388 107 m 683 107 q 687 158 683 136 q 695 174 688 169 q 714 180 703 178 q 737 182 724 182 q 761 181 749 181 l 794 181 q 830 181 815 181 q 854 174 844 180 q 868 157 864 169 q 873 124 873 145 l 873 75 q 872 38 873 53 q 865 15 870 24 q 847 3 859 6 q 813 -1 834 -1 l 761 -1 q 733 -1 747 -1 q 708 3 719 -1 q 690 15 697 6 q 683 41 683 24 l 683 107 z "},"":{"ha":331,"x_min":81,"x_max":251,"o":"m 252 891 q 241 869 252 875 q 212 864 230 864 l 122 864 q 108 865 115 864 q 94 869 101 866 q 85 877 88 871 q 81 891 81 883 l 81 1013 q 102 1117 81 1069 q 170 1193 123 1165 q 177 1197 175 1196 l 182 1197 q 198 1192 193 1197 q 209 1184 202 1190 q 224 1171 217 1178 q 237 1157 231 1164 q 242 1144 242 1149 q 235 1130 242 1137 q 220 1114 228 1123 q 205 1092 212 1104 q 198 1064 198 1081 l 198 1039 q 209 1026 198 1028 l 218 1026 q 243 1021 233 1026 q 252 1002 252 1016 l 252 891 z "},"":{"ha":327,"x_min":76,"x_max":247,"o":"m 77 1001 q 88 1023 77 1017 q 116 1029 98 1029 l 207 1029 q 221 1028 213 1029 q 234 1024 228 1027 q 244 1015 240 1021 q 248 1001 248 1010 l 248 879 q 227 775 248 823 q 159 700 205 728 q 151 695 154 696 l 147 695 q 131 700 136 695 q 119 708 127 702 q 105 721 112 714 q 92 736 97 728 q 86 748 86 743 q 93 762 86 755 q 108 779 100 769 q 124 800 117 788 q 131 829 131 812 l 131 853 q 119 866 131 864 l 111 866 q 86 871 95 866 q 77 890 77 876 l 77 1001 z "},"":{"ha":545,"x_min":63,"x_max":478,"o":"m 234 895 q 224 873 234 879 q 195 867 213 867 l 105 867 q 91 868 98 867 q 77 872 83 869 q 67 880 71 875 q 63 895 63 886 l 63 1017 q 85 1120 63 1073 q 153 1196 106 1168 q 160 1201 158 1200 l 164 1201 q 181 1196 176 1201 q 192 1188 184 1194 q 206 1175 199 1182 q 219 1160 214 1167 q 225 1148 225 1153 q 218 1134 225 1141 q 203 1117 211 1126 q 187 1096 194 1108 q 181 1067 181 1084 l 181 1043 q 192 1030 181 1032 l 201 1030 q 225 1025 216 1030 q 234 1006 234 1020 l 234 895 m 478 895 q 467 873 478 879 q 439 867 457 867 l 348 867 q 334 868 341 867 q 321 872 327 869 q 311 880 315 875 q 307 895 307 886 l 307 1017 q 328 1120 307 1073 q 396 1196 350 1168 q 404 1201 401 1200 l 408 1201 q 424 1196 419 1201 q 436 1188 428 1194 q 450 1175 443 1182 q 463 1160 457 1167 q 469 1148 469 1153 q 462 1134 469 1141 q 446 1117 455 1126 q 431 1096 438 1108 q 424 1067 424 1084 l 424 1043 q 436 1030 424 1032 l 444 1030 q 469 1025 460 1030 q 478 1006 478 1020 l 478 895 z "},"":{"ha":550,"x_min":60,"x_max":472,"o":"m 60 1003 q 71 1025 60 1019 q 100 1031 81 1031 l 190 1031 q 204 1030 197 1031 q 217 1026 211 1029 q 227 1018 224 1023 q 231 1003 231 1012 l 231 881 q 210 777 231 825 q 142 702 189 730 q 134 697 137 698 l 130 697 q 114 702 119 697 q 103 710 110 704 q 88 723 95 716 q 75 738 81 730 q 70 750 70 745 q 76 764 70 757 q 92 781 83 772 q 107 802 100 790 q 114 831 114 814 l 114 855 q 103 868 114 866 l 94 868 q 69 873 78 868 q 60 892 60 878 l 60 1003 m 302 1003 q 313 1025 302 1019 q 341 1031 323 1031 l 432 1031 q 446 1030 438 1031 q 459 1026 453 1029 q 469 1018 465 1023 q 473 1003 473 1012 l 473 881 q 452 777 473 825 q 384 702 430 730 q 376 697 379 698 l 372 697 q 356 702 361 697 q 344 710 352 704 q 330 723 337 716 q 317 738 322 730 q 311 750 311 745 q 318 764 311 757 q 333 781 325 772 q 349 802 342 790 q 356 831 356 814 l 356 855 q 344 868 356 866 l 336 868 q 311 873 320 868 q 302 892 302 878 l 302 1003 z "},"":{"ha":835,"x_min":101,"x_max":772,"o":"m 478 570 q 502 562 492 570 q 513 538 513 553 l 513 439 q 503 414 513 424 q 478 403 494 403 l 302 403 l 302 194 l 736 194 q 760 185 750 194 q 769 160 769 176 l 769 35 q 760 12 769 24 q 736 0 751 0 l 135 0 q 101 32 101 0 l 101 663 q 131 815 101 744 q 213 938 161 885 q 336 1019 265 990 q 487 1049 406 1049 q 635 1025 571 1049 q 753 961 699 1001 q 767 947 763 953 q 772 933 772 941 q 769 924 772 931 q 763 908 767 917 l 697 809 q 686 799 692 802 q 676 795 681 795 q 669 797 674 795 q 657 802 664 799 q 625 825 642 813 q 588 846 608 837 q 545 861 568 856 q 494 867 522 867 q 420 854 455 867 q 359 817 385 841 q 317 761 333 794 q 301 688 301 728 l 301 570 l 478 570 z "},"":{"ha":867,"x_min":54,"x_max":816,"o":"m 485 169 q 545 176 516 170 q 602 192 575 183 q 655 215 630 202 q 700 241 679 227 q 710 245 706 243 q 721 247 715 247 q 733 243 727 247 q 746 231 740 240 l 811 135 q 816 120 816 127 q 794 85 816 104 q 740 48 772 65 q 671 16 708 30 q 604 -4 634 1 l 604 -119 q 572 -149 604 -149 l 434 -149 q 411 -141 420 -149 q 403 -119 403 -133 l 403 -2 q 265 57 328 15 q 155 156 201 98 q 81 287 108 215 q 54 440 54 360 q 81 593 54 521 q 155 724 108 666 q 265 823 201 783 q 403 882 328 864 l 403 1000 q 410 1022 403 1014 q 434 1031 418 1031 l 572 1031 q 594 1023 583 1031 q 604 1000 604 1015 l 604 885 q 698 855 653 875 q 777 808 742 835 q 777 809 777 809 q 776 810 776 809 q 793 796 784 803 q 801 778 801 788 q 800 768 801 774 q 798 755 799 762 q 793 740 796 747 q 788 728 791 733 l 745 659 q 715 639 732 639 q 705 641 710 639 q 693 644 699 642 l 666 663 q 592 701 633 688 q 507 715 551 715 q 408 693 454 715 q 326 633 361 671 q 270 546 291 596 q 250 440 250 496 q 268 337 250 386 q 318 250 286 288 q 392 191 349 213 q 485 169 435 169 z "},"":{"ha":593,"x_min":34,"x_max":558,"o":"m 34 443 q 65 474 34 474 l 215 474 l 215 1013 q 222 1034 215 1025 q 245 1043 230 1043 l 344 1043 q 366 1035 356 1043 q 376 1013 376 1026 l 376 474 l 527 474 q 549 466 540 474 q 558 443 558 458 l 558 344 q 549 322 558 333 q 527 312 541 312 l 376 312 l 376 -247 q 344 -278 376 -278 l 245 -278 q 215 -247 215 -278 l 215 312 l 65 312 q 34 344 34 312 l 34 443 z "},"":{"ha":614,"x_min":45,"x_max":568,"o":"m 45 290 q 76 320 45 320 l 225 320 l 225 478 l 76 478 q 45 512 45 478 l 45 610 q 76 640 45 640 l 225 640 l 225 1013 q 233 1034 225 1025 q 256 1043 241 1043 l 354 1043 q 377 1035 366 1043 q 388 1013 388 1026 l 388 640 l 538 640 q 559 632 550 640 q 568 610 568 624 l 568 512 q 560 489 568 500 q 538 478 551 478 l 388 478 l 388 320 l 538 320 q 559 312 550 320 q 568 290 568 304 l 568 192 q 560 169 568 180 q 538 158 551 158 l 388 158 l 388 -247 q 354 -278 388 -278 l 256 -278 q 225 -247 225 -278 l 225 158 l 76 158 q 45 192 45 158 l 45 290 z "},"":{"ha":532,"x_min":33,"x_max":491,"o":"m 67 667 q 101 699 67 699 l 167 699 l 167 772 q 191 880 167 831 q 253 965 214 929 q 345 1022 293 1001 q 456 1047 398 1044 q 491 1014 491 1046 l 491 901 q 483 878 491 888 q 462 869 474 869 l 460 869 q 420 862 439 869 q 388 841 401 854 q 366 810 374 828 q 358 772 358 792 l 358 699 l 453 699 q 477 691 469 699 q 486 667 486 683 l 486 574 q 477 548 486 558 q 453 538 469 538 l 358 538 l 358 31 q 340 -79 358 -27 q 290 -172 323 -131 q 208 -239 256 -212 q 99 -274 160 -266 l 67 -276 q 33 -244 33 -276 l 33 -130 q 42 -107 33 -116 q 63 -99 50 -99 q 102 -91 83 -99 q 135 -71 121 -84 q 159 -40 150 -58 q 167 -1 167 -22 l 167 538 l 101 538 q 67 574 67 538 l 67 667 z "},"":{"ha":950,"x_min":74,"x_max":850,"o":"m 74 1021 q 89 1033 74 1033 l 378 1033 q 393 1021 393 1033 l 393 957 q 378 943 393 943 l 280 943 l 280 624 q 276 614 280 619 q 268 610 272 610 l 201 610 q 192 614 197 610 q 187 624 187 619 l 187 943 l 89 943 q 74 957 74 943 l 74 1021 m 440 1021 q 453 1033 440 1033 l 546 1033 q 558 1024 556 1033 l 635 796 l 713 1024 q 718 1031 714 1028 q 726 1033 723 1033 l 816 1033 q 825 1029 821 1033 q 830 1021 830 1025 l 850 622 q 835 610 850 610 l 773 610 q 761 622 761 610 l 744 871 l 669 639 q 659 628 665 628 l 612 628 q 601 639 606 628 l 527 871 l 510 622 q 497 610 510 610 l 433 610 q 421 622 421 610 l 440 1021 z "},"":{"ha":551,"x_min":28,"x_max":518,"o":"m 41 1109 q 106 1172 67 1149 q 193 1194 146 1194 q 235 1186 213 1193 q 283 1165 257 1180 l 325 1139 q 362 1126 342 1126 q 391 1135 379 1126 q 413 1154 403 1144 q 429 1173 422 1165 q 442 1182 436 1182 q 462 1173 449 1182 q 487 1151 474 1163 q 509 1128 499 1140 q 518 1113 518 1117 q 516 1106 518 1110 q 510 1097 513 1102 q 503 1088 507 1092 q 497 1079 499 1083 q 433 1026 469 1043 q 353 1008 396 1008 q 306 1017 330 1008 q 259 1040 281 1026 l 222 1064 q 205 1072 213 1069 q 185 1076 197 1075 q 158 1069 167 1076 q 138 1051 148 1062 q 122 1032 130 1042 q 103 1020 113 1022 q 86 1029 99 1020 q 61 1049 74 1038 q 38 1070 48 1060 q 28 1086 28 1081 q 30 1093 28 1088 q 41 1109 31 1097 z "},"":{"ha":519,"x_min":58,"x_max":462,"o":"m 244 1238 q 260 1244 251 1244 q 274 1238 266 1244 l 456 1056 q 462 1040 462 1053 q 456 1027 462 1033 l 416 986 q 390 971 402 971 q 378 975 385 971 q 366 985 372 978 l 260 1090 l 143 976 q 131 972 138 972 q 117 976 124 972 q 105 986 110 979 l 64 1025 q 59 1032 60 1028 q 58 1040 58 1035 q 64 1056 58 1051 l 244 1238 z "},"":{"ha":951,"x_min":40,"x_max":928,"o":"m 274 1006 q 378 814 326 910 q 483 622 431 719 l 694 1009 q 707 1025 701 1021 q 722 1031 713 1030 l 915 1031 q 923 1028 919 1031 q 928 1022 927 1025 q 926 1014 928 1019 q 921 1004 924 1010 l 638 528 l 748 528 q 769 521 760 528 q 778 498 778 513 l 778 437 q 770 414 778 425 q 748 403 762 403 l 584 403 l 584 337 l 748 337 q 769 329 760 337 q 778 306 778 321 l 778 244 q 770 222 778 233 q 748 211 762 211 l 584 211 l 584 31 q 566 10 584 10 l 566 11 q 564 6 565 8 q 556 0 561 0 l 408 0 q 389 9 397 1 q 382 33 382 18 l 382 211 l 235 211 q 204 244 204 211 l 204 306 q 235 337 204 337 l 382 337 l 382 403 l 235 403 q 204 437 204 403 l 204 498 q 235 528 204 528 l 328 528 l 49 1001 q 40 1018 40 1011 q 53 1031 40 1031 l 244 1031 q 253 1030 249 1030 q 259 1027 256 1029 q 266 1020 263 1025 q 274 1006 269 1015 z "},"":{"ha":1161,"x_min":113,"x_max":1049,"o":"m 113 468 q 143 499 113 499 l 1018 499 q 1040 491 1031 499 q 1049 468 1049 483 l 1049 373 q 1040 350 1049 361 q 1018 339 1032 339 l 143 339 q 113 373 113 339 l 113 468 z "},"":{"ha":608,"x_min":83,"x_max":577,"o":"m 204 794 q 386 614 296 703 q 567 433 476 524 q 577 413 577 423 q 575 402 577 408 q 568 392 572 397 q 392 216 479 303 q 216 40 305 128 q 200 26 208 32 q 183 19 192 19 q 164 28 172 19 l 151 40 q 130 59 142 49 q 108 81 119 70 q 90 103 98 92 q 83 121 83 113 q 85 133 83 126 q 91 142 88 139 l 359 412 l 91 681 q 85 692 86 686 q 83 703 84 699 q 92 724 85 716 l 160 793 q 183 802 169 802 q 194 800 188 802 q 204 794 201 798 z "},"N":{"ha":1119,"x_min":113,"x_max":1007,"o":"m 113 1000 q 121 1022 113 1013 q 144 1031 129 1031 l 303 1031 q 322 1027 313 1031 q 338 1013 331 1022 q 573 676 456 843 q 808 340 690 509 l 808 1005 q 819 1024 810 1017 q 839 1031 827 1031 l 973 1031 q 997 1023 987 1031 q 1007 1001 1007 1015 l 1007 28 q 974 0 1007 0 l 824 0 q 795 19 808 0 q 552 373 673 196 q 309 727 431 549 l 309 31 q 302 8 309 15 q 277 0 294 0 l 144 0 q 120 8 128 0 q 113 30 113 16 l 113 1000 z "},"":{"ha":362,"x_min":94,"x_max":328,"o":"m 147 1157 q 163 1179 153 1172 q 185 1186 173 1186 l 308 1186 q 324 1181 319 1186 q 328 1168 328 1176 q 327 1156 328 1163 q 324 1143 326 1149 l 258 996 q 221 967 244 967 l 113 967 q 97 972 101 967 q 94 985 94 978 q 94 999 94 992 q 99 1014 95 1006 l 147 1157 z "},"":{"ha":631,"x_min":94,"x_max":532,"o":"m 94 1139 q 100 1170 94 1159 q 124 1182 106 1182 l 214 1182 q 228 1181 221 1182 q 243 1177 236 1180 q 253 1168 249 1174 q 258 1152 258 1162 l 258 1051 q 250 1027 258 1037 q 228 1018 242 1018 l 138 1018 q 105 1024 117 1018 q 94 1051 94 1030 l 94 1139 m 368 1139 q 374 1170 368 1159 q 399 1182 381 1182 l 488 1182 q 520 1176 508 1182 q 532 1152 532 1169 l 532 1051 q 524 1027 532 1037 q 502 1018 517 1018 l 413 1018 q 379 1024 390 1018 q 368 1051 368 1031 l 368 1139 z "},"":{"ha":944,"x_min":97,"x_max":863,"o":"m 663 837 q 672 868 663 857 q 704 878 682 878 l 819 878 q 863 837 863 878 l 863 39 q 859 22 863 30 q 849 9 855 15 q 834 0 842 3 q 819 -3 826 -3 l 703 -3 q 673 9 683 -3 q 663 39 663 21 l 663 55 q 592 8 629 24 q 518 -11 555 -8 q 445 -8 481 -15 q 381 14 410 -1 q 330 47 352 28 q 298 88 308 66 l 298 -308 q 285 -337 298 -325 q 256 -349 272 -349 l 141 -349 q 108 -337 119 -349 q 97 -308 97 -326 l 97 837 q 108 868 97 857 q 142 878 119 878 l 256 878 q 278 872 269 878 q 291 856 286 866 q 297 832 295 845 q 298 806 298 819 l 298 352 q 315 276 299 310 q 358 220 332 243 q 416 185 384 197 q 480 173 448 173 q 552 188 519 173 q 608 226 584 202 q 645 282 631 250 q 663 348 660 313 l 663 837 z "},"":{"ha":395,"x_min":93,"x_max":283,"o":"m 93 472 q 98 505 93 491 q 124 519 103 519 l 233 519 q 250 518 241 519 q 266 514 258 517 q 278 505 273 511 q 283 488 283 499 l 283 385 q 282 367 283 376 q 278 352 281 359 q 269 341 275 345 q 251 338 263 338 l 142 338 q 106 343 118 338 q 93 369 93 348 l 93 472 z "},"":{"ha":387,"x_min":70,"x_max":357,"o":"m 229 1 q 214 -24 214 -10 q 225 -44 214 -35 q 251 -64 235 -53 q 285 -85 267 -74 q 320 -111 304 -97 q 346 -145 335 -126 q 357 -190 357 -165 q 343 -240 357 -215 q 303 -289 330 -265 q 238 -333 277 -312 q 145 -369 198 -353 l 142 -369 q 121 -358 131 -369 q 103 -331 111 -346 q 89 -300 94 -315 q 84 -279 84 -285 q 92 -264 84 -268 q 210 -190 210 -234 q 200 -163 210 -175 q 174 -141 190 -151 q 140 -119 158 -130 q 107 -96 122 -108 q 81 -68 91 -84 q 70 -33 70 -53 q 72 -17 70 -25 q 84 1 74 -9 l 229 1 z "},"":{"ha":452,"x_min":75,"x_max":377,"o":"m 226 936 q 285 924 258 936 q 333 892 313 913 q 365 844 353 872 q 377 785 377 817 q 365 725 377 753 q 333 677 353 698 q 285 645 313 657 q 226 634 258 634 q 168 645 195 634 q 119 677 140 657 q 87 725 99 698 q 75 785 75 753 q 87 844 75 817 q 119 892 99 872 q 167 924 139 913 q 226 936 194 936 m 226 859 q 197 853 210 859 q 173 838 183 847 q 157 814 163 828 q 151 785 151 800 q 173 732 151 753 q 226 710 194 710 q 255 716 242 710 q 278 732 268 722 q 294 755 288 742 q 300 785 300 769 q 294 814 300 800 q 278 838 288 828 q 255 853 268 847 q 226 859 242 859 z "},"":{"ha":395,"x_min":93,"x_max":283,"o":"m 93 947 q 98 981 93 967 q 124 994 103 994 l 233 994 q 250 994 241 994 q 266 990 258 993 q 278 981 273 987 q 283 964 283 975 l 283 861 q 282 843 283 851 q 278 828 281 835 q 269 817 275 821 q 251 813 263 813 l 142 813 q 106 818 118 813 q 93 844 93 824 l 93 947 z "},"":{"ha":453,"x_min":33,"x_max":419,"o":"m 224 981 q 149 997 183 982 q 88 1036 114 1013 q 48 1091 63 1060 q 33 1156 33 1122 q 41 1174 33 1167 q 60 1181 49 1181 l 138 1181 q 153 1175 148 1181 q 159 1161 159 1169 q 176 1122 159 1140 q 227 1105 192 1105 q 255 1110 242 1105 q 276 1123 267 1115 q 289 1141 284 1131 q 293 1161 293 1151 q 298 1175 293 1169 q 313 1181 303 1181 l 392 1181 q 411 1174 403 1181 q 419 1156 419 1167 q 404 1090 419 1122 q 363 1035 389 1059 q 301 997 336 1011 q 224 981 265 982 z "},"":{"ha":372,"x_min":28,"x_max":317,"o":"m 310 0 q 316 -16 315 -8 q 317 -31 317 -23 q 306 -66 317 -51 q 280 -95 296 -82 q 246 -118 265 -108 q 212 -140 228 -129 q 186 -163 197 -151 q 176 -190 176 -175 q 294 -264 176 -234 q 302 -279 302 -268 q 297 -296 302 -281 q 285 -327 292 -310 q 266 -357 277 -344 q 244 -370 256 -370 l 241 -370 q 149 -333 188 -354 q 82 -289 109 -312 q 42 -241 56 -266 q 28 -190 28 -215 q 39 -145 28 -165 q 66 -111 50 -126 q 100 -85 82 -97 q 135 -64 119 -74 q 161 -44 151 -54 q 172 -24 172 -35 q 165 0 172 -10 l 310 0 z "},"":{"ha":853,"x_min":113,"x_max":747,"o":"m 451 -273 q 321 -245 382 -273 q 217 -163 260 -217 l 217 -164 q 211 -146 211 -158 q 224 -117 211 -128 l 224 -117 l 264 -76 l 264 -77 q 280 -60 271 -69 q 297 -45 288 -52 q 315 -34 306 -39 q 331 -30 324 -30 q 346 -34 339 -30 q 363 -44 353 -38 l 362 -44 q 399 -62 377 -52 q 451 -72 421 -72 q 485 -65 469 -72 q 513 -47 501 -58 q 533 -18 526 -35 q 541 17 541 -2 l 541 995 q 550 1021 541 1011 q 576 1031 559 1031 l 706 1031 q 736 1021 725 1031 q 747 991 747 1010 l 747 52 q 742 -22 747 15 q 710 -121 735 -76 q 645 -201 684 -167 q 556 -254 606 -235 q 451 -273 506 -273 m 319 38 q 279 0 319 0 l 151 0 q 113 38 113 0 l 113 994 q 123 1020 113 1010 q 151 1031 133 1031 l 279 1031 q 307 1021 295 1031 q 319 994 319 1010 l 319 38 z "},"":{"ha":808,"x_min":-46,"x_max":742,"o":"m 706 190 q 731 180 720 190 q 742 153 742 170 l 742 38 q 732 11 742 22 q 706 0 722 0 l 130 0 q 94 38 94 0 l 94 419 q 77 414 85 417 q 60 407 68 410 l 19 392 q 6 390 15 390 q -7 392 -2 390 q -15 400 -12 395 q -22 414 -19 406 q -29 432 -24 422 l -32 439 q -42 463 -37 451 q -46 484 -46 474 q -40 501 -46 494 q -25 512 -35 508 q 34 534 6 524 q 94 556 63 544 l 94 995 q 104 1022 94 1011 q 131 1033 114 1033 l 268 1033 q 295 1023 284 1033 q 306 995 306 1013 l 306 629 q 361 649 334 639 q 417 669 389 659 q 419 669 418 669 q 421 669 420 669 q 434 664 427 669 q 446 650 442 659 l 453 634 q 465 603 459 619 q 471 575 471 588 q 464 560 471 567 q 450 548 458 552 l 378 521 q 341 506 358 513 q 306 494 324 499 l 306 190 l 706 190 z "},"":{"ha":746,"x_min":122,"x_max":676,"o":"m 122 840 q 132 870 122 858 q 163 882 142 882 l 278 882 q 293 879 285 882 q 308 870 301 876 q 318 856 314 864 q 322 840 322 849 l 322 42 q 278 0 322 0 l 163 0 q 122 42 122 0 l 122 840 m 122 1147 q 163 1188 122 1188 l 279 1188 q 310 1178 299 1188 q 322 1147 322 1167 l 322 1043 q 311 1013 322 1027 q 280 999 300 999 l 163 999 q 122 1043 122 999 l 122 1147 m 472 836 q 485 870 471 859 q 519 882 500 882 l 631 882 q 664 869 653 882 q 676 836 676 856 l 676 26 q 672 -44 676 -10 q 638 -137 664 -94 q 572 -212 611 -181 q 485 -261 533 -243 q 386 -278 437 -278 q 355 -266 366 -278 q 343 -236 343 -254 l 343 -164 q 356 -130 343 -142 q 388 -117 369 -117 l 397 -117 q 427 -106 413 -117 q 450 -79 440 -95 q 466 -43 460 -62 q 472 -8 472 -24 l 472 836 m 469 1147 q 480 1178 470 1169 q 510 1188 490 1188 l 631 1188 q 663 1179 652 1188 q 674 1144 674 1170 l 674 1047 q 671 1032 674 1040 q 664 1016 669 1024 q 650 1003 658 1008 q 631 998 642 998 l 510 998 q 469 1045 469 1000 l 469 1147 z "},"":{"ha":1028,"x_min":0,"x_max":0,"o":""},"":{"ha":524,"x_min":29,"x_max":482,"o":"m 406 529 q 422 524 416 529 q 428 506 428 518 l 428 418 q 422 401 428 408 q 406 394 416 394 l 89 394 q 65 418 65 394 l 65 506 q 89 529 65 529 l 406 529 m 414 0 q 311 17 359 1 q 227 63 263 33 q 170 137 191 93 q 149 238 149 181 l 149 352 l 149 706 l 69 706 q 39 715 49 706 q 29 745 29 724 l 29 845 q 39 874 29 865 q 69 882 49 882 l 149 882 q 150 955 149 919 q 150 1028 150 992 q 159 1050 150 1042 q 185 1065 167 1058 q 214 1075 197 1069 q 248 1086 231 1081 q 283 1095 266 1092 q 310 1099 299 1099 q 339 1088 332 1099 q 345 1056 345 1076 q 345 969 345 1013 q 344 882 344 926 l 444 882 q 472 873 463 882 q 482 843 482 863 l 482 748 q 472 716 482 726 q 444 706 463 706 l 344 706 q 344 630 344 661 q 344 575 344 599 q 345 530 344 551 q 345 485 345 509 q 345 429 345 460 q 345 353 345 398 q 345 350 345 351 q 344 347 344 349 l 344 256 q 363 190 344 210 q 421 170 381 170 q 444 160 435 170 q 452 135 452 149 l 452 38 q 442 10 452 20 q 414 0 432 0 z "},"":{"ha":524,"x_min":29,"x_max":661,"o":"m 414 0 q 311 17 359 1 q 227 63 263 33 q 170 137 191 93 q 149 238 149 181 l 149 352 l 149 706 l 69 706 q 39 715 49 706 q 29 745 29 724 l 29 845 q 39 874 29 865 q 69 882 49 882 l 149 882 q 150 955 149 919 q 150 1028 150 992 q 159 1050 150 1042 q 185 1065 167 1058 q 214 1075 197 1069 q 248 1086 231 1081 q 283 1095 266 1092 q 310 1099 299 1099 q 339 1088 332 1099 q 345 1056 345 1076 q 345 969 345 1013 q 344 882 344 926 l 444 882 q 472 873 463 882 q 482 843 482 863 l 482 748 q 472 716 482 726 q 444 706 463 706 l 344 706 q 344 630 344 661 q 344 575 344 599 q 345 530 344 551 q 345 485 345 509 q 345 429 345 460 q 345 353 345 398 q 345 350 345 351 q 344 347 344 349 l 344 256 q 363 190 344 210 q 421 170 381 170 q 444 160 435 170 q 452 135 452 149 l 452 38 q 442 10 452 20 q 414 0 432 0 m 484 1097 q 495 1120 484 1114 q 525 1126 507 1126 l 619 1126 q 648 1120 634 1126 q 661 1097 661 1115 l 661 947 q 633 848 659 892 q 563 777 608 803 l 554 777 q 537 784 543 777 l 503 814 q 494 832 494 822 q 501 847 494 840 q 517 864 508 855 q 532 886 525 874 q 540 917 540 899 l 540 942 q 536 951 540 948 q 528 956 533 954 l 519 956 q 493 961 503 956 q 484 982 484 967 l 484 1097 z "},"":{"ha":425,"x_min":0,"x_max":0,"o":""},"":{"ha":893,"x_min":56,"x_max":835,"o":"m 56 1001 q 66 1022 56 1013 q 90 1031 76 1031 l 799 1031 q 823 1024 812 1031 q 835 1001 833 1016 l 835 878 q 826 852 835 863 q 799 842 817 842 l 547 842 l 547 664 l 628 664 q 644 658 638 664 q 650 641 650 653 l 650 522 q 644 505 650 513 q 628 497 638 497 l 547 497 l 547 35 q 544 24 547 30 q 538 13 542 18 q 527 3 533 7 q 515 0 522 0 l 376 0 q 366 3 372 0 q 355 11 360 6 q 346 23 349 16 q 342 35 342 29 l 342 497 l 274 497 q 250 522 250 497 l 250 641 q 274 664 250 664 l 342 664 l 342 842 l 90 842 q 66 851 76 842 q 56 878 56 861 l 56 1001 z "},"":{"ha":690,"x_min":78,"x_max":603,"o":"m 573 158 q 594 150 585 158 q 603 128 603 142 l 603 32 q 595 10 603 20 q 573 0 587 0 l 117 0 q 86 32 86 0 l 86 128 q 117 158 86 158 l 573 158 m 78 562 q 109 592 78 592 l 251 592 l 251 738 q 285 769 251 769 l 397 769 q 428 738 428 769 l 428 592 l 571 592 q 592 585 583 592 q 601 562 601 577 l 601 456 q 593 433 601 444 q 571 423 585 423 l 428 423 l 428 276 q 420 255 428 264 q 397 246 413 246 l 285 246 q 262 254 273 246 q 251 276 251 263 l 251 423 l 109 423 q 78 456 78 423 l 78 562 z "},"":{"ha":724,"x_min":22,"x_max":699,"o":"m 556 1001 q 572 1022 561 1013 q 600 1031 583 1031 l 665 1031 q 689 1026 678 1031 q 699 1010 699 1020 q 698 1001 699 1002 l 168 31 q 153 7 160 13 q 131 0 147 0 l 51 0 q 22 18 22 0 q 25 31 22 17 l 556 1001 z "}}}
